<svg width="24" height="24" viewBox="0 0 24 24" fill="none" xmlns="http://www.w3.org/2000/svg">
<path d="M12 11.2623C11.436 11.2623 10.9617 11.0643 10.577 10.6685C10.1923 10.2726 10 9.78442 10 9.20399C10 8.62355 10.1923 8.1354 10.577 7.73952C10.9617 7.34364 11.436 7.1457 12 7.1457C12.564 7.1457 13.0383 7.34364 13.423 7.73952C13.8077 8.1354 14 8.62355 14 9.20399C14 9.78442 13.8077 10.2726 13.423 10.6685C13.0383 11.0643 12.564 11.2623 12 11.2623ZM7 21V14.218C6.36667 13.5765 5.875 12.8242 5.525 11.9611C5.175 11.0979 5 10.1789 5 9.20399C5 7.19305 5.678 5.48947 7.034 4.09327C8.38933 2.69776 10.0437 2 11.997 2C13.9503 2 15.606 2.69776 16.964 4.09327C18.322 5.48879 19.0007 7.19236 19 9.20399C19 10.1789 18.825 11.0979 18.475 11.9611C18.125 12.8242 17.6333 13.5758 17 14.2159V20.9979L12 19.4542L7 21ZM12 15.3788C13.6667 15.3788 15.0833 14.7785 16.25 13.5778C17.4167 12.3772 18 10.9192 18 9.20399C18 7.48875 17.4167 6.0308 16.25 4.83014C15.0833 3.62947 13.6667 3.02914 12 3.02914C10.3333 3.02914 8.91667 3.62947 7.75 4.83014C6.58333 6.0308 6 7.48875 6 9.20399C6 10.9192 6.58333 12.3772 7.75 13.5778C8.91667 14.7785 10.3333 15.3788 12 15.3788ZM8 19.5407L12 18.387L16 19.5407V15.0845C15.4427 15.5064 14.8217 15.8323 14.137 16.0622C13.453 16.2927 12.7393 16.408 11.996 16.408C11.2527 16.408 10.5403 16.2931 9.859 16.0632C9.17767 15.8334 8.558 15.5071 8 15.0845V19.5407Z" fill="#858585"/>
</svg>
