<svg width="25" height="25" viewBox="0 0 25 25" fill="none" xmlns="http://www.w3.org/2000/svg">
<path d="M12.2207 12.4988C11.6567 12.4988 11.1824 12.3064 10.7977 11.9218C10.413 11.5371 10.2207 11.0628 10.2207 10.4988C10.2207 9.93478 10.413 9.46045 10.7977 9.07578C11.1824 8.69111 11.6567 8.49878 12.2207 8.49878C12.7847 8.49878 13.259 8.69111 13.6437 9.07578C14.0284 9.46045 14.2207 9.93478 14.2207 10.4988C14.2207 11.0628 14.0284 11.5371 13.6437 11.9218C13.259 12.3064 12.7847 12.4988 12.2207 12.4988ZM7.2207 21.9608V15.3708C6.58737 14.7474 6.0957 14.0164 5.7457 13.1778C5.3957 12.3391 5.2207 11.4461 5.2207 10.4988C5.2207 8.54478 5.8987 6.88945 7.2547 5.53278C8.61004 4.17678 10.2644 3.49878 12.2177 3.49878C14.171 3.49878 15.8267 4.17678 17.1847 5.53278C18.5427 6.88878 19.2214 8.54411 19.2207 10.4988C19.2207 11.4461 19.0457 12.3391 18.6957 13.1778C18.3457 14.0164 17.854 14.7468 17.2207 15.3688V21.9588L12.2207 20.4588L7.2207 21.9608ZM12.2207 16.4988C13.8874 16.4988 15.304 15.9154 16.4707 14.7488C17.6374 13.5821 18.2207 12.1654 18.2207 10.4988C18.2207 8.83211 17.6374 7.41545 16.4707 6.24878C15.304 5.08211 13.8874 4.49878 12.2207 4.49878C10.554 4.49878 9.13737 5.08211 7.9707 6.24878C6.80404 7.41545 6.2207 8.83211 6.2207 10.4988C6.2207 12.1654 6.80404 13.5821 7.9707 14.7488C9.13737 15.9154 10.554 16.4988 12.2207 16.4988ZM8.2207 20.5428L12.2207 19.4218L16.2207 20.5428V16.2128C15.6634 16.6228 15.0424 16.9394 14.3577 17.1628C13.6737 17.3868 12.96 17.4988 12.2167 17.4988C11.4734 17.4988 10.761 17.3871 10.0797 17.1638C9.39837 16.9404 8.7787 16.6234 8.2207 16.2128V20.5428Z" fill="#0B8FAC"/>
</svg>
