<svg width="20" height="20" viewBox="0 0 20 20" fill="none" xmlns="http://www.w3.org/2000/svg">
<path d="M18.9502 6.41797L18.9521 6.41895C19.4896 6.7433 19.8496 7.32638 19.8496 8.00098V18.001C19.8494 19.018 19.017 19.8506 18 19.8506H2C0.98296 19.8506 0.150582 19.018 0.150391 18.001V8.00098C0.150391 7.32638 0.510351 6.7433 1.04785 6.41895L1.0498 6.41797L10 0.816406L18.9502 6.41797ZM17.9209 9.87305L10 14.8232L2.0791 9.87305L1.84961 9.73047V18.1504H18.1504V9.73047L17.9209 9.87305ZM9.9209 2.87305L1.9209 7.87305L1.7168 8.00098L1.9209 8.12793L9.9209 13.1279L10 13.1777L10.0791 13.1279L18.0791 8.12793L18.2832 8.00098L18.0791 7.87305L10.0791 2.87305L10 2.82422L9.9209 2.87305Z" fill="#858585" stroke="#EDF7F5" stroke-width="0.3"/>
</svg>
