<svg width="20" height="21" viewBox="0 0 20 21" fill="none" xmlns="http://www.w3.org/2000/svg">
<path fill-rule="evenodd" clip-rule="evenodd" d="M10.1668 2.50113C10.7072 2.50113 11.1454 2.95015 11.1454 3.50405C11.1454 4.05794 10.7072 4.50696 10.1668 4.50696L4.20321 4.50696C3.73029 4.50696 3.34691 4.89985 3.34691 5.3845L3.34691 16.6673C3.34691 17.152 3.73029 17.5448 4.20321 17.5448H15.2128C15.6858 17.5448 16.0691 17.152 16.0691 16.6673V11.0259C16.0691 10.472 16.5073 10.023 17.0478 10.023C17.5882 10.023 18.0264 10.472 18.0264 11.0259V16.6673C18.0264 18.2597 16.7667 19.5507 15.2128 19.5507H4.20321C2.64933 19.5507 1.38965 18.2597 1.38965 16.6673V5.3845C1.38965 3.79206 2.64933 2.50113 4.20321 2.50113H10.1668ZM18.6847 1.66655C19.1067 2.01251 19.1751 2.64354 18.8375 3.076L11.9394 12.1508C11.5751 12.6175 10.8958 12.656 10.4835 12.2334L6.56953 8.22238C6.18744 7.83074 6.18744 7.1959 6.56953 6.80426C6.95162 6.41262 7.57119 6.41265 7.95332 6.80426L11.0942 10.0231L17.3094 1.82316C17.647 1.3907 18.2627 1.32059 18.6847 1.66655Z" fill="#0B8FAC" stroke="#EDF7F5"/>
</svg>
