<svg width="24" height="24" viewBox="0 0 24 24" fill="none" xmlns="http://www.w3.org/2000/svg">
<path d="M6.6665 2.91602H13.3335C13.6207 2.9161 13.896 3.03031 14.0991 3.2334C14.3022 3.43649 14.4164 3.71182 14.4165 3.99902C14.4165 4.28634 14.3023 4.56246 14.0991 4.76562C13.896 4.96861 13.6206 5.08292 13.3335 5.08301H6.6665C5.79227 5.08301 5.0835 5.79344 5.0835 6.66602V17.333C5.08367 18.2054 5.79238 18.916 6.6665 18.916H17.3335C18.2075 18.9158 18.9163 18.2053 18.9165 17.333V13.333C18.9165 13.0457 19.0307 12.7696 19.2339 12.5664C19.437 12.3634 19.7124 12.2491 19.9995 12.249C20.2868 12.249 20.563 12.3632 20.7661 12.5664C20.9693 12.7696 21.0835 13.0457 21.0835 13.333V17.333C21.0833 19.4 19.4005 21.0828 17.3335 21.083H6.6665C4.59935 21.083 2.91668 19.4001 2.9165 17.333V6.66602L2.92139 6.47363C3.02191 4.49536 4.66376 2.91602 6.6665 2.91602ZM19.522 3.10156C19.7249 3.12338 19.9216 3.18518 20.1001 3.28418C20.2788 3.38333 20.436 3.51785 20.562 3.67871C20.6879 3.83948 20.781 4.02362 20.8345 4.2207C20.888 4.41792 20.901 4.62466 20.8735 4.82715C20.8463 5.02785 20.7789 5.22091 20.6763 5.39551L14.8979 14.7285L14.8921 14.7393C14.7776 14.946 14.6162 15.124 14.4214 15.2578C14.2279 15.3906 14.0062 15.4757 13.7739 15.5088L13.5503 15.5254C13.2013 15.5244 12.8618 15.404 12.5894 15.1807L12.4771 15.0781L8.91943 11.5225C8.64718 11.234 8.49744 10.8509 8.50244 10.4541C8.50752 10.0552 8.66842 9.67357 8.95068 9.3916C9.23291 9.10971 9.61432 8.94902 10.0132 8.94434C10.3622 8.94027 10.7006 9.05624 10.9731 9.26953L11.0864 9.36719L12.9692 11.252L13.1899 11.4727L13.3569 11.21L17.9907 3.93652L17.9966 3.92676L18.0015 3.91699C18.0956 3.73564 18.2251 3.57479 18.3823 3.44434C18.5396 3.31387 18.7218 3.21621 18.9175 3.15723C19.1131 3.09828 19.3188 3.07977 19.522 3.10156Z" fill="white" stroke="url(#paint0_linear_3687_1647)" stroke-width="0.5"/>
<defs>
<linearGradient id="paint0_linear_3687_1647" x1="11.9998" y1="2.66602" x2="11.9998" y2="21.3327" gradientUnits="userSpaceOnUse">
<stop stop-color="#2AA2AF"/>
<stop offset="1" stop-color="#3DADB2"/>
</linearGradient>
</defs>
</svg>
