<svg width="17" height="20" viewBox="0 0 17 20" fill="none" xmlns="http://www.w3.org/2000/svg">
<path d="M2.125 2.00525H9.5625L12.75 5.00525L14.875 7.00525V18.0052H2.125V2.00525Z" fill="white"/>
<path d="M2.125 0.0996094H10.585L16.9004 6.04297V18C16.9004 19.0391 15.9943 19.9004 14.875 19.9004H2.125C1.00568 19.9004 0.0996094 19.0391 0.0996094 18V2C0.0996094 0.960853 1.00568 0.0996094 2.125 0.0996094ZM2.02539 18.0996H14.9746V6.90039H9.66211V1.90039H2.02539V18.0996ZM13.7129 13.0996V16.9004H11.7871V13.0996H13.7129ZM9.46289 9.09961V16.9004H7.53711V9.09961H9.46289ZM5.21289 11.0996V16.9004H3.28711V11.0996H5.21289Z" fill="white" stroke="#0B8FAC" stroke-width="0.2"/>
<rect x="3.1875" y="11.0026" width="2.125" height="6" fill="#0B8FAC"/>
<rect x="7.4375" y="8.99744" width="2.125" height="8" fill="#0B8FAC"/>
<rect x="11.6875" y="12.9948" width="2.125" height="4" fill="#0B8FAC"/>
<path d="M9.5625 2.00525L14.875 7.00525H9.5625V2.00525Z" fill="#0B8FAC"/>
</svg>
