<svg width="153" height="170" viewBox="0 0 153 170" fill="none" xmlns="http://www.w3.org/2000/svg">
<g filter="url(#filter0_d_1400_24776)">
<path d="M90.5567 50.8808C90.5567 50.8808 90.5567 50.8808 90.5567 51.0972C90.5567 51.3137 90.5567 51.9992 90.5567 52.5043C90.6111 53.5258 90.6111 54.5495 90.5567 55.571C90.5567 56.6894 90.5567 57.8078 90.2675 58.9623C89.9783 61.3074 89.5807 63.7608 89.183 66.178V67.0439C89.183 67.0439 89.183 67.0439 89.183 67.3686C89.183 67.6933 89.3999 68.7035 89.6168 69.6415C89.8365 70.6803 90.1888 71.6867 90.6651 72.636C91.2313 73.7151 92.0345 74.6524 93.0147 75.378L94.6053 76.4603L95.9789 77.3984C96.2017 77.195 96.4439 77.0138 96.7018 76.8572C98.3226 75.9614 100.167 75.5482 102.016 75.6666L102.883 75.8831L103.353 76.1356H103.064L102.196 75.9192C101.294 75.895 100.392 76.0044 99.5214 76.2439C98.6416 76.4641 97.8005 76.8169 97.0272 77.2901L96.3404 77.7952L97.714 78.8054C98.1116 79.2023 98.5093 79.527 98.8707 79.8517C99.2322 80.1764 100.172 81.0784 100.606 81.4752L101.22 82.0886L100.57 81.5113C100.136 81.1505 99.5214 80.5733 98.7623 79.996L97.5332 79.058L96.0873 78.0478C95.6174 77.7231 95.039 77.4344 94.4968 77.0737C93.9546 76.7129 93.3762 76.4604 92.834 76.0996C91.7094 75.3748 90.7689 74.399 90.0867 73.2494C89.5744 72.3215 89.1624 71.3419 88.8577 70.327C88.8577 71.4454 88.6047 72.5278 88.5324 73.6101C88.4601 74.6925 88.5324 75.847 88.5324 76.8933C88.5481 77.8976 88.6448 78.899 88.8216 79.8878L89.0385 81.1866C89.1254 81.5771 89.234 81.9626 89.3638 82.3411C89.5299 82.9712 89.7475 83.5866 90.0144 84.1811L90.7374 85.6964C90.7374 85.6964 90.4121 85.1552 89.906 84.2172C89.5989 83.64 89.3448 83.0362 89.1469 82.4133C89.1469 82.0525 88.8577 81.6556 88.7493 81.2588C88.6408 80.8619 88.5685 80.3929 88.4601 79.9599C88.2247 78.9757 88.0676 77.9744 87.9902 76.9654C87.9902 75.8831 87.9902 74.7286 87.9902 73.5741C87.9902 72.4196 87.9902 71.1929 87.9902 69.9662C87.9902 68.7396 87.9902 68.2706 88.207 67.4047V66.8996C88.2964 66.6891 88.3689 66.472 88.4239 66.2502C88.6408 63.7607 88.8939 61.3074 89.0385 59.0345C89.0385 58.5655 89.0385 58.0964 89.0385 57.6635C87.1402 59.335 85.5498 61.3253 84.3392 63.5443C83.9495 64.3357 83.6581 65.1717 83.4716 66.0337C83.2909 66.9717 83.1463 67.9458 82.9656 68.956C82.7995 69.9876 82.4701 70.9862 81.9896 71.9145L81.6281 72.4556L81.6642 72.5278C81.8137 72.7528 81.9351 72.9951 82.0257 73.2494C82.1738 73.5632 82.2947 73.8891 82.3872 74.2235C82.62 75.0478 82.7654 75.8943 82.821 76.749C82.8928 77.6977 82.8928 78.6504 82.821 79.5992C82.642 81.3263 82.642 83.0673 82.821 84.7944C82.8727 85.3721 82.9941 85.9414 83.1825 86.4901V87.1035C83.1825 87.1035 83.1825 86.887 82.9294 86.4901C82.7246 85.9516 82.5674 85.3963 82.4595 84.8305C82.1646 83.151 82.0195 81.4486 82.0257 79.7435V79.4909L81.3028 80.5372C80.9413 81.0423 80.5436 81.6196 80.146 82.269C79.7484 82.9184 79.3869 83.6039 78.9893 84.3254C78.5916 85.047 78.2663 85.7686 78.0133 86.4901C77.7478 87.1223 77.5303 87.7736 77.3626 88.4384C77.2386 88.9013 77.142 89.3711 77.0734 89.8454C77.1085 89.357 77.1933 88.8735 77.3265 88.4023C77.4839 87.7429 77.677 87.0926 77.9048 86.454C78.1579 85.7325 78.5193 85.0109 78.8447 84.2533C79.17 83.4956 79.5676 82.8101 79.9653 82.1607C80.3629 81.5113 80.7244 80.898 81.0859 80.3929C81.3737 79.9306 81.6875 79.4849 82.0257 79.058C82.0257 78.3364 82.0257 77.6509 82.0257 77.0015C81.9105 76.2263 81.7167 75.4647 81.4473 74.7286C81.3368 74.4536 81.2038 74.1881 81.0497 73.9349C81.0497 73.7184 80.8328 73.538 80.7605 73.3576C80.6882 73.1772 80.2906 73.9348 80.0376 74.1874C78.7001 75.5584 77.2542 76.5325 76.4228 77.7952C75.9848 78.2876 75.6307 78.8482 75.3745 79.4548C75.1518 79.9245 74.9938 80.4221 74.9045 80.9341C74.8826 81.2584 74.8826 81.5838 74.9045 81.9082C74.9045 81.6917 74.9045 81.3309 74.9045 80.898C74.9545 80.3787 75.0762 79.8688 75.266 79.3827C75.5005 78.7255 75.8293 78.1057 76.242 77.5427C77.1457 76.316 78.5194 75.1976 79.8568 73.9349C80.4444 73.2422 80.9423 72.4786 81.3389 71.6619C81.6864 70.7963 81.9055 69.8848 81.9896 68.956C81.9896 67.9819 81.9896 67.0078 82.2788 65.9976C82.5679 64.9874 82.4595 65.0235 82.5679 64.5184L81.6642 63.869C81.5442 63.7485 81.3946 63.6614 81.2305 63.6164C81.0339 63.4986 80.8091 63.4362 80.5798 63.4361C79.9259 63.4438 79.2968 63.6873 78.8085 64.1215C78.1579 64.5906 77.5434 65.2039 76.8204 65.7451C76.6551 65.8972 76.4732 66.0303 76.2782 66.1419H76.0613C76.0679 66.2139 76.0679 66.2864 76.0613 66.3584C76.2374 66.7337 76.3475 67.1364 76.3866 67.549C76.5116 68.1316 76.5116 68.7341 76.3866 69.3168C76.2531 69.9749 76.0471 70.6162 75.7721 71.229C75.2628 72.3719 74.6582 73.4702 73.9647 74.5121L73.0248 75.9552L73.9285 74.5121C74.5677 73.4444 75.1353 72.3356 75.6275 71.1929C75.8909 70.579 76.0849 69.9376 76.2059 69.2807C76.2951 68.719 76.2951 68.1468 76.2059 67.5851C76.1719 67.3621 76.1112 67.1441 76.0251 66.9356C76.0251 66.9356 76.0251 66.6109 76.0251 66.4666V66.2862L74.8322 66.7553C74.1376 66.9955 73.471 67.31 72.8441 67.6933C72.3994 67.9694 72.0471 68.3713 71.832 68.8478C71.7996 69.0389 71.7996 69.234 71.832 69.4251C71.792 69.2226 71.792 69.0142 71.832 68.8117C72.0208 68.3014 72.3613 67.8608 72.8079 67.549C73.4139 67.1033 74.0688 66.7281 74.76 66.4306L75.8805 65.8533L76.3866 65.5286L76.8927 65.0957C77.5072 64.5184 78.0856 63.869 78.7362 63.2917C79.346 62.683 80.1537 62.3119 81.0136 62.2455C81.3837 62.2289 81.7532 62.2904 82.098 62.4259C82.3609 62.5138 82.6058 62.6483 82.821 62.8227V62.498C83.4531 60.9342 84.2789 59.4555 85.279 58.0965C86.0458 57.1146 86.8792 56.1864 87.7733 55.3184L88.8939 54.4886C88.932 53.912 88.932 53.3335 88.8939 52.7569C88.8939 52.3239 88.8939 51.891 88.8939 51.4941L88.677 50.3757C88.6293 49.7989 88.4433 49.2421 88.1348 48.7522C87.6751 47.951 87.0307 47.2708 86.255 46.7678C85.3068 46.37 84.2825 46.1853 83.2548 46.2267C83.2573 45.8903 83.3312 45.5583 83.4716 45.2526C83.8331 44.531 85.6405 42.0777 93.7739 40.8149C96.738 40.3459 95.0752 29.6667 92.111 29.9914L89.3999 30.4965C88.8461 30.9327 88.2387 31.2964 87.5925 31.5789C79.893 34.8259 75.1576 38.7945 74.2177 42.691C73.8299 44.7201 74.1487 46.8206 75.1214 48.6439L73.4948 49.582C72.1612 47.5486 71.6569 45.0834 72.085 42.691C73.0248 38.7945 77.7602 34.8259 85.4598 31.5789C89.3638 29.9192 85.7128 17.1475 82.8571 16.8589C82.1619 14.2828 82.0385 11.5863 82.4956 8.95772C82.7848 7.26203 76.6035 6.17968 76.3143 7.87537C75.6682 11.4774 75.8536 15.1791 76.8565 18.6989L75.8444 19.204C74.7588 15.5655 74.5238 11.7269 75.1576 7.98361C75.1419 7.82766 75.1419 7.67053 75.1576 7.51458C74.6877 6.1436 68.8317 7.18988 69.0485 8.92164C69.3739 11.4111 70.6029 17.5083 71.4343 21.513C69.5175 17.6003 67.0862 13.9603 64.2047 10.6895C63.0118 9.46282 58.4933 13.8283 59.7223 15.055C62.2439 18.1275 64.3804 21.4956 66.0844 25.0847C61.5499 28.594 58.3084 33.504 56.8666 39.0471C55.622 44.404 56.2734 50.0257 58.7102 54.9576L57.6619 55.2102C55.4888 50.9607 54.6704 46.1493 55.3165 41.422C55.9627 36.6948 58.0425 32.278 61.2767 28.7647C61.9635 26.564 53.3603 21.5491 51.6613 24.0385C49.9623 26.5279 48.0465 31.0016 49.1309 44.7114C49.6732 51.6024 50.7215 57.5914 50.7938 57.8439C50.859 58.2396 50.9681 58.6268 51.1191 58.9984C50.2419 59.9344 49.5653 61.0393 49.1309 62.2455C49.1514 62.4011 49.1514 62.5588 49.1309 62.7145H49.4924C50.3507 62.9313 51.177 63.2587 51.9505 63.6886C51.9505 63.6886 51.9505 63.4361 52.1312 63.3278C52.2251 63.1619 52.3626 63.0246 52.5289 62.931C52.8828 62.7055 53.3066 62.6158 53.7218 62.6784L54.9869 62.8588H55.6015H56.216C56.5879 62.8104 56.9646 62.8104 57.3366 62.8588C57.6057 62.8531 57.8702 62.9285 58.0957 63.0753C58.1786 63.136 58.2517 63.209 58.3126 63.2917C58.2463 63.2097 58.1588 63.1473 58.0595 63.1113C57.843 62.978 57.5904 62.915 57.3366 62.931C56.9662 62.9713 56.6021 63.0561 56.2521 63.1835H55.6376C55.6376 63.1835 55.6376 63.3639 55.6376 63.4361C55.6247 63.5318 55.6247 63.6289 55.6376 63.7247C55.7608 63.9834 55.9326 64.2161 56.1437 64.4102L56.9389 64.9874C57.4668 65.3039 58.0235 65.5697 58.6017 65.7811L59.397 66.1059L58.6017 65.8172C57.9635 65.6955 57.3352 65.5267 56.722 65.3121C56.4367 65.1492 56.17 64.9556 55.9268 64.7349C55.7032 64.5341 55.5085 64.3035 55.3484 64.0494C55.2406 63.8722 55.1671 63.6764 55.1315 63.4721H54.6977H53.4326C53.1103 63.4412 52.7881 63.5312 52.5289 63.7247C52.4369 63.7898 52.3624 63.8765 52.312 63.9772C52.3038 64.0612 52.3038 64.1458 52.312 64.2298C52.3289 64.3009 52.3289 64.3751 52.312 64.4462C52.5161 64.5735 52.699 64.7317 52.8542 64.9153L53.8663 65.9976C54.1718 66.3457 54.5246 66.6494 54.9146 66.8996C55.3174 67.1029 55.7418 67.2602 56.1798 67.3686C57.0474 67.3686 57.9511 67.5851 58.674 67.8015L59.5777 68.2345L60.1923 68.7396L60.5176 69.1364L60.1923 68.7756C60.0064 68.6062 59.8 68.4607 59.5777 68.3427C59.2785 68.1887 58.9634 68.0677 58.6379 67.9819C57.9511 67.9819 57.0835 67.9819 56.1437 67.7294H55.6376C55.6201 67.8369 55.6201 67.9465 55.6376 68.0541C55.6289 68.1983 55.6289 68.3428 55.6376 68.487C55.7261 68.8564 55.8725 69.2095 56.0714 69.5333C56.0714 69.8219 56.4329 70.1105 56.6136 70.3992L57.3727 70.6517L58.3487 71.0125L59.397 71.5176C59.7504 71.6806 60.0891 71.8737 60.4091 72.0949L61.2406 72.7082L60.4091 72.1309L59.3609 71.5898C59.0255 71.4037 58.6748 71.2468 58.3126 71.1207L57.3366 70.7599H56.7582C57.292 71.438 57.7638 72.1625 58.168 72.9247C58.2894 73.1795 58.3863 73.4452 58.4572 73.7184V74.0431V73.7545C58.3618 73.4792 58.2408 73.2134 58.0957 72.9607C57.6392 72.2326 57.106 71.5553 56.5052 70.9404L55.6376 69.8219C55.4205 69.4678 55.2388 69.0932 55.0954 68.7035C55.0954 68.5231 55.0954 68.3427 54.9146 68.1984C54.7339 68.0541 54.9146 67.9098 54.9146 67.8015V67.6211H54.5893C54.1182 67.3963 53.69 67.0911 53.3241 66.7192L52.2035 65.3121C51.8623 65.015 51.486 64.7606 51.0829 64.5545C50.3668 64.2271 49.6146 63.9849 48.8418 63.8329H48.408C48.3266 64.0677 48.2661 64.3091 48.2272 64.5545L50.3238 66.8996H50.613V67.1521C50.909 67.4476 51.1866 67.7609 51.4444 68.0902C51.8421 68.5231 52.2035 68.9921 52.565 69.4611C52.9265 69.9302 53.2518 70.3992 53.541 70.8321C53.8302 71.265 54.0471 71.7341 54.2278 72.167C54.3275 72.3648 54.4121 72.5698 54.4809 72.7803C54.5739 72.961 54.635 73.1562 54.6616 73.3576C54.7916 73.6562 54.8768 73.9723 54.9146 74.2956L54.6255 73.3937L54.4086 72.8164L54.1555 72.5278C53.9267 72.0928 53.6732 71.6713 53.3964 71.2651L52.3843 70.0023C52.0521 69.5798 51.6897 69.1819 51.2998 68.8117C51.4875 69.2985 51.6091 69.8081 51.6613 70.327C51.7324 70.9726 51.6583 71.6258 51.4444 72.2392C51.4444 72.5639 51.1914 72.8525 51.0829 73.1411C50.9745 73.4297 50.8299 73.7184 50.7215 73.9709C50.613 74.2235 50.7215 74.5482 50.4684 74.8007C50.3795 75.0483 50.3071 75.3014 50.2515 75.5584C50.2515 75.9913 50.0346 76.3882 49.9623 76.6768C49.8901 76.9654 49.9623 77.1097 49.9623 77.1097C49.9623 77.1097 49.9623 77.1097 49.9623 76.6768C49.9408 76.2923 49.9408 75.9068 49.9623 75.5223C49.9623 75.3058 49.9623 75.0172 50.1431 74.7646L50.36 73.9709H49.8539C49.408 74.0231 48.9706 74.1322 48.5526 74.2956C48.1502 74.4581 47.7729 74.6768 47.432 74.945C47.3115 75.0439 47.213 75.1668 47.1428 75.3058C47.2107 75.1749 47.2958 75.0535 47.3958 74.945C47.7369 74.6398 48.1282 74.3957 48.5526 74.2235C48.9598 74.0227 49.4013 73.9003 49.8539 73.8627H50.3961C50.3961 73.6101 50.3961 73.3576 50.6492 73.069L50.9745 72.2031C51.1172 71.6102 51.1172 70.992 50.9745 70.3992C50.8889 69.8864 50.7307 69.3883 50.5046 68.92C50.357 68.5614 50.188 68.212 49.9985 67.8737C49.8846 67.7966 49.7865 67.6987 49.7093 67.5851L47.9742 65.3121C39.0095 101.39 84.303 101.787 100.642 100.705C102.259 100.56 103.78 99.8766 104.961 98.764C106.141 97.6514 106.912 96.1747 107.149 94.5717C107.202 94.0197 107.202 93.464 107.149 92.9121V91.2885C107.149 90.2062 107.149 89.1238 106.968 88.0054C106.968 85.9129 106.679 83.7842 106.498 81.6917C106.317 79.5992 106.064 77.7231 105.775 75.7388C105.486 73.7545 105.161 72.1309 104.763 70.3631C104.386 68.7733 103.915 67.2071 103.353 65.6729C102.83 64.2913 102.176 62.9624 101.401 61.7043C100.789 60.5264 100.075 59.4038 99.2684 58.349C98.5155 57.389 97.694 56.4847 96.8103 55.6431C95.9492 54.8249 95.0442 54.0541 94.0992 53.3341L91.2435 51.3137L90.5567 50.8808Z" fill="white"/>
</g>
<g filter="url(#filter1_d_1400_24776)">
<path d="M16.3453 128.724H20.0486C19.9498 130.035 19.5863 131.197 18.9578 132.212C18.3294 133.217 17.4541 134.007 16.3318 134.582C15.2096 135.156 13.8495 135.444 12.2515 135.444C11.0216 135.444 9.91281 135.228 8.92526 134.797C7.9467 134.357 7.10729 133.733 6.40703 132.925C5.71575 132.108 5.18606 131.13 4.81798 129.99C4.44989 128.841 4.26585 127.552 4.26585 126.125V124.63C4.26585 123.203 4.45438 121.914 4.83145 120.765C5.20851 119.616 5.74717 118.637 6.44743 117.829C7.15666 117.012 8.00505 116.384 8.9926 115.944C9.98912 115.504 11.1024 115.284 12.3323 115.284C13.9303 115.284 15.2815 115.581 16.3857 116.173C17.49 116.757 18.3473 117.56 18.9578 118.584C19.5683 119.607 19.9364 120.783 20.0621 122.112H16.3588C16.287 121.286 16.1074 120.586 15.8201 120.011C15.5418 119.436 15.1199 119.001 14.5543 118.705C13.9977 118.4 13.257 118.247 12.3323 118.247C11.6141 118.247 10.9812 118.382 10.4335 118.651C9.89485 118.92 9.44597 119.324 9.08686 119.863C8.72776 120.393 8.45843 121.057 8.27887 121.856C8.09932 122.646 8.00954 123.562 8.00954 124.603V126.125C8.00954 127.121 8.09034 128.015 8.25194 128.805C8.41354 129.595 8.66491 130.264 9.00606 130.811C9.34722 131.359 9.78712 131.776 10.3258 132.064C10.8644 132.351 11.5063 132.494 12.2515 132.494C13.1582 132.494 13.8944 132.351 14.46 132.064C15.0346 131.776 15.47 131.354 15.7663 130.798C16.0715 130.241 16.2645 129.55 16.3453 128.724ZM30.6737 132.077V125.357C30.6737 124.863 30.5884 124.437 30.4178 124.078C30.2472 123.719 29.9869 123.44 29.6368 123.243C29.2866 123.045 28.8422 122.947 28.3036 122.947C27.8278 122.947 27.4103 123.028 27.0512 123.189C26.7011 123.351 26.4317 123.58 26.2432 123.876C26.0547 124.163 25.9604 124.495 25.9604 124.872H22.3918C22.3918 124.271 22.5354 123.701 22.8227 123.162C23.11 122.615 23.5185 122.13 24.0482 121.708C24.5868 121.277 25.2287 120.94 25.9739 120.698C26.728 120.455 27.5719 120.334 28.5056 120.334C29.6098 120.334 30.5929 120.523 31.4547 120.9C32.3256 121.268 33.0079 121.825 33.5016 122.57C34.0044 123.315 34.2558 124.253 34.2558 125.384V131.74C34.2558 132.468 34.3007 133.091 34.3904 133.612C34.4892 134.124 34.6328 134.568 34.8214 134.945V135.174H31.1989C31.0283 134.806 30.8981 134.339 30.8083 133.774C30.7186 133.199 30.6737 132.634 30.6737 132.077ZM31.1719 126.3L31.1989 128.414H28.95C28.3934 128.414 27.9041 128.472 27.4821 128.589C27.0602 128.697 26.7145 128.859 26.4452 129.074C26.1759 129.28 25.9739 129.532 25.8392 129.828C25.7045 130.115 25.6372 130.443 25.6372 130.811C25.6372 131.17 25.718 131.493 25.8796 131.781C26.0502 132.068 26.2926 132.297 26.6068 132.468C26.93 132.629 27.3071 132.71 27.738 132.71C28.3664 132.71 28.9141 132.584 29.3809 132.333C29.8477 132.073 30.2113 131.758 30.4717 131.39C30.732 131.022 30.8712 130.672 30.8891 130.34L31.9126 131.875C31.7869 132.243 31.5984 132.634 31.347 133.047C31.0956 133.46 30.7724 133.846 30.3774 134.205C29.9824 134.564 29.5066 134.86 28.95 135.094C28.3934 135.327 27.747 135.444 27.0108 135.444C26.0681 135.444 25.2242 135.255 24.4791 134.878C23.7339 134.501 23.1459 133.985 22.715 133.329C22.284 132.674 22.0686 131.929 22.0686 131.094C22.0686 130.322 22.2122 129.64 22.4995 129.047C22.7868 128.455 23.2132 127.956 23.7788 127.552C24.3444 127.139 25.0447 126.83 25.8796 126.623C26.7235 126.408 27.6886 126.3 28.7749 126.3H31.1719ZM41.016 123.58V135.174H37.4608V120.604H40.8274L41.016 123.58ZM45.4464 120.509L45.3926 123.822C45.1951 123.786 44.9706 123.759 44.7192 123.741C44.4769 123.723 44.2479 123.714 44.0325 123.714C43.4848 123.714 43.0045 123.791 42.5915 123.943C42.1786 124.087 41.8329 124.298 41.5546 124.576C41.2853 124.854 41.0788 125.196 40.9352 125.6C40.7915 125.995 40.7107 126.444 40.6928 126.946L39.9252 126.852C39.9252 125.927 40.0194 125.07 40.208 124.28C40.3965 123.49 40.6703 122.799 41.0294 122.206C41.3885 121.614 41.8374 121.156 42.3761 120.832C42.9237 120.5 43.5522 120.334 44.2614 120.334C44.4589 120.334 44.6699 120.352 44.8943 120.388C45.1277 120.415 45.3118 120.455 45.4464 120.509ZM55.8695 132.077V114.49H59.4516V135.174H56.2197L55.8695 132.077ZM46.5103 128.064V127.781C46.5103 126.668 46.636 125.658 46.8874 124.751C47.1477 123.836 47.5248 123.05 48.0185 122.395C48.5123 121.739 49.1093 121.232 49.8096 120.873C50.5188 120.514 51.3223 120.334 52.2201 120.334C53.0909 120.334 53.8495 120.509 54.4959 120.859C55.1513 121.21 55.7079 121.708 56.1658 122.354C56.6326 123.001 57.0052 123.768 57.2835 124.657C57.5618 125.537 57.7638 126.506 57.8895 127.566V128.333C57.7638 129.366 57.5618 130.313 57.2835 131.175C57.0052 132.037 56.6326 132.791 56.1658 133.437C55.7079 134.075 55.1513 134.568 54.4959 134.918C53.8406 135.269 53.073 135.444 52.1932 135.444C51.3044 135.444 50.5054 135.26 49.7961 134.892C49.0959 134.523 48.4989 134.007 48.0051 133.343C47.5203 132.679 47.1477 131.897 46.8874 131C46.636 130.102 46.5103 129.123 46.5103 128.064ZM50.0789 127.781V128.064C50.0789 128.692 50.1328 129.28 50.2405 129.828C50.3483 130.376 50.5233 130.861 50.7657 131.282C51.0081 131.695 51.3178 132.019 51.6949 132.252C52.0809 132.486 52.5478 132.602 53.0954 132.602C53.7957 132.602 54.3702 132.45 54.8191 132.144C55.277 131.83 55.6316 131.404 55.883 130.865C56.1344 130.317 56.296 129.702 56.3678 129.02V126.906C56.3319 126.367 56.2376 125.869 56.085 125.411C55.9413 124.953 55.7349 124.558 55.4655 124.226C55.2052 123.894 54.882 123.634 54.4959 123.445C54.1099 123.256 53.652 123.162 53.1224 123.162C52.5747 123.162 52.1079 123.283 51.7218 123.526C51.3358 123.759 51.0216 124.087 50.7792 124.509C50.5368 124.931 50.3572 125.42 50.2405 125.977C50.1328 126.533 50.0789 127.135 50.0789 127.781ZM66.4407 120.604V135.174H62.8721V120.604H66.4407ZM62.6297 116.793C62.6297 116.263 62.8093 115.823 63.1684 115.473C63.5365 115.123 64.0302 114.948 64.6497 114.948C65.2691 114.948 65.7584 115.123 66.1175 115.473C66.4856 115.823 66.6697 116.263 66.6697 116.793C66.6697 117.313 66.4856 117.749 66.1175 118.099C65.7584 118.449 65.2691 118.624 64.6497 118.624C64.0302 118.624 63.5365 118.449 63.1684 118.099C62.8093 117.749 62.6297 117.313 62.6297 116.793ZM69.2014 128.037V127.754C69.2014 126.686 69.354 125.703 69.6592 124.805C69.9645 123.898 70.4089 123.113 70.9924 122.448C71.576 121.784 72.2897 121.268 73.1336 120.9C73.9775 120.523 74.9381 120.334 76.0154 120.334C77.1107 120.334 78.0803 120.523 78.9242 120.9C79.7771 121.268 80.4953 121.784 81.0788 122.448C81.6624 123.113 82.1068 123.898 82.412 124.805C82.7173 125.703 82.8699 126.686 82.8699 127.754V128.037C82.8699 129.096 82.7173 130.079 82.412 130.986C82.1068 131.884 81.6624 132.67 81.0788 133.343C80.4953 134.007 79.7816 134.523 78.9377 134.892C78.0938 135.26 77.1287 135.444 76.0424 135.444C74.965 135.444 73.9999 135.26 73.1471 134.892C72.2942 134.523 71.576 134.007 70.9924 133.343C70.4089 132.67 69.9645 131.884 69.6592 130.986C69.354 130.079 69.2014 129.096 69.2014 128.037ZM72.7565 127.754V128.037C72.7565 128.674 72.8194 129.271 72.9451 129.828C73.0707 130.385 73.2638 130.874 73.5241 131.296C73.7845 131.718 74.1211 132.05 74.5341 132.292C74.9561 132.526 75.4588 132.643 76.0424 132.643C76.6169 132.643 77.1107 132.526 77.5237 132.292C77.9366 132.05 78.2733 131.718 78.5337 131.296C78.803 130.874 79.0005 130.385 79.1262 129.828C79.2519 129.271 79.3147 128.674 79.3147 128.037V127.754C79.3147 127.126 79.2519 126.538 79.1262 125.99C79.0005 125.434 78.803 124.944 78.5337 124.522C78.2733 124.091 77.9322 123.755 77.5102 123.512C77.0972 123.261 76.599 123.135 76.0154 123.135C75.4409 123.135 74.9471 123.261 74.5341 123.512C74.1211 123.755 73.7845 124.091 73.5241 124.522C73.2638 124.944 73.0707 125.434 72.9451 125.99C72.8194 126.538 72.7565 127.126 72.7565 127.754ZM100.336 115.567V135.174H96.6461V115.567H100.336ZM106.423 115.567V118.489H90.6266V115.567H106.423ZM113.897 135.444C112.792 135.444 111.8 135.264 110.921 134.905C110.041 134.546 109.291 134.048 108.672 133.41C108.061 132.764 107.59 132.014 107.258 131.161C106.935 130.299 106.773 129.375 106.773 128.387V127.849C106.773 126.726 106.935 125.707 107.258 124.792C107.581 123.867 108.039 123.072 108.631 122.408C109.224 121.744 109.933 121.232 110.759 120.873C111.585 120.514 112.496 120.334 113.493 120.334C114.525 120.334 115.436 120.509 116.226 120.859C117.016 121.201 117.676 121.685 118.206 122.314C118.736 122.942 119.135 123.696 119.405 124.576C119.674 125.447 119.809 126.412 119.809 127.471V128.966H108.389V126.515H116.307V126.246C116.289 125.68 116.182 125.164 115.984 124.697C115.787 124.222 115.481 123.844 115.068 123.566C114.655 123.279 114.121 123.135 113.466 123.135C112.936 123.135 112.474 123.252 112.079 123.485C111.693 123.71 111.37 124.033 111.109 124.455C110.858 124.868 110.669 125.362 110.544 125.936C110.418 126.511 110.355 127.148 110.355 127.849V128.387C110.355 128.998 110.436 129.563 110.597 130.084C110.768 130.605 111.015 131.058 111.338 131.444C111.67 131.821 112.065 132.117 112.523 132.333C112.99 132.539 113.52 132.643 114.112 132.643C114.857 132.643 115.531 132.499 116.132 132.212C116.743 131.915 117.272 131.48 117.721 130.905L119.512 132.764C119.207 133.213 118.794 133.644 118.273 134.057C117.762 134.47 117.142 134.806 116.415 135.067C115.688 135.318 114.848 135.444 113.897 135.444ZM128.171 132.643C128.674 132.643 129.123 132.544 129.518 132.346C129.913 132.149 130.227 131.871 130.461 131.511C130.703 131.152 130.833 130.735 130.851 130.259H134.204C134.186 131.247 133.908 132.131 133.369 132.912C132.831 133.693 132.112 134.312 131.215 134.77C130.326 135.219 129.329 135.444 128.225 135.444C127.103 135.444 126.124 135.255 125.289 134.878C124.454 134.501 123.759 133.976 123.202 133.302C122.654 132.629 122.241 131.848 121.963 130.959C121.694 130.071 121.559 129.119 121.559 128.104V127.673C121.559 126.659 121.694 125.707 121.963 124.819C122.241 123.93 122.654 123.149 123.202 122.475C123.759 121.802 124.454 121.277 125.289 120.9C126.124 120.523 127.098 120.334 128.212 120.334C129.388 120.334 130.42 120.563 131.309 121.021C132.207 121.479 132.907 122.125 133.41 122.96C133.921 123.795 134.186 124.778 134.204 125.909H130.851C130.833 125.389 130.716 124.922 130.501 124.509C130.285 124.096 129.98 123.764 129.585 123.512C129.19 123.261 128.71 123.135 128.144 123.135C127.543 123.135 127.04 123.261 126.636 123.512C126.241 123.764 125.931 124.109 125.707 124.549C125.491 124.98 125.339 125.465 125.249 126.004C125.168 126.533 125.128 127.09 125.128 127.673V128.104C125.128 128.697 125.168 129.263 125.249 129.801C125.339 130.34 125.491 130.825 125.707 131.256C125.931 131.678 126.241 132.014 126.636 132.266C127.04 132.517 127.552 132.643 128.171 132.643ZM140.062 114.49V135.174H136.494V114.49H140.062ZM139.497 127.364H138.446C138.446 126.349 138.581 125.416 138.85 124.563C139.119 123.71 139.501 122.969 139.995 122.341C140.489 121.703 141.077 121.21 141.759 120.859C142.45 120.509 143.213 120.334 144.048 120.334C144.766 120.334 145.417 120.437 146.001 120.644C146.593 120.841 147.101 121.16 147.523 121.6C147.945 122.04 148.268 122.615 148.492 123.324C148.726 124.024 148.842 124.877 148.842 125.882V135.174H145.26V125.855C145.26 125.182 145.161 124.652 144.964 124.266C144.766 123.871 144.484 123.589 144.116 123.418C143.756 123.247 143.312 123.162 142.782 123.162C142.208 123.162 141.714 123.274 141.301 123.499C140.888 123.714 140.547 124.015 140.278 124.401C140.017 124.787 139.82 125.232 139.685 125.734C139.559 126.237 139.497 126.78 139.497 127.364Z" fill="white"/>
</g>
<g filter="url(#filter2_d_1400_24776)">
<path d="M3.80324 154.058H6.09413C6.61378 154.058 7.05263 154.138 7.41068 154.296C7.7719 154.454 8.04598 154.689 8.23293 154.999C8.42304 155.307 8.5181 155.685 8.5181 156.135C8.5181 156.452 8.45315 156.742 8.32323 157.005C8.19649 157.265 8.01271 157.487 7.7719 157.671C7.53425 157.851 7.24908 157.986 6.91638 158.075L6.65972 158.174H4.50667L4.49716 157.428H6.12265C6.45218 157.428 6.72626 157.371 6.9449 157.257C7.16353 157.14 7.3283 156.983 7.4392 156.786C7.5501 156.59 7.60555 156.373 7.60555 156.135C7.60555 155.869 7.55327 155.636 7.4487 155.437C7.34414 155.237 7.17937 155.083 6.9544 154.976C6.7326 154.865 6.44584 154.809 6.09413 154.809H4.72054V160.979H3.80324V154.058ZM7.84794 160.979L6.16542 157.842L7.12075 157.837L8.82704 160.921V160.979H7.84794ZM11.8023 161.074C11.4443 161.074 11.1195 161.013 10.828 160.893C10.5397 160.769 10.2909 160.597 10.0818 160.375C9.87584 160.153 9.71741 159.89 9.60651 159.586C9.49561 159.282 9.44016 158.949 9.44016 158.588V158.388C9.44016 157.97 9.50195 157.598 9.62552 157.271C9.7491 156.942 9.91703 156.663 10.1293 156.435C10.3416 156.207 10.5824 156.034 10.8518 155.917C11.1211 155.799 11.3999 155.741 11.6883 155.741C12.0558 155.741 12.3727 155.804 12.6389 155.931C12.9082 156.058 13.1284 156.235 13.2995 156.463C13.4706 156.688 13.5974 156.954 13.6797 157.262C13.7621 157.566 13.8033 157.899 13.8033 158.26V158.654H9.96298V157.937H12.924V157.87C12.9114 157.642 12.8638 157.42 12.7814 157.205C12.7022 156.989 12.5755 156.812 12.4012 156.672C12.2269 156.533 11.9893 156.463 11.6883 156.463C11.4887 156.463 11.3049 156.506 11.1369 156.592C10.969 156.674 10.8248 156.798 10.7044 156.962C10.584 157.127 10.4905 157.328 10.424 157.566C10.3575 157.804 10.3242 158.078 10.3242 158.388V158.588C10.3242 158.832 10.3575 159.062 10.424 159.277C10.4937 159.489 10.5935 159.676 10.7234 159.838C10.8565 159.999 11.0165 160.126 11.2035 160.218C11.3936 160.31 11.6091 160.356 11.8499 160.356C12.1604 160.356 12.4234 160.293 12.6389 160.166C12.8543 160.039 13.0428 159.87 13.2044 159.657L13.7368 160.08C13.6259 160.248 13.4849 160.408 13.3138 160.56C13.1427 160.712 12.9319 160.836 12.6816 160.931C12.4345 161.026 12.1414 161.074 11.8023 161.074ZM17.8623 160.099V157.452C17.8623 157.249 17.8211 157.073 17.7387 156.924C17.6595 156.772 17.5391 156.655 17.3775 156.573C17.2159 156.49 17.0163 156.449 16.7786 156.449C16.5568 156.449 16.3619 156.487 16.194 156.563C16.0292 156.639 15.8993 156.739 15.8043 156.863C15.7124 156.986 15.6664 157.119 15.6664 157.262H14.7872C14.7872 157.078 14.8347 156.896 14.9297 156.715C15.0248 156.535 15.1611 156.371 15.3385 156.226C15.5191 156.077 15.7346 155.959 15.9849 155.874C16.2384 155.785 16.5204 155.741 16.8309 155.741C17.2048 155.741 17.5343 155.804 17.8195 155.931C18.1078 156.058 18.3328 156.249 18.4944 156.506C18.6592 156.76 18.7416 157.078 18.7416 157.461V159.857C18.7416 160.028 18.7558 160.21 18.7843 160.403C18.816 160.597 18.862 160.763 18.9222 160.902V160.979H18.0049C17.9605 160.877 17.9256 160.742 17.9003 160.575C17.875 160.403 17.8623 160.245 17.8623 160.099ZM18.0144 157.861L18.0239 158.478H17.1351C16.8848 158.478 16.6614 158.499 16.4649 158.54C16.2685 158.578 16.1037 158.637 15.9706 158.716C15.8375 158.795 15.7362 158.895 15.6664 159.016C15.5967 159.133 15.5619 159.271 15.5619 159.429C15.5619 159.591 15.5983 159.738 15.6712 159.871C15.7441 160.004 15.8534 160.11 15.9991 160.19C16.1481 160.266 16.3303 160.304 16.5457 160.304C16.8151 160.304 17.0527 160.247 17.2587 160.133C17.4646 160.018 17.6278 159.879 17.7482 159.714C17.8718 159.549 17.9383 159.389 17.9478 159.234L18.3233 159.657C18.3011 159.79 18.2409 159.938 18.1427 160.099C18.0445 160.261 17.913 160.416 17.7482 160.565C17.5866 160.711 17.3933 160.833 17.1684 160.931C16.9466 161.026 16.6962 161.074 16.4174 161.074C16.0689 161.074 15.7631 161.005 15.5001 160.869C15.2403 160.733 15.0375 160.551 14.8917 160.323C14.7491 160.091 14.6778 159.833 14.6778 159.548C14.6778 159.272 14.7317 159.03 14.8394 158.821C14.9472 158.608 15.1024 158.433 15.3052 158.293C15.508 158.151 15.752 158.043 16.0372 157.97C16.3223 157.897 16.6408 157.861 16.9925 157.861H18.0144ZM21.08 153.678V160.979H20.1959V153.678H21.08ZM27.4061 154.058V160.979H26.503V154.058H27.4061ZM29.6304 154.058V154.809H24.2834V154.058H29.6304ZM31.4793 155.836V160.979H30.5953V155.836H31.4793ZM30.5287 154.472C30.5287 154.329 30.5715 154.209 30.657 154.111C30.7458 154.012 30.8757 153.963 31.0468 153.963C31.2147 153.963 31.343 154.012 31.4318 154.111C31.5237 154.209 31.5696 154.329 31.5696 154.472C31.5696 154.608 31.5237 154.725 31.4318 154.824C31.343 154.919 31.2147 154.966 31.0468 154.966C30.8757 154.966 30.7458 154.919 30.657 154.824C30.5715 154.725 30.5287 154.608 30.5287 154.472ZM33.7654 156.858V160.979H32.8814V155.836H33.7179L33.7654 156.858ZM33.5848 158.212L33.1761 158.198C33.1792 157.846 33.2252 157.522 33.3139 157.224C33.4026 156.923 33.5341 156.661 33.7084 156.44C33.8827 156.218 34.0997 156.047 34.3595 155.926C34.6194 155.803 34.9204 155.741 35.2626 155.741C35.5034 155.741 35.7252 155.776 35.928 155.845C36.1308 155.912 36.3066 156.018 36.4556 156.164C36.6045 156.31 36.7201 156.497 36.8025 156.725C36.8849 156.953 36.9261 157.228 36.9261 157.552V160.979H36.0468V157.594C36.0468 157.325 36.0009 157.11 35.909 156.948C35.8203 156.786 35.6935 156.669 35.5288 156.596C35.364 156.52 35.1707 156.482 34.9489 156.482C34.6891 156.482 34.472 156.528 34.2978 156.62C34.1235 156.712 33.9841 156.839 33.8795 157C33.7749 157.162 33.6989 157.347 33.6514 157.556C33.607 157.762 33.5848 157.981 33.5848 158.212ZM36.9166 157.728L36.3272 157.908C36.3304 157.626 36.3764 157.355 36.4651 157.095C36.557 156.836 36.6885 156.604 36.8596 156.401C37.0338 156.199 37.2477 156.039 37.5012 155.921C37.7547 155.801 38.0446 155.741 38.371 155.741C38.6466 155.741 38.8906 155.777 39.1029 155.85C39.3184 155.923 39.499 156.036 39.6448 156.188C39.7937 156.337 39.9062 156.528 39.9822 156.763C40.0583 156.997 40.0963 157.276 40.0963 157.599V160.979H39.2122V157.59C39.2122 157.301 39.1663 157.078 39.0744 156.92C38.9857 156.758 38.8589 156.645 38.6942 156.582C38.5326 156.516 38.3393 156.482 38.1143 156.482C37.921 156.482 37.7499 156.516 37.601 156.582C37.4521 156.649 37.3269 156.741 37.2255 156.858C37.1241 156.972 37.0465 157.103 36.9926 157.252C36.9419 157.401 36.9166 157.56 36.9166 157.728ZM43.5611 161.074C43.2031 161.074 42.8783 161.013 42.5868 160.893C42.2985 160.769 42.0497 160.597 41.8406 160.375C41.6346 160.153 41.4762 159.89 41.3653 159.586C41.2544 159.282 41.1989 158.949 41.1989 158.588V158.388C41.1989 157.97 41.2607 157.598 41.3843 157.271C41.5079 156.942 41.6758 156.663 41.8881 156.435C42.1004 156.207 42.3412 156.034 42.6106 155.917C42.8799 155.799 43.1587 155.741 43.4471 155.741C43.8146 155.741 44.1315 155.804 44.3976 155.931C44.667 156.058 44.8872 156.235 45.0583 156.463C45.2294 156.688 45.3561 156.954 45.4385 157.262C45.5209 157.566 45.5621 157.899 45.5621 158.26V158.654H41.7218V157.937H44.6828V157.87C44.6701 157.642 44.6226 157.42 44.5402 157.205C44.461 156.989 44.3343 156.812 44.16 156.672C43.9857 156.533 43.7481 156.463 43.4471 156.463C43.2474 156.463 43.0637 156.506 42.8957 156.592C42.7278 156.674 42.5836 156.798 42.4632 156.962C42.3428 157.127 42.2493 157.328 42.1828 157.566C42.1163 157.804 42.083 158.078 42.083 158.388V158.588C42.083 158.832 42.1163 159.062 42.1828 159.277C42.2525 159.489 42.3523 159.676 42.4822 159.838C42.6153 159.999 42.7753 160.126 42.9623 160.218C43.1524 160.31 43.3679 160.356 43.6087 160.356C43.9192 160.356 44.1822 160.293 44.3976 160.166C44.6131 160.039 44.8016 159.87 44.9632 159.657L45.4956 160.08C45.3847 160.248 45.2437 160.408 45.0726 160.56C44.9014 160.712 44.6907 160.836 44.4404 160.931C44.1933 161.026 43.9002 161.074 43.5611 161.074ZM53.6563 157.034V157.78H49.911V157.034H53.6563ZM50.0536 154.058V160.979H49.1363V154.058H50.0536ZM54.4547 154.058V160.979H53.5422V154.058H54.4547ZM58.086 161.074C57.7279 161.074 57.4031 161.013 57.1116 160.893C56.8233 160.769 56.5745 160.597 56.3654 160.375C56.1595 160.153 56.001 159.89 55.8901 159.586C55.7792 159.282 55.7238 158.949 55.7238 158.588V158.388C55.7238 157.97 55.7856 157.598 55.9091 157.271C56.0327 156.942 56.2006 156.663 56.4129 156.435C56.6252 156.207 56.866 156.034 57.1354 155.917C57.4047 155.799 57.6835 155.741 57.9719 155.741C58.3394 155.741 58.6563 155.804 58.9225 155.931C59.1918 156.058 59.412 156.235 59.5831 156.463C59.7542 156.688 59.881 156.954 59.9633 157.262C60.0457 157.566 60.0869 157.899 60.0869 158.26V158.654H56.2466V157.937H59.2076V157.87C59.195 157.642 59.1474 157.42 59.0651 157.205C58.9858 156.989 58.8591 156.812 58.6848 156.672C58.5105 156.533 58.2729 156.463 57.9719 156.463C57.7723 156.463 57.5885 156.506 57.4206 156.592C57.2526 156.674 57.1084 156.798 56.988 156.962C56.8676 157.127 56.7742 157.328 56.7076 157.566C56.6411 157.804 56.6078 158.078 56.6078 158.388V158.588C56.6078 158.832 56.6411 159.062 56.7076 159.277C56.7773 159.489 56.8771 159.676 57.0071 159.838C57.1401 159.999 57.3001 160.126 57.4871 160.218C57.6772 160.31 57.8927 160.356 58.1335 160.356C58.444 160.356 58.707 160.293 58.9225 160.166C59.1379 160.039 59.3265 159.87 59.4881 159.657L60.0204 160.08C59.9095 160.248 59.7685 160.408 59.5974 160.56C59.4263 160.712 59.2156 160.836 58.9652 160.931C58.7181 161.026 58.425 161.074 58.086 161.074ZM62.0689 153.678V160.979H61.1848V153.678H62.0689ZM64.3598 156.824V162.956H63.4757V155.836H64.2837L64.3598 156.824ZM67.8246 158.364V158.464C67.8246 158.838 67.7803 159.185 67.6915 159.505C67.6028 159.822 67.4729 160.098 67.3018 160.332C67.1339 160.567 66.9263 160.749 66.6792 160.879C66.432 161.009 66.1484 161.074 65.8284 161.074C65.502 161.074 65.2137 161.02 64.9634 160.912C64.7131 160.804 64.5008 160.647 64.3265 160.441C64.1522 160.235 64.0128 159.988 63.9082 159.7C63.8068 159.412 63.7371 159.087 63.6991 158.726V158.193C63.7371 157.813 63.8084 157.472 63.913 157.171C64.0176 156.87 64.1554 156.614 64.3265 156.401C64.5008 156.186 64.7115 156.023 64.9586 155.912C65.2058 155.798 65.491 155.741 65.8141 155.741C66.1373 155.741 66.4241 155.804 66.6744 155.931C66.9247 156.055 67.1355 156.232 67.3066 156.463C67.4777 156.695 67.606 156.972 67.6915 157.295C67.7803 157.615 67.8246 157.972 67.8246 158.364ZM66.9406 158.464V158.364C66.9406 158.108 66.9137 157.867 66.8598 157.642C66.8059 157.414 66.722 157.214 66.6079 157.043C66.497 156.869 66.3544 156.733 66.1801 156.634C66.0058 156.533 65.7983 156.482 65.5575 156.482C65.3357 156.482 65.1424 156.52 64.9776 156.596C64.816 156.672 64.6782 156.775 64.5641 156.905C64.4501 157.032 64.3566 157.178 64.2837 157.343C64.214 157.504 64.1617 157.672 64.1269 157.846V159.077C64.1902 159.299 64.279 159.508 64.393 159.705C64.5071 159.898 64.6592 160.055 64.8493 160.175C65.0394 160.293 65.2787 160.351 65.567 160.351C65.8046 160.351 66.009 160.302 66.1801 160.204C66.3544 160.102 66.497 159.965 66.6079 159.79C66.722 159.616 66.8059 159.416 66.8598 159.191C66.9137 158.963 66.9406 158.721 66.9406 158.464ZM72.4112 154.058V160.979H71.4939V154.058H72.4112ZM75.3104 157.171V157.922H72.2115V157.171H75.3104ZM75.781 154.058V154.809H72.2115V154.058H75.781ZM77.4967 156.644V160.979H76.6175V155.836H77.473L77.4967 156.644ZM79.1032 155.807L79.0985 156.625C79.0256 156.609 78.9559 156.6 78.8893 156.596C78.826 156.59 78.7531 156.587 78.6707 156.587C78.4679 156.587 78.2889 156.619 78.1336 156.682C77.9784 156.745 77.8469 156.834 77.7391 156.948C77.6314 157.062 77.5459 157.198 77.4825 157.357C77.4223 157.512 77.3827 157.683 77.3637 157.87L77.1165 158.013C77.1165 157.702 77.1466 157.411 77.2068 157.138C77.2702 156.866 77.3668 156.625 77.4967 156.416C77.6267 156.203 77.7914 156.039 77.991 155.921C78.1938 155.801 78.4346 155.741 78.7135 155.741C78.7769 155.741 78.8497 155.749 78.9321 155.765C79.0145 155.777 79.0715 155.792 79.1032 155.807ZM79.588 158.464V158.355C79.588 157.984 79.6419 157.64 79.7496 157.324C79.8573 157.004 80.0126 156.726 80.2154 156.492C80.4182 156.254 80.6638 156.07 80.9521 155.94C81.2404 155.807 81.5636 155.741 81.9217 155.741C82.2829 155.741 82.6077 155.807 82.896 155.94C83.1875 156.07 83.4347 156.254 83.6375 156.492C83.8434 156.726 84.0003 157.004 84.108 157.324C84.2157 157.64 84.2696 157.984 84.2696 158.355V158.464C84.2696 158.835 84.2157 159.179 84.108 159.496C84.0003 159.812 83.8434 160.09 83.6375 160.327C83.4347 160.562 83.1891 160.746 82.9008 160.879C82.6156 161.009 82.2924 161.074 81.9312 161.074C81.57 161.074 81.2452 161.009 80.9568 160.879C80.6685 160.746 80.4214 160.562 80.2154 160.327C80.0126 160.09 79.8573 159.812 79.7496 159.496C79.6419 159.179 79.588 158.835 79.588 158.464ZM80.4673 158.355V158.464C80.4673 158.721 80.4974 158.963 80.5576 159.191C80.6178 159.416 80.7081 159.616 80.8285 159.79C80.9521 159.965 81.1058 160.102 81.2895 160.204C81.4733 160.302 81.6872 160.351 81.9312 160.351C82.172 160.351 82.3827 160.302 82.5633 160.204C82.7471 160.102 82.8992 159.965 83.0196 159.79C83.14 159.616 83.2303 159.416 83.2905 159.191C83.3539 158.963 83.3856 158.721 83.3856 158.464V158.355C83.3856 158.101 83.3539 157.862 83.2905 157.637C83.2303 157.409 83.1384 157.208 83.0148 157.034C82.8944 156.856 82.7423 156.717 82.5586 156.615C82.378 156.514 82.1657 156.463 81.9217 156.463C81.6809 156.463 81.4686 156.514 81.2848 156.615C81.1042 156.717 80.9521 156.856 80.8285 157.034C80.7081 157.208 80.6178 157.409 80.5576 157.637C80.4974 157.862 80.4673 158.101 80.4673 158.355ZM86.2468 156.858V160.979H85.3628V155.836H86.1993L86.2468 156.858ZM86.0662 158.212L85.6574 158.198C85.6606 157.846 85.7066 157.522 85.7953 157.224C85.884 156.923 86.0155 156.661 86.1898 156.44C86.364 156.218 86.5811 156.047 86.8409 155.926C87.1007 155.803 87.4018 155.741 87.744 155.741C87.9848 155.741 88.2066 155.776 88.4094 155.845C88.6122 155.912 88.788 156.018 88.9369 156.164C89.0859 156.31 89.2015 156.497 89.2839 156.725C89.3663 156.953 89.4075 157.228 89.4075 157.552V160.979H88.5282V157.594C88.5282 157.325 88.4822 157.11 88.3904 156.948C88.3016 156.786 88.1749 156.669 88.0101 156.596C87.8454 156.52 87.6521 156.482 87.4303 156.482C87.1705 156.482 86.9534 156.528 86.7791 156.62C86.6049 156.712 86.4654 156.839 86.3609 157C86.2563 157.162 86.1803 157.347 86.1327 157.556C86.0884 157.762 86.0662 157.981 86.0662 158.212ZM89.398 157.728L88.8086 157.908C88.8118 157.626 88.8577 157.355 88.9464 157.095C89.0383 156.836 89.1698 156.604 89.3409 156.401C89.5152 156.199 89.7291 156.039 89.9826 155.921C90.2361 155.801 90.526 155.741 90.8524 155.741C91.128 155.741 91.372 155.777 91.5843 155.85C91.7998 155.923 91.9804 156.036 92.1261 156.188C92.2751 156.337 92.3875 156.528 92.4636 156.763C92.5396 156.997 92.5777 157.276 92.5777 157.599V160.979H91.6936V157.59C91.6936 157.301 91.6477 157.078 91.5558 156.92C91.4671 156.758 91.3403 156.645 91.1755 156.582C91.014 156.516 90.8207 156.482 90.5957 156.482C90.4024 156.482 90.2313 156.516 90.0824 156.582C89.9335 156.649 89.8083 156.741 89.7069 156.858C89.6055 156.972 89.5279 157.103 89.474 157.252C89.4233 157.401 89.398 157.56 89.398 157.728ZM96.456 154.058H98.7469C99.2665 154.058 99.7054 154.138 100.063 154.296C100.425 154.454 100.699 154.689 100.886 154.999C101.076 155.307 101.171 155.685 101.171 156.135C101.171 156.452 101.106 156.742 100.976 157.005C100.849 157.265 100.665 157.487 100.425 157.671C100.187 157.851 99.9019 157.986 99.5691 158.075L99.3125 158.174H97.1594L97.1499 157.428H98.7754C99.105 157.428 99.379 157.371 99.5977 157.257C99.8163 157.14 99.9811 156.983 100.092 156.786C100.203 156.59 100.258 156.373 100.258 156.135C100.258 155.869 100.206 155.636 100.101 155.437C99.9969 155.237 99.8321 155.083 99.6072 154.976C99.3854 154.865 99.0986 154.809 98.7469 154.809H97.3733V160.979H96.456V154.058ZM100.501 160.979L98.8182 157.842L99.7735 157.837L101.48 160.921V160.979H100.501ZM104.455 161.074C104.097 161.074 103.772 161.013 103.481 160.893C103.192 160.769 102.944 160.597 102.735 160.375C102.529 160.153 102.37 159.89 102.259 159.586C102.148 159.282 102.093 158.949 102.093 158.588V158.388C102.093 157.97 102.155 157.598 102.278 157.271C102.402 156.942 102.57 156.663 102.782 156.435C102.994 156.207 103.235 156.034 103.505 155.917C103.774 155.799 104.053 155.741 104.341 155.741C104.709 155.741 105.025 155.804 105.292 155.931C105.561 156.058 105.781 156.235 105.952 156.463C106.123 156.688 106.25 156.954 106.333 157.262C106.415 157.566 106.456 157.899 106.456 158.26V158.654H102.616V157.937H105.577V157.87C105.564 157.642 105.517 157.42 105.434 157.205C105.355 156.989 105.228 156.812 105.054 156.672C104.88 156.533 104.642 156.463 104.341 156.463C104.141 156.463 103.958 156.506 103.79 156.592C103.622 156.674 103.478 156.798 103.357 156.962C103.237 157.127 103.143 157.328 103.077 157.566C103.01 157.804 102.977 158.078 102.977 158.388V158.588C102.977 158.832 103.01 159.062 103.077 159.277C103.146 159.489 103.246 159.676 103.376 159.838C103.509 159.999 103.669 160.126 103.856 160.218C104.046 160.31 104.262 160.356 104.503 160.356C104.813 160.356 105.076 160.293 105.292 160.166C105.507 160.039 105.696 159.87 105.857 159.657L106.39 160.08C106.279 160.248 106.138 160.408 105.967 160.56C105.795 160.712 105.585 160.836 105.334 160.931C105.087 161.026 104.794 161.074 104.455 161.074ZM110.515 160.099V157.452C110.515 157.249 110.474 157.073 110.391 156.924C110.312 156.772 110.192 156.655 110.03 156.573C109.869 156.49 109.669 156.449 109.431 156.449C109.21 156.449 109.015 156.487 108.847 156.563C108.682 156.639 108.552 156.739 108.457 156.863C108.365 156.986 108.319 157.119 108.319 157.262H107.44C107.44 157.078 107.487 156.896 107.583 156.715C107.678 156.535 107.814 156.371 107.991 156.226C108.172 156.077 108.387 155.959 108.638 155.874C108.891 155.785 109.173 155.741 109.484 155.741C109.858 155.741 110.187 155.804 110.472 155.931C110.761 156.058 110.986 156.249 111.147 156.506C111.312 156.76 111.394 157.078 111.394 157.461V159.857C111.394 160.028 111.409 160.21 111.437 160.403C111.469 160.597 111.515 160.763 111.575 160.902V160.979H110.658C110.613 160.877 110.578 160.742 110.553 160.575C110.528 160.403 110.515 160.245 110.515 160.099ZM110.667 157.861L110.677 158.478H109.788C109.538 158.478 109.314 158.499 109.118 158.54C108.921 158.578 108.756 158.637 108.623 158.716C108.49 158.795 108.389 158.895 108.319 159.016C108.25 159.133 108.215 159.271 108.215 159.429C108.215 159.591 108.251 159.738 108.324 159.871C108.397 160.004 108.506 160.11 108.652 160.19C108.801 160.266 108.983 160.304 109.198 160.304C109.468 160.304 109.705 160.247 109.911 160.133C110.117 160.018 110.281 159.879 110.401 159.714C110.525 159.549 110.591 159.389 110.601 159.234L110.976 159.657C110.954 159.79 110.894 159.938 110.795 160.099C110.697 160.261 110.566 160.416 110.401 160.565C110.239 160.711 110.046 160.833 109.821 160.931C109.599 161.026 109.349 161.074 109.07 161.074C108.722 161.074 108.416 161.005 108.153 160.869C107.893 160.733 107.69 160.551 107.544 160.323C107.402 160.091 107.331 159.833 107.331 159.548C107.331 159.272 107.384 159.03 107.492 158.821C107.6 158.608 107.755 158.433 107.958 158.293C108.161 158.151 108.405 158.043 108.69 157.97C108.975 157.897 109.294 157.861 109.645 157.861H110.667ZM113.733 153.678V160.979H112.849V153.678H113.733ZM122.088 160.232V160.979H118.424V160.232H122.088ZM118.609 154.058V160.979H117.692V154.058H118.609ZM121.604 157.034V157.78H118.424V157.034H121.604ZM122.041 154.058V154.809H118.424V154.058H122.041ZM123.685 155.836L124.812 157.709L125.952 155.836H126.984L125.301 158.374L127.036 160.979H126.019L124.831 159.049L123.643 160.979H122.621L124.351 158.374L122.673 155.836H123.685ZM128.799 156.824V162.956H127.915V155.836H128.723L128.799 156.824ZM132.264 158.364V158.464C132.264 158.838 132.22 159.185 132.131 159.505C132.042 159.822 131.913 160.098 131.741 160.332C131.574 160.567 131.366 160.749 131.119 160.879C130.872 161.009 130.588 161.074 130.268 161.074C129.942 161.074 129.653 161.02 129.403 160.912C129.153 160.804 128.94 160.647 128.766 160.441C128.592 160.235 128.452 159.988 128.348 159.7C128.246 159.412 128.177 159.087 128.139 158.726V158.193C128.177 157.813 128.248 157.472 128.353 157.171C128.457 156.87 128.595 156.614 128.766 156.401C128.94 156.186 129.151 156.023 129.398 155.912C129.645 155.798 129.931 155.741 130.254 155.741C130.577 155.741 130.864 155.804 131.114 155.931C131.364 156.055 131.575 156.232 131.746 156.463C131.917 156.695 132.046 156.972 132.131 157.295C132.22 157.615 132.264 157.972 132.264 158.364ZM131.38 158.464V158.364C131.38 158.108 131.353 157.867 131.299 157.642C131.246 157.414 131.162 157.214 131.048 157.043C130.937 156.869 130.794 156.733 130.62 156.634C130.445 156.533 130.238 156.482 129.997 156.482C129.775 156.482 129.582 156.52 129.417 156.596C129.256 156.672 129.118 156.775 129.004 156.905C128.89 157.032 128.796 157.178 128.723 157.343C128.654 157.504 128.601 157.672 128.567 157.846V159.077C128.63 159.299 128.719 159.508 128.833 159.705C128.947 159.898 129.099 160.055 129.289 160.175C129.479 160.293 129.718 160.351 130.007 160.351C130.244 160.351 130.449 160.302 130.62 160.204C130.794 160.102 130.937 159.965 131.048 159.79C131.162 159.616 131.246 159.416 131.299 159.191C131.353 158.963 131.38 158.721 131.38 158.464ZM135.52 161.074C135.162 161.074 134.837 161.013 134.546 160.893C134.257 160.769 134.009 160.597 133.799 160.375C133.593 160.153 133.435 159.89 133.324 159.586C133.213 159.282 133.158 158.949 133.158 158.588V158.388C133.158 157.97 133.22 157.598 133.343 157.271C133.467 156.942 133.635 156.663 133.847 156.435C134.059 156.207 134.3 156.034 134.569 155.917C134.839 155.799 135.118 155.741 135.406 155.741C135.773 155.741 136.09 155.804 136.356 155.931C136.626 156.058 136.846 156.235 137.017 156.463C137.188 156.688 137.315 156.954 137.397 157.262C137.48 157.566 137.521 157.899 137.521 158.26V158.654H133.681V157.937H136.642V157.87C136.629 157.642 136.581 157.42 136.499 157.205C136.42 156.989 136.293 156.812 136.119 156.672C135.945 156.533 135.707 156.463 135.406 156.463C135.206 156.463 135.023 156.506 134.855 156.592C134.687 156.674 134.542 156.798 134.422 156.962C134.302 157.127 134.208 157.328 134.142 157.566C134.075 157.804 134.042 158.078 134.042 158.388V158.588C134.042 158.832 134.075 159.062 134.142 159.277C134.211 159.489 134.311 159.676 134.441 159.838C134.574 159.999 134.734 160.126 134.921 160.218C135.111 160.31 135.327 160.356 135.568 160.356C135.878 160.356 136.141 160.293 136.356 160.166C136.572 160.039 136.76 159.87 136.922 159.657L137.454 160.08C137.344 160.248 137.202 160.408 137.031 160.56C136.86 160.712 136.65 160.836 136.399 160.931C136.152 161.026 135.859 161.074 135.52 161.074ZM139.427 156.644V160.979H138.548V155.836H139.403L139.427 156.644ZM141.033 155.807L141.029 156.625C140.956 156.609 140.886 156.6 140.819 156.596C140.756 156.59 140.683 156.587 140.601 156.587C140.398 156.587 140.219 156.619 140.064 156.682C139.908 156.745 139.777 156.834 139.669 156.948C139.562 157.062 139.476 157.198 139.413 157.357C139.352 157.512 139.313 157.683 139.294 157.87L139.047 158.013C139.047 157.702 139.077 157.411 139.137 157.138C139.2 156.866 139.297 156.625 139.427 156.416C139.557 156.203 139.722 156.039 139.921 155.921C140.124 155.801 140.365 155.741 140.644 155.741C140.707 155.741 140.78 155.749 140.862 155.765C140.945 155.777 141.002 155.792 141.033 155.807ZM144.237 155.836V156.511H141.456V155.836H144.237ZM142.397 154.586H143.277V159.705C143.277 159.879 143.304 160.011 143.357 160.099C143.411 160.188 143.481 160.247 143.567 160.275C143.652 160.304 143.744 160.318 143.842 160.318C143.915 160.318 143.991 160.312 144.07 160.299C144.153 160.283 144.215 160.27 144.256 160.261L144.261 160.979C144.191 161.001 144.099 161.021 143.985 161.04C143.874 161.062 143.739 161.074 143.581 161.074C143.365 161.074 143.167 161.031 142.987 160.945C142.806 160.86 142.662 160.717 142.554 160.517C142.45 160.315 142.397 160.042 142.397 159.7V154.586ZM148.262 159.614C148.262 159.488 148.234 159.37 148.177 159.263C148.123 159.152 148.011 159.052 147.839 158.963C147.672 158.871 147.418 158.792 147.079 158.726C146.794 158.665 146.536 158.594 146.304 158.512C146.076 158.429 145.881 158.33 145.72 158.212C145.561 158.095 145.439 157.957 145.354 157.799C145.268 157.64 145.225 157.455 145.225 157.243C145.225 157.04 145.27 156.848 145.358 156.668C145.45 156.487 145.579 156.327 145.743 156.188C145.911 156.048 146.113 155.939 146.347 155.86C146.582 155.78 146.843 155.741 147.131 155.741C147.543 155.741 147.895 155.814 148.186 155.959C148.478 156.105 148.701 156.3 148.857 156.544C149.012 156.785 149.089 157.053 149.089 157.347H148.21C148.21 157.205 148.167 157.067 148.082 156.934C147.999 156.798 147.877 156.685 147.716 156.596C147.557 156.508 147.363 156.463 147.131 156.463C146.887 156.463 146.689 156.501 146.537 156.577C146.388 156.65 146.279 156.744 146.209 156.858C146.143 156.972 146.109 157.092 146.109 157.219C146.109 157.314 146.125 157.4 146.157 157.476C146.192 157.549 146.252 157.617 146.338 157.68C146.423 157.74 146.544 157.797 146.699 157.851C146.854 157.905 147.052 157.959 147.293 158.013C147.714 158.108 148.061 158.222 148.334 158.355C148.606 158.488 148.809 158.651 148.942 158.844C149.075 159.038 149.142 159.272 149.142 159.548C149.142 159.773 149.094 159.979 148.999 160.166C148.907 160.353 148.773 160.514 148.595 160.651C148.421 160.784 148.212 160.888 147.968 160.964C147.727 161.037 147.456 161.074 147.155 161.074C146.702 161.074 146.319 160.993 146.005 160.831C145.691 160.67 145.454 160.46 145.292 160.204C145.13 159.947 145.05 159.676 145.05 159.391H145.934C145.946 159.632 146.016 159.824 146.143 159.966C146.269 160.106 146.425 160.205 146.608 160.266C146.792 160.323 146.974 160.351 147.155 160.351C147.396 160.351 147.597 160.319 147.759 160.256C147.923 160.193 148.049 160.106 148.134 159.995C148.22 159.884 148.262 159.757 148.262 159.614Z" fill="white"/>
</g>
<defs>
<filter id="filter0_d_1400_24776" x="43.5666" y="6.88428" width="66.8666" height="100.584" filterUnits="userSpaceOnUse" color-interpolation-filters="sRGB">
<feFlood flood-opacity="0" result="BackgroundImageFix"/>
<feColorMatrix in="SourceAlpha" type="matrix" values="0 0 0 0 0 0 0 0 0 0 0 0 0 0 0 0 0 0 127 0" result="hardAlpha"/>
<feOffset dy="3.24464"/>
<feGaussianBlur stdDeviation="1.62232"/>
<feComposite in2="hardAlpha" operator="out"/>
<feColorMatrix type="matrix" values="0 0 0 0 0 0 0 0 0 0 0 0 0 0 0 0 0 0 0.25 0"/>
<feBlend mode="normal" in2="BackgroundImageFix" result="effect1_dropShadow_1400_24776"/>
<feBlend mode="normal" in="SourceGraphic" in2="effect1_dropShadow_1400_24776" result="shape"/>
</filter>
<filter id="filter1_d_1400_24776" x="1.02122" y="114.49" width="151.066" height="27.4431" filterUnits="userSpaceOnUse" color-interpolation-filters="sRGB">
<feFlood flood-opacity="0" result="BackgroundImageFix"/>
<feColorMatrix in="SourceAlpha" type="matrix" values="0 0 0 0 0 0 0 0 0 0 0 0 0 0 0 0 0 0 127 0" result="hardAlpha"/>
<feOffset dy="3.24464"/>
<feGaussianBlur stdDeviation="1.62232"/>
<feComposite in2="hardAlpha" operator="out"/>
<feColorMatrix type="matrix" values="0 0 0 0 0 0 0 0 0 0 0 0 0 0 0 0 0 0 0.25 0"/>
<feBlend mode="normal" in2="BackgroundImageFix" result="effect1_dropShadow_1400_24776"/>
<feBlend mode="normal" in="SourceGraphic" in2="effect1_dropShadow_1400_24776" result="shape"/>
</filter>
<filter id="filter2_d_1400_24776" x="0.558601" y="153.678" width="151.828" height="15.7671" filterUnits="userSpaceOnUse" color-interpolation-filters="sRGB">
<feFlood flood-opacity="0" result="BackgroundImageFix"/>
<feColorMatrix in="SourceAlpha" type="matrix" values="0 0 0 0 0 0 0 0 0 0 0 0 0 0 0 0 0 0 127 0" result="hardAlpha"/>
<feOffset dy="3.24464"/>
<feGaussianBlur stdDeviation="1.62232"/>
<feComposite in2="hardAlpha" operator="out"/>
<feColorMatrix type="matrix" values="0 0 0 0 0 0 0 0 0 0 0 0 0 0 0 0 0 0 0.25 0"/>
<feBlend mode="normal" in2="BackgroundImageFix" result="effect1_dropShadow_1400_24776"/>
<feBlend mode="normal" in="SourceGraphic" in2="effect1_dropShadow_1400_24776" result="shape"/>
</filter>
</defs>
</svg>
