<svg width="71" height="70" viewBox="0 0 71 70" fill="none" xmlns="http://www.w3.org/2000/svg">
<path d="M35.5 6.5625C19.75 6.5625 7.0625 19.25 7.0625 35C7.0625 50.75 19.75 63.4375 35.5 63.4375C51.25 63.4375 63.9375 50.75 63.9375 35C63.9375 31.9375 63.5262 28.8881 62.4325 26.0444L58.88 29.5312C59.3175 31.2812 59.5647 33.0312 59.5647 35C59.5647 48.3438 48.8459 59.0625 35.5022 59.0625C22.1584 59.0625 11.4375 48.3438 11.4375 35C11.4375 21.6562 22.1562 10.9375 35.5 10.9375C42.0625 10.9375 47.9556 13.5494 52.1119 17.7056L55.1875 14.63C50.1562 9.59875 43.1562 6.5625 35.5 6.5625ZM60.175 15.925L35.5 40.6066L26.1375 31.2441L22.9875 34.3875L33.925 45.325L35.5 46.8256L37.075 45.3228L63.325 19.0728L60.175 15.9228V15.925Z" fill="#4CAF50"/>
</svg>
