<svg width="24" height="24" viewBox="0 0 24 24" fill="none" xmlns="http://www.w3.org/2000/svg">
<path d="M19.9028 12.6614C19.7425 12.4789 19.6541 12.2443 19.6541 12.0014C19.6541 11.7585 19.7425 11.5238 19.9028 11.3414L21.1828 9.90136C21.3239 9.74403 21.4115 9.54606 21.433 9.33587C21.4546 9.12567 21.409 8.91405 21.3028 8.73136L19.3028 5.27136C19.1977 5.08888 19.0377 4.94424 18.8456 4.85805C18.6534 4.77186 18.439 4.74852 18.2328 4.79136L16.3528 5.17136C16.1136 5.22079 15.8646 5.18095 15.6527 5.05936C15.4409 4.93777 15.2808 4.74284 15.2028 4.51136L14.5928 2.68136C14.5257 2.48274 14.3979 2.31022 14.2275 2.1882C14.057 2.06618 13.8525 2.00082 13.6428 2.00136H9.64283C9.42476 1.98998 9.20896 2.05029 9.02839 2.17307C8.84782 2.29586 8.71241 2.47438 8.64283 2.68136L8.08283 4.51136C8.00483 4.74284 7.8448 4.93777 7.63294 5.05936C7.42108 5.18095 7.17204 5.22079 6.93283 5.17136L5.00283 4.79136C4.80738 4.76374 4.60813 4.79458 4.43017 4.88C4.25222 4.96542 4.10353 5.10159 4.00283 5.27136L2.00283 8.73136C1.89399 8.91201 1.84505 9.12245 1.86301 9.33258C1.88097 9.54272 1.96491 9.7418 2.10283 9.90136L3.37283 11.3414C3.53315 11.5238 3.62156 11.7585 3.62156 12.0014C3.62156 12.2443 3.53315 12.4789 3.37283 12.6614L2.10283 14.1014C1.96491 14.2609 1.88097 14.46 1.86301 14.6701C1.84505 14.8803 1.89399 15.0907 2.00283 15.2714L4.00283 18.7314C4.10792 18.9138 4.26794 19.0585 4.46008 19.1447C4.65221 19.2309 4.86665 19.2542 5.07283 19.2114L6.95283 18.8314C7.19204 18.7819 7.44108 18.8218 7.65294 18.9434C7.8648 19.0649 8.02483 19.2599 8.10283 19.4914L8.71283 21.3214C8.7824 21.5283 8.91782 21.7069 9.09839 21.8296C9.27896 21.9524 9.49476 22.0127 9.71283 22.0014H13.7128C13.9225 22.0019 14.127 21.9365 14.2975 21.8145C14.4679 21.6925 14.5957 21.52 14.6628 21.3214L15.2728 19.4914C15.3508 19.2599 15.5109 19.0649 15.7227 18.9434C15.9346 18.8218 16.1836 18.7819 16.4228 18.8314L18.3028 19.2114C18.509 19.2542 18.7234 19.2309 18.9156 19.1447C19.1077 19.0585 19.2677 18.9138 19.3728 18.7314L21.3728 15.2714C21.479 15.0887 21.5246 14.877 21.503 14.6669C21.4815 14.4567 21.3939 14.2587 21.2528 14.1014L19.9028 12.6614ZM18.4128 14.0014L19.2128 14.9014L17.9328 17.1214L16.7528 16.8814C16.0326 16.7341 15.2834 16.8565 14.6474 17.2252C14.0114 17.5938 13.533 18.1832 13.3028 18.8814L12.9228 20.0014H10.3628L10.0028 18.8614C9.77268 18.1632 9.29421 17.5738 8.65823 17.2052C8.02225 16.8365 7.27305 16.7141 6.55283 16.8614L5.37283 17.1014L4.07283 14.8914L4.87283 13.9914C5.36478 13.4413 5.63676 12.7293 5.63676 11.9914C5.63676 11.2534 5.36478 10.5414 4.87283 9.99136L4.07283 9.09136L5.35283 6.89136L6.53283 7.13136C7.25305 7.27858 8.00225 7.15624 8.63823 6.78756C9.27421 6.41888 9.75268 5.82952 9.98283 5.13136L10.3628 4.00136H12.9228L13.3028 5.14136C13.533 5.83952 14.0114 6.42888 14.6474 6.79756C15.2834 7.16624 16.0326 7.28858 16.7528 7.14136L17.9328 6.90136L19.2128 9.12136L18.4128 10.0214C17.9264 10.5701 17.6578 11.278 17.6578 12.0114C17.6578 12.7447 17.9264 13.4526 18.4128 14.0014ZM11.6428 8.00136C10.8517 8.00136 10.0783 8.23596 9.42054 8.67548C8.76275 9.11501 8.25006 9.73972 7.94731 10.4706C7.64456 11.2015 7.56534 12.0058 7.71968 12.7817C7.87403 13.5576 8.25499 14.2704 8.8144 14.8298C9.37381 15.3892 10.0865 15.7702 10.8625 15.9245C11.6384 16.0788 12.4427 15.9996 13.1736 15.6969C13.9045 15.3941 14.5292 14.8814 14.9687 14.2236C15.4082 13.5658 15.6428 12.7925 15.6428 12.0014C15.6428 10.9405 15.2214 9.92308 14.4713 9.17293C13.7211 8.42279 12.7037 8.00136 11.6428 8.00136ZM11.6428 14.0014C11.2473 14.0014 10.8606 13.8841 10.5317 13.6643C10.2028 13.4445 9.94644 13.1322 9.79507 12.7667C9.64369 12.4013 9.60408 11.9991 9.68126 11.6112C9.75843 11.2232 9.94891 10.8669 10.2286 10.5871C10.5083 10.3074 10.8647 10.117 11.2526 10.0398C11.6406 9.96262 12.0427 10.0022 12.4082 10.1536C12.7736 10.305 13.086 10.5613 13.3058 10.8902C13.5255 11.2191 13.6428 11.6058 13.6428 12.0014C13.6428 12.5318 13.4321 13.0405 13.057 13.4156C12.682 13.7906 12.1733 14.0014 11.6428 14.0014Z" fill="#858585"/>
</svg>
