<svg width="24" height="25" viewBox="0 0 24 25" fill="none" xmlns="http://www.w3.org/2000/svg">
<path d="M10.4901 2.7325L5.50015 4.6025C4.35015 5.0325 3.41016 6.3925 3.41016 7.6225V15.0525C3.41016 16.2325 4.19017 17.7825 5.14017 18.4925L9.44016 21.7025C10.8502 22.7625 13.1701 22.7625 14.5801 21.7025L18.8802 18.4925C19.8302 17.7825 20.6101 16.2325 20.6101 15.0525V7.6225C20.6101 6.3925 19.6701 5.0325 18.5201 4.6025L13.5302 2.7325C12.6802 2.4225 11.3201 2.4225 10.4901 2.7325Z" fill="white" stroke="white" stroke-width="1.5" stroke-linecap="round" stroke-linejoin="round"/>
<path d="M12 16C14.2091 16 16 14.2091 16 12C16 9.79086 14.2091 8 12 8C9.79086 8 8 9.79086 8 12C8 14.2091 9.79086 16 12 16Z" stroke="#0B8FAC" stroke-width="1.5" stroke-miterlimit="10" stroke-linecap="round" stroke-linejoin="round"/>
<path d="M12.25 10.75V11.68C12.25 12.03 12.07 12.36 11.76 12.54L11 13" stroke="#0B8FAC" stroke-width="1.5" stroke-miterlimit="10" stroke-linecap="round" stroke-linejoin="round"/>
</svg>
