<svg width="24" height="25" viewBox="0 0 24 25" fill="none" xmlns="http://www.w3.org/2000/svg">
<path d="M15 13.4492H8C7.59 13.4492 7.25 13.1092 7.25 12.6992C7.25 12.2892 7.59 11.9492 8 11.9492H15C15.41 11.9492 15.75 12.2892 15.75 12.6992C15.75 13.1092 15.41 13.4492 15 13.4492Z" fill="white"/>
<path d="M12.38 17.4492H8C7.59 17.4492 7.25 17.1092 7.25 16.6992C7.25 16.2892 7.59 15.9492 8 15.9492H12.38C12.79 15.9492 13.13 16.2892 13.13 16.6992C13.13 17.1092 12.79 17.4492 12.38 17.4492Z" fill="white"/>
<path d="M14 7.25H10C9.04 7.25 7.25 7.25 7.25 4.5C7.25 1.75 9.04 1.75 10 1.75H14C14.96 1.75 16.75 1.75 16.75 4.5C16.75 5.46 16.75 7.25 14 7.25ZM10 3.25C9.01 3.25 8.75 3.25 8.75 4.5C8.75 5.75 9.01 5.75 10 5.75H14C15.25 5.75 15.25 5.49 15.25 4.5C15.25 3.25 14.99 3.25 14 3.25H10Z" fill="white"/>
<path d="M15 23.2504H9C3.38 23.2504 2.25 20.6704 2.25 16.5004V10.5004C2.25 5.94042 3.9 3.99042 7.96 3.78042C8.36 3.76042 8.73 4.07042 8.75 4.49042C8.77 4.91042 8.45 5.25042 8.04 5.27042C5.2 5.43042 3.75 6.28042 3.75 10.5004V16.5004C3.75 20.2004 4.48 21.7504 9 21.7504H15C19.52 21.7504 20.25 20.2004 20.25 16.5004V10.5004C20.25 6.28042 18.8 5.43042 15.96 5.27042C15.55 5.25042 15.23 4.89042 15.25 4.48042C15.27 4.07042 15.63 3.75042 16.04 3.77042C20.1 3.99042 21.75 5.94042 21.75 10.4904V16.4904C21.75 20.6704 20.62 23.2504 15 23.2504Z" fill="white"/>
</svg>
