<svg width="24" height="25" viewBox="0 0 24 25" fill="none" xmlns="http://www.w3.org/2000/svg">
<path d="M19.9028 13.1614C19.7425 12.9789 19.6541 12.7443 19.6541 12.5014C19.6541 12.2585 19.7425 12.0238 19.9028 11.8414L21.1828 10.4014C21.3239 10.244 21.4115 10.0461 21.433 9.83587C21.4546 9.62567 21.409 9.41405 21.3028 9.23136L19.3028 5.77136C19.1977 5.58888 19.0377 5.44424 18.8456 5.35805C18.6534 5.27186 18.439 5.24852 18.2328 5.29136L16.3528 5.67136C16.1136 5.72079 15.8646 5.68095 15.6527 5.55936C15.4409 5.43777 15.2808 5.24284 15.2028 5.01136L14.5928 3.18136C14.5257 2.98274 14.3979 2.81022 14.2275 2.6882C14.057 2.56618 13.8525 2.50082 13.6428 2.50136H9.64283C9.42476 2.48998 9.20896 2.55029 9.02839 2.67307C8.84782 2.79586 8.71241 2.97438 8.64283 3.18136L8.08283 5.01136C8.00483 5.24284 7.8448 5.43777 7.63294 5.55936C7.42108 5.68095 7.17204 5.72079 6.93283 5.67136L5.00283 5.29136C4.80738 5.26374 4.60813 5.29458 4.43017 5.38C4.25222 5.46542 4.10353 5.60159 4.00283 5.77136L2.00283 9.23136C1.89399 9.41201 1.84505 9.62245 1.86301 9.83258C1.88097 10.0427 1.96491 10.2418 2.10283 10.4014L3.37283 11.8414C3.53315 12.0238 3.62156 12.2585 3.62156 12.5014C3.62156 12.7443 3.53315 12.9789 3.37283 13.1614L2.10283 14.6014C1.96491 14.7609 1.88097 14.96 1.86301 15.1701C1.84505 15.3803 1.89399 15.5907 2.00283 15.7714L4.00283 19.2314C4.10792 19.4138 4.26794 19.5585 4.46008 19.6447C4.65221 19.7309 4.86665 19.7542 5.07283 19.7114L6.95283 19.3314C7.19204 19.2819 7.44108 19.3218 7.65294 19.4434C7.8648 19.5649 8.02483 19.7599 8.10283 19.9914L8.71283 21.8214C8.7824 22.0283 8.91782 22.2069 9.09839 22.3296C9.27896 22.4524 9.49476 22.5127 9.71283 22.5014H13.7128C13.9225 22.5019 14.127 22.4365 14.2975 22.3145C14.4679 22.1925 14.5957 22.02 14.6628 21.8214L15.2728 19.9914C15.3508 19.7599 15.5109 19.5649 15.7227 19.4434C15.9346 19.3218 16.1836 19.2819 16.4228 19.3314L18.3028 19.7114C18.509 19.7542 18.7234 19.7309 18.9156 19.6447C19.1077 19.5585 19.2677 19.4138 19.3728 19.2314L21.3728 15.7714C21.479 15.5887 21.5246 15.377 21.503 15.1669C21.4815 14.9567 21.3939 14.7587 21.2528 14.6014L19.9028 13.1614ZM18.4128 14.5014L19.2128 15.4014L17.9328 17.6214L16.7528 17.3814C16.0326 17.2341 15.2834 17.3565 14.6474 17.7252C14.0114 18.0938 13.533 18.6832 13.3028 19.3814L12.9228 20.5014H10.3628L10.0028 19.3614C9.77268 18.6632 9.29421 18.0738 8.65823 17.7052C8.02225 17.3365 7.27305 17.2141 6.55283 17.3614L5.37283 17.6014L4.07283 15.3914L4.87283 14.4914C5.36478 13.9413 5.63676 13.2293 5.63676 12.4914C5.63676 11.7534 5.36478 11.0414 4.87283 10.4914L4.07283 9.59136L5.35283 7.39136L6.53283 7.63136C7.25305 7.77858 8.00225 7.65624 8.63823 7.28756C9.27421 6.91888 9.75268 6.32952 9.98283 5.63136L10.3628 4.50136H12.9228L13.3028 5.64136C13.533 6.33952 14.0114 6.92888 14.6474 7.29756C15.2834 7.66624 16.0326 7.78858 16.7528 7.64136L17.9328 7.40136L19.2128 9.62136L18.4128 10.5214C17.9264 11.0701 17.6578 11.778 17.6578 12.5114C17.6578 13.2447 17.9264 13.9526 18.4128 14.5014ZM11.6428 8.50136C10.8517 8.50136 10.0783 8.73596 9.42054 9.17548C8.76275 9.61501 8.25006 10.2397 7.94731 10.9706C7.64456 11.7015 7.56534 12.5058 7.71968 13.2817C7.87403 14.0576 8.25499 14.7704 8.8144 15.3298C9.37381 15.8892 10.0865 16.2702 10.8625 16.4245C11.6384 16.5788 12.4427 16.4996 13.1736 16.1969C13.9045 15.8941 14.5292 15.3814 14.9687 14.7236C15.4082 14.0658 15.6428 13.2925 15.6428 12.5014C15.6428 11.4405 15.2214 10.4231 14.4713 9.67293C13.7211 8.92279 12.7037 8.50136 11.6428 8.50136ZM11.6428 14.5014C11.2473 14.5014 10.8606 14.3841 10.5317 14.1643C10.2028 13.9445 9.94644 13.6322 9.79507 13.2667C9.64369 12.9013 9.60408 12.4991 9.68126 12.1112C9.75843 11.7232 9.94891 11.3669 10.2286 11.0871C10.5083 10.8074 10.8647 10.617 11.2526 10.5398C11.6406 10.4626 12.0427 10.5022 12.4082 10.6536C12.7736 10.805 13.086 11.0613 13.3058 11.3902C13.5255 11.7191 13.6428 12.1058 13.6428 12.5014C13.6428 13.0318 13.4321 13.5405 13.057 13.9156C12.682 14.2906 12.1733 14.5014 11.6428 14.5014Z" fill="white"/>
</svg>
