<svg width="24" height="25" viewBox="0 0 24 25" fill="none" xmlns="http://www.w3.org/2000/svg">
<path d="M5.49697 5.29934L11.6042 1.69983L17.1007 5.29934L21.3758 6.49918L20.765 13.0983L21.3758 18.4975L16.49 19.6974L12.8256 23.2969L6.71842 19.6974L3.05408 18.4975L2.44336 14.898V5.89926L5.49697 5.29934Z" fill="white"/>
<path d="M22.0391 13.2919C21.8433 13.0729 21.7353 12.7915 21.7353 12.5C21.7353 12.2086 21.8433 11.9271 22.0391 11.7081L23.6025 9.98034C23.7748 9.79157 23.8818 9.55404 23.9081 9.30184C23.9345 9.04964 23.8788 8.79573 23.7491 8.57653L21.3062 4.4251C21.1778 4.20615 20.9824 4.0326 20.7477 3.92919C20.513 3.82577 20.2511 3.79777 19.9993 3.84918L17.703 4.30511C17.4108 4.36442 17.1066 4.31662 16.8478 4.17073C16.589 4.02485 16.3936 3.79096 16.2983 3.51322L15.5532 1.31752C15.4713 1.07921 15.3152 0.872219 15.1069 0.725812C14.8987 0.579404 14.6489 0.500982 14.3928 0.501632H9.50706C9.2407 0.487975 8.97711 0.560335 8.75656 0.707661C8.536 0.854986 8.3706 1.06918 8.28561 1.31752L7.6016 3.51322C7.50633 3.79096 7.31086 4.02485 7.05209 4.17073C6.79332 4.31662 6.48913 4.36442 6.19694 4.30511L3.83955 3.84918C3.60082 3.81604 3.35745 3.85304 3.14009 3.95553C2.92273 4.05802 2.74111 4.2214 2.61811 4.4251L0.175217 8.57653C0.0422754 8.79328 -0.0174996 9.04577 0.00443817 9.2979C0.0263759 9.55003 0.128903 9.7889 0.297362 9.98034L1.8486 11.7081C2.04442 11.9271 2.15241 12.2086 2.15241 12.5C2.15241 12.7915 2.04442 13.0729 1.8486 13.2919L0.297362 15.0197C0.128903 15.2111 0.0263759 15.45 0.00443817 15.7021C-0.0174996 15.9542 0.0422754 16.2067 0.175217 16.4235L2.61811 20.5749C2.74648 20.7938 2.94194 20.9674 3.17662 21.0708C3.4113 21.1742 3.67322 21.2022 3.92505 21.1508L6.22137 20.6949C6.51356 20.6356 6.81774 20.6834 7.07652 20.8293C7.33529 20.9752 7.53076 21.209 7.62603 21.4868L8.37111 23.6825C8.4561 23.9308 8.6215 24.145 8.84206 24.2923C9.06262 24.4397 9.3262 24.512 9.59256 24.4984H14.4783C14.7344 24.499 14.9842 24.4206 15.1924 24.2742C15.4007 24.1278 15.5568 23.9208 15.6387 23.6825L16.3838 21.4868C16.4791 21.209 16.6745 20.9752 16.9333 20.8293C17.1921 20.6834 17.4963 20.6356 17.7885 20.6949L20.0848 21.1508C20.3366 21.2022 20.5985 21.1742 20.8332 21.0708C21.0679 20.9674 21.2633 20.7938 21.3917 20.5749L23.8346 16.4235C23.9643 16.2043 24.02 15.9504 23.9936 15.6982C23.9673 15.446 23.8603 15.2084 23.688 15.0197L22.0391 13.2919ZM20.2191 14.8997L21.1963 15.9795L19.6328 18.6432L18.1915 18.3552C17.3118 18.1786 16.3967 18.3253 15.6199 18.7677C14.8431 19.2101 14.2587 19.9172 13.9775 20.7549L13.5134 22.0987H10.3865L9.94678 20.7309C9.66567 19.8932 9.08124 19.1861 8.30443 18.7437C7.52762 18.3014 6.6125 18.1546 5.73279 18.3312L4.29149 18.6192L2.70361 15.9675L3.68076 14.8877C4.28166 14.2277 4.61386 13.3734 4.61386 12.488C4.61386 11.6026 4.28166 10.7483 3.68076 10.0883L2.70361 9.00848L4.26706 6.36883L5.70836 6.6568C6.58807 6.83344 7.50319 6.68665 8.28 6.24429C9.05681 5.80193 9.64124 5.0948 9.92235 4.25712L10.3865 2.90131H13.5134L13.9775 4.26912C14.2587 5.1068 14.8431 5.81393 15.6199 6.25629C16.3967 6.69865 17.3118 6.84544 18.1915 6.66879L19.6328 6.38083L21.1963 9.04447L20.2191 10.1243C19.625 10.7827 19.2969 11.6321 19.2969 12.512C19.2969 13.3919 19.625 14.2413 20.2191 14.8997ZM11.9499 7.70065C10.9836 7.70065 10.039 7.98213 9.23555 8.50949C8.43209 9.03685 7.80587 9.7864 7.43607 10.6634C7.06628 11.5403 6.96953 12.5053 7.15804 13.4363C7.34656 14.3673 7.81189 15.2225 8.49518 15.8937C9.17847 16.5649 10.049 17.0219 10.9968 17.2071C11.9445 17.3923 12.9269 17.2973 13.8197 16.934C14.7124 16.5708 15.4755 15.9556 16.0123 15.1664C16.5492 14.3771 16.8357 13.4492 16.8357 12.5C16.8357 11.2271 16.321 10.0064 15.4047 9.10635C14.4885 8.2063 13.2457 7.70065 11.9499 7.70065ZM11.9499 14.8997C11.4668 14.8997 10.9945 14.7589 10.5927 14.4953C10.191 14.2316 9.87791 13.8568 9.69301 13.4183C9.50811 12.9798 9.45974 12.4973 9.554 12.0318C9.64825 11.5664 9.88092 11.1388 10.2226 10.8032C10.5642 10.4676 10.9995 10.239 11.4734 10.1464C11.9472 10.0538 12.4384 10.1014 12.8848 10.283C13.3312 10.4646 13.7127 10.7722 13.9811 11.1668C14.2496 11.5614 14.3928 12.0254 14.3928 12.5C14.3928 13.1364 14.1355 13.7468 13.6773 14.1968C13.2192 14.6469 12.5978 14.8997 11.9499 14.8997Z" fill="white"/>
<path d="M12.2139 8.19897C14.6445 8.19897 16.5996 10.1327 16.5996 12.4988C16.5994 14.8647 14.6444 16.7976 12.2139 16.7976C9.78339 16.7976 7.82838 14.8646 7.82812 12.4988C7.82812 10.1327 9.78323 8.19899 12.2139 8.19897Z" stroke="#0B8FAC"/>
</svg>
