<svg width="23" height="23" viewBox="0 0 23 23" fill="none" xmlns="http://www.w3.org/2000/svg">
<g clip-path="url(#clip0_1683_23065)">
<path d="M11.5003 0.805664C9.46131 0.805664 7.46815 1.43907 5.77283 2.62579C4.07751 3.81251 2.75617 5.49924 1.9759 7.47268C1.19563 9.44613 0.991474 11.6176 1.38925 13.7126C1.78703 15.8076 2.76888 17.732 4.21063 19.2424C5.65238 20.7528 7.48929 21.7814 9.48905 22.1981C11.4888 22.6149 13.5616 22.401 15.4454 21.5836C17.3291 20.7661 18.9392 19.3819 20.072 17.6058C21.2047 15.8298 21.8093 13.7417 21.8093 11.6057C21.8062 8.74233 20.7191 5.9972 18.7864 3.97252C16.8538 1.94783 14.2334 0.808931 11.5003 0.805664ZM11.5003 20.8628C9.15671 20.8628 6.90914 19.8875 5.25201 18.1515C3.59487 16.4154 2.66389 14.0608 2.66389 11.6057C2.66389 9.15052 3.59487 6.79593 5.25201 5.05988C6.90914 3.32382 9.15671 2.34852 11.5003 2.34852V11.6057L17.7454 18.1482C16.9264 19.0093 15.9531 19.6925 14.8814 20.1583C13.8096 20.6242 12.6606 20.8636 11.5003 20.8628Z" fill="#0B8FAC"/>
</g>
<defs>
<clipPath id="clip0_1683_23065">
<rect width="21.6" height="21.6" fill="white" transform="translate(0.699951 0.804077)"/>
</clipPath>
</defs>
</svg>
