<svg width="21" height="22" viewBox="0 0 21 22" fill="none" xmlns="http://www.w3.org/2000/svg">
<g clip-path="url(#clip0_1683_23105)">
<path fill-rule="evenodd" clip-rule="evenodd" d="M1.6153 1.02969C2.0489 0.59555 2.63715 0.35137 3.25073 0.35083L11.8707 0.35083C12.4843 0.35137 13.0725 0.59555 13.5061 1.02969L18.7734 6.297C19.2076 6.7306 19.4517 7.31885 19.4523 7.93243V19.6365C19.4523 20.2503 19.2084 20.839 18.7744 21.273C18.3404 21.707 17.7518 21.9508 17.138 21.9508H3.25227C2.63849 21.9508 2.04984 21.707 1.61583 21.273C1.18181 20.839 0.937988 20.2503 0.937988 19.6365V2.66512C0.937988 2.05106 1.18022 1.46169 1.6153 1.02969ZM8.82353 7.33534C8.94743 7.4236 9.05271 7.53542 9.13334 7.66441C9.21398 7.79339 9.26839 7.93701 9.29347 8.08705C9.31855 8.23708 9.3138 8.39059 9.27949 8.53879C9.24518 8.68699 9.18199 8.82696 9.09353 8.95072L6.93816 11.9685C6.84042 12.1051 6.71414 12.2187 6.56807 12.3016C6.42201 12.3844 6.25966 12.4345 6.09231 12.4483C5.92495 12.4621 5.7566 12.4393 5.59894 12.3815C5.44128 12.3237 5.29809 12.2323 5.1793 12.1136L3.88639 10.8207C3.68199 10.6013 3.57071 10.3112 3.576 10.0114C3.58129 9.71162 3.70273 9.42559 3.91474 9.21358C4.12675 9.00158 4.41277 8.88014 4.71255 8.87485C5.01233 8.86956 5.30246 8.98083 5.52182 9.18523L5.8489 9.51077L7.2097 7.60689C7.38793 7.35711 7.65807 7.18834 7.96071 7.13771C8.26335 7.08707 8.57371 7.15718 8.82353 7.33534ZM10.2892 10.185C10.2892 9.87811 10.4112 9.58378 10.6282 9.36678C10.8452 9.14977 11.1395 9.02786 11.4464 9.02786H15.3035C15.6104 9.02786 15.9047 9.14977 16.1218 9.36678C16.3388 9.58378 16.4607 9.87811 16.4607 10.185C16.4607 10.4919 16.3388 10.7862 16.1218 11.0032C15.9047 11.2202 15.6104 11.3421 15.3035 11.3421H11.4464C11.1395 11.3421 10.8452 11.2202 10.6282 11.0032C10.4112 10.7862 10.2892 10.4919 10.2892 10.185ZM10.2892 16.3086C10.2892 16.0017 10.4112 15.7074 10.6282 15.4904C10.8452 15.2734 11.1395 15.1515 11.4464 15.1515H15.3035C15.6104 15.1515 15.9047 15.2734 16.1218 15.4904C16.3388 15.7074 16.4607 16.0017 16.4607 16.3086C16.4607 16.6155 16.3388 16.9098 16.1218 17.1268C15.9047 17.3438 15.6104 17.4657 15.3035 17.4657H11.4464C11.1395 17.4657 10.8452 17.3438 10.6282 17.1268C10.4112 16.9098 10.2892 16.6155 10.2892 16.3086ZM9.09353 15.17C9.1861 15.0466 9.25308 14.906 9.29053 14.7564C9.32799 14.6068 9.33516 14.4512 9.31162 14.2988C9.28808 14.1464 9.23432 14.0002 9.15348 13.8689C9.07264 13.7375 8.96637 13.6237 8.8409 13.534C8.71543 13.4443 8.5733 13.3806 8.42287 13.3467C8.27243 13.3127 8.11672 13.3092 7.9649 13.3362C7.81307 13.3633 7.66818 13.4205 7.53876 13.5043C7.40934 13.5882 7.29798 13.6971 7.21125 13.8246L5.8489 15.73L5.52182 15.4029C5.30246 15.1985 5.01233 15.0873 4.71255 15.0926C4.41277 15.0978 4.12675 15.2193 3.91474 15.4313C3.70273 15.6433 3.58129 15.9293 3.576 16.2291C3.57071 16.5289 3.68199 16.819 3.88639 17.0384L5.1793 18.3313C5.29809 18.45 5.44128 18.5414 5.59894 18.5992C5.7566 18.657 5.92495 18.6798 6.09231 18.666C6.25966 18.6522 6.42201 18.6021 6.56807 18.5193C6.71414 18.4364 6.84042 18.3228 6.93816 18.1863L9.09353 15.17Z" fill="#0B8FAC"/>
</g>
<defs>
<clipPath id="clip0_1683_23105">
<rect width="19.8" height="21.6" fill="white" transform="translate(0.600098 0.354004)"/>
</clipPath>
</defs>
</svg>
