<svg width="23" height="22" viewBox="0 0 23 22" fill="none" xmlns="http://www.w3.org/2000/svg">
<g clip-path="url(#clip0_1683_23095)">
<path d="M7.90137 11.5236C7.90137 12.3712 8.28065 13.1841 8.95578 13.7835C9.63091 14.3829 10.5466 14.7196 11.5014 14.7196C12.4561 14.7196 13.3718 14.3829 14.047 13.7835C14.7221 13.1841 15.1014 12.3712 15.1014 11.5236C15.1014 10.6759 14.7221 9.863 14.047 9.26363C13.3718 8.66426 12.4561 8.32754 11.5014 8.32754C10.5466 8.32754 9.63091 8.66426 8.95578 9.26363C8.28065 9.863 7.90137 10.6759 7.90137 11.5236ZM21.1014 18.5442V6.19685L13.9014 -0.19519H4.30137C3.66485 -0.19519 3.0544 0.0292914 2.60431 0.428872C2.15422 0.828452 1.90137 1.3704 1.90137 1.93549V18.9809C1.90137 19.546 2.15422 20.088 2.60431 20.4876C3.0544 20.8871 3.66485 21.1116 4.30137 21.1116H18.7014C19.2414 21.1116 19.7214 20.9518 20.1294 20.6855L14.8134 15.966C13.8534 16.52 12.7014 16.8503 11.5014 16.8503C9.91007 16.8503 8.38394 16.2891 7.25873 15.2901C6.13351 14.2912 5.50137 12.9363 5.50137 11.5236C5.50137 10.1108 6.13351 8.75596 7.25873 7.75701C8.38394 6.75806 9.91007 6.19685 11.5014 6.19685C13.0927 6.19686 14.6188 6.75806 15.744 7.75701C16.8692 8.75596 17.5014 10.1108 17.5014 11.5236C17.5014 12.5889 17.1294 13.6116 16.5054 14.4532L21.1014 18.5442Z" fill="#0B8FAC"/>
</g>
<defs>
<clipPath id="clip0_1683_23095">
<rect width="21.6" height="21.6" fill="white" transform="translate(0.699951 0.00720215)"/>
</clipPath>
</defs>
</svg>
