<svg width="23" height="22" viewBox="0 0 23 22" fill="none" xmlns="http://www.w3.org/2000/svg">
<path d="M6.84177 16.6C7.10337 16.6 7.32257 16.5112 7.49937 16.3336C7.67537 16.1568 7.76337 15.9372 7.76337 15.6748C7.76337 15.4124 7.67457 15.1932 7.49697 15.0172C7.31937 14.8412 7.09977 14.7532 6.83817 14.7532C6.57657 14.7532 6.35737 14.842 6.18057 15.0196C6.00377 15.1972 5.91577 15.4168 5.91657 15.6784C5.91737 15.94 6.00617 16.1588 6.18297 16.3348C6.35977 16.5108 6.57937 16.6 6.84177 16.6ZM6.84177 12.076C7.10337 12.076 7.32257 11.9876 7.49937 11.8108C7.67537 11.6332 7.76337 11.4132 7.76337 11.1508C7.76337 10.8884 7.67457 10.6696 7.49697 10.4944C7.31937 10.3192 7.09977 10.2312 6.83817 10.2304C6.57657 10.2296 6.35737 10.318 6.18057 10.4956C6.00377 10.6732 5.91577 10.8932 5.91657 11.1556C5.91737 11.418 6.00617 11.6368 6.18297 11.812C6.35977 11.9872 6.57937 12.0752 6.84177 12.076ZM6.84177 7.55322C7.10337 7.55322 7.32257 7.46482 7.49937 7.28802C7.67537 7.11042 7.76337 6.89042 7.76337 6.62802C7.76337 6.36562 7.67457 6.14682 7.49697 5.97162C7.31937 5.79642 7.09977 5.70842 6.83817 5.70762C6.57657 5.70682 6.35737 5.79522 6.18057 5.97282C6.00457 6.15042 5.91657 6.37002 5.91657 6.63162C5.91657 6.89322 6.00537 7.11242 6.18297 7.28922C6.36057 7.46602 6.58017 7.55402 6.84177 7.55322ZM10.5318 16.2772H16.9938V15.0772H10.5318V16.2772ZM10.5318 11.7532H16.9938V10.5532H10.5318V11.7532ZM10.5318 7.22922H16.9938V6.02922H10.5318V7.22922ZM3.84057 20.7532C3.28777 20.7532 2.82657 20.5684 2.45697 20.1988C2.08737 19.8292 1.90217 19.3676 1.90137 18.814V3.49242C1.90137 2.93962 2.08657 2.47842 2.45697 2.10882C2.82737 1.73922 3.28857 1.55402 3.84057 1.55322H19.1634C19.7154 1.55322 20.1766 1.73842 20.547 2.10882C20.9174 2.47922 21.1022 2.94042 21.1014 3.49242V18.8152C21.1014 19.3672 20.9166 19.8284 20.547 20.1988C20.1774 20.5692 19.7158 20.754 19.1622 20.7532H3.84057Z" fill="#0B8FAC"/>
</svg>
