<svg width="23" height="23" viewBox="0 0 23 23" fill="none" xmlns="http://www.w3.org/2000/svg">
<path d="M17.7194 5.23916C18.6743 5.23916 19.59 5.61848 20.2652 6.29367C20.9404 6.96887 21.3197 7.88462 21.3197 8.83949V17.3479C21.3197 18.3028 20.9404 19.2185 20.2652 19.8937C19.59 20.5689 18.6743 20.9483 17.7194 20.9483H9.21095C8.25608 20.9483 7.34033 20.5689 6.66513 19.8937C5.98994 19.2185 5.61062 18.3028 5.61062 17.3479V8.83949C5.61062 7.88462 5.98994 6.96887 6.66513 6.29367C7.34033 5.61848 8.25608 5.23916 9.21095 5.23916H17.7194ZM14.447 1.31189C15.5211 1.31189 16.2418 1.8352 16.7778 2.79836C16.8405 2.91105 16.8803 3.03498 16.8951 3.16307C16.9099 3.29116 16.8993 3.4209 16.8639 3.5449C16.8285 3.66889 16.7691 3.7847 16.6889 3.88571C16.6088 3.98673 16.5096 4.07097 16.3969 4.13364C16.2842 4.1963 16.1603 4.23615 16.0322 4.25092C15.9041 4.26569 15.7743 4.25508 15.6503 4.21971C15.5264 4.18433 15.4105 4.12488 15.3095 4.04475C15.2085 3.96462 15.1243 3.86538 15.0616 3.75269C14.8446 3.36193 14.7258 3.27553 14.447 3.27553H4.6288C4.09077 3.27553 3.64699 3.71931 3.64699 4.25734V14.0736C3.64699 14.3877 3.79819 14.6803 4.04659 14.8639L4.14477 14.9277C4.25681 14.9916 4.35519 15.0768 4.43428 15.1787C4.51337 15.2805 4.57163 15.3969 4.60573 15.5213C4.63982 15.6457 4.64909 15.7755 4.63301 15.9034C4.61692 16.0314 4.57579 16.1549 4.51197 16.2669C4.44815 16.379 4.36288 16.4774 4.26104 16.5565C4.1592 16.6355 4.04277 16.6938 3.91842 16.7279C3.79406 16.762 3.66421 16.7713 3.53627 16.7552C3.40833 16.7391 3.28481 16.698 3.17277 16.6341C2.72075 16.3771 2.34484 16.005 2.08324 15.5556C1.82163 15.1062 1.68366 14.5955 1.68335 14.0755V4.25734C1.68335 2.63538 3.00684 1.31189 4.6288 1.31189H14.447ZM15.7165 10.4359L12.4833 13.6681L11.2139 12.3996C11.0287 12.2207 10.7807 12.1218 10.5232 12.124C10.2658 12.1262 10.0196 12.2295 9.83753 12.4115C9.65549 12.5936 9.55223 12.8398 9.55 13.0972C9.54776 13.3547 9.64672 13.6027 9.82557 13.7879L11.7892 15.7515C11.9733 15.9356 12.223 16.039 12.4833 16.039C12.7437 16.039 12.9934 15.9356 13.1775 15.7515L17.1048 11.8242C17.2836 11.639 17.3826 11.391 17.3803 11.1336C17.3781 10.8762 17.2748 10.6299 17.0928 10.4479C16.9108 10.2658 16.6645 10.1626 16.4071 10.1604C16.1497 10.1581 15.9016 10.2571 15.7165 10.4359Z" fill="#0B8FAC"/>
</svg>
