<svg width="24" height="31" viewBox="0 0 24 31" fill="none" xmlns="http://www.w3.org/2000/svg">
<g clip-path="url(#clip0_1683_23022)">
<path d="M19.9178 18.3945H21.877V20.3945H2.28516V18.3945H4.24434L4.24434 11.3945C4.24434 9.2728 5.06999 7.23797 6.53967 5.73768C8.00934 4.23739 10.0026 3.39453 12.0811 3.39453C14.1595 3.39453 16.1528 4.23739 17.6225 5.73768C19.0922 7.23797 19.9178 9.2728 19.9178 11.3945V18.3945ZM17.9586 18.3945V11.3945C17.9586 9.80323 17.3394 8.27711 16.2371 7.15189C15.1349 6.02667 13.6399 5.39453 12.0811 5.39453C10.5223 5.39453 9.02727 6.02667 7.92502 7.15189C6.82276 8.27711 6.20352 9.80323 6.20352 11.3945L6.20352 18.3945H17.9586ZM9.1423 22.3945H15.0198V24.3945H9.1423V22.3945Z" fill="#858585"/>
<ellipse cx="16.9978" cy="4.70703" rx="3.85714" ry="3.9375" fill="#F30000"/>
</g>
<defs>
<clipPath id="clip0_1683_23022">
<rect width="24" height="31" fill="white"/>
</clipPath>
</defs>
</svg>
