<svg width="20" height="21" viewBox="0 0 20 21" fill="none" xmlns="http://www.w3.org/2000/svg">
<path d="M17.6327 15H19.5918V17H0L0 15H1.95918L1.95918 8C1.95918 5.87827 2.78484 3.84344 4.25451 2.34315C5.72418 0.842855 7.71749 0 9.79592 0C11.8743 0 13.8677 0.842855 15.3373 2.34315C16.807 3.84344 17.6327 5.87827 17.6327 8V15ZM15.6735 15V8C15.6735 6.4087 15.0542 4.88258 13.952 3.75736C12.8497 2.63214 11.3547 2 9.79592 2C8.23709 2 6.74212 2.63214 5.63986 3.75736C4.53761 4.88258 3.91837 6.4087 3.91837 8L3.91837 15H15.6735ZM6.85714 19H12.7347V21H6.85714V19Z" fill="#858585"/>
</svg>
