<svg width="20" height="20" viewBox="0 0 20 20" fill="none" xmlns="http://www.w3.org/2000/svg">
<path d="M6.08967 4.125C5.73315 4.125 5.4375 3.84167 5.4375 3.5V1C5.4375 0.658333 5.73315 0.375 6.08967 0.375C6.4462 0.375 6.74185 0.658333 6.74185 1V3.5C6.74185 3.84167 6.4462 4.125 6.08967 4.125Z" fill="url(#paint0_linear_1400_22424)"/>
<path d="M13.0428 4.125C12.6863 4.125 12.3906 3.84167 12.3906 3.5V1C12.3906 0.658333 12.6863 0.375 13.0428 0.375C13.3993 0.375 13.695 0.658333 13.695 1V3.5C13.695 3.84167 13.3993 4.125 13.0428 4.125Z" fill="url(#paint1_linear_1400_22424)"/>
<path d="M6.52582 11.4164C6.41277 11.4164 6.29972 11.3914 6.19538 11.3498C6.08233 11.3081 5.99539 11.2497 5.90843 11.1747C5.75191 11.0164 5.65625 10.7998 5.65625 10.5831C5.65625 10.3664 5.75191 10.1498 5.90843 9.99142C5.99539 9.91642 6.09103 9.85807 6.19538 9.81641C6.40407 9.73307 6.64756 9.73307 6.85625 9.81641C6.9606 9.85807 7.05624 9.91642 7.1432 9.99142C7.17798 10.0331 7.22146 10.0748 7.24754 10.1164C7.28233 10.1664 7.30844 10.2164 7.32583 10.2664C7.35191 10.3164 7.3693 10.3664 7.378 10.4164C7.38669 10.4747 7.39538 10.5331 7.39538 10.5831C7.39538 10.7998 7.29972 11.0164 7.1432 11.1747C7.05624 11.2497 6.9606 11.3081 6.85625 11.3498C6.75191 11.3914 6.63886 11.4164 6.52582 11.4164Z" fill="url(#paint2_linear_1400_22424)"/>
<path d="M9.56488 11.4141C9.45183 11.4141 9.33879 11.3891 9.23444 11.3474C9.1214 11.3057 9.03445 11.2474 8.94749 11.1724C8.79097 11.014 8.69531 10.7974 8.69531 10.5807C8.69531 10.5307 8.704 10.4724 8.71269 10.414C8.72139 10.364 8.73878 10.3141 8.76487 10.2641C8.78226 10.2141 8.80837 10.1641 8.84315 10.1141C8.87793 10.0724 8.91271 10.0307 8.94749 9.98906C9.26923 9.68073 9.85183 9.68073 10.1823 9.98906C10.217 10.0307 10.2518 10.0724 10.2866 10.1141C10.3214 10.1641 10.3475 10.2141 10.3649 10.2641C10.391 10.3141 10.4084 10.364 10.4171 10.414C10.4258 10.4724 10.4344 10.5307 10.4344 10.5807C10.4344 10.7974 10.3388 11.014 10.1823 11.1724C10.017 11.3224 9.79966 11.4141 9.56488 11.4141Z" fill="url(#paint3_linear_1400_22424)"/>
<path d="M6.52582 14.3344C6.41277 14.3344 6.29972 14.3094 6.19538 14.2677C6.09103 14.2261 5.99539 14.1677 5.90843 14.0927C5.75191 13.9344 5.65625 13.7177 5.65625 13.5011C5.65625 13.4511 5.66494 13.3927 5.67363 13.3427C5.68233 13.2844 5.69972 13.2344 5.7258 13.1844C5.74319 13.1344 5.76931 13.0844 5.80409 13.0344C5.83017 12.9927 5.87365 12.9511 5.90843 12.9094C5.99539 12.8344 6.09103 12.776 6.19538 12.7344C6.40407 12.651 6.64756 12.651 6.85625 12.7344C6.9606 12.776 7.05624 12.8344 7.1432 12.9094C7.17798 12.9511 7.22146 12.9927 7.24754 13.0344C7.28233 13.0844 7.30844 13.1344 7.32583 13.1844C7.35191 13.2344 7.3693 13.2844 7.378 13.3427C7.38669 13.3927 7.39538 13.4511 7.39538 13.5011C7.39538 13.7177 7.29972 13.9344 7.1432 14.0927C7.05624 14.1677 6.9606 14.2261 6.85625 14.2677C6.75191 14.3094 6.63886 14.3344 6.52582 14.3344Z" fill="url(#paint4_linear_1400_22424)"/>
<path d="M16.9582 7.53125H2.17561C1.81909 7.53125 1.52344 7.24792 1.52344 6.90625C1.52344 6.56458 1.81909 6.28125 2.17561 6.28125H16.9582C17.3147 6.28125 17.6104 6.56458 17.6104 6.90625C17.6104 7.24792 17.3147 7.53125 16.9582 7.53125Z" fill="url(#paint5_linear_1400_22424)"/>
<path d="M12.8873 18.3154C12.5568 18.3154 12.2438 18.1987 12.0177 17.982C11.7481 17.7237 11.6264 17.3487 11.6873 16.957L11.8525 15.832C11.896 15.5404 12.0786 15.1904 12.296 14.982L15.3742 12.032C15.7916 11.632 16.2003 11.4237 16.6438 11.382C17.1916 11.332 17.722 11.5487 18.2264 12.032C18.7568 12.5404 19.4699 13.5737 18.2264 14.7654L15.1481 17.7154C14.9307 17.9237 14.5655 18.0987 14.2612 18.1404L13.0872 18.2987C13.0177 18.307 12.9568 18.3154 12.8873 18.3154ZM16.7916 12.6237C16.7829 12.6237 16.7742 12.6237 16.7655 12.6237C16.6438 12.632 16.4786 12.7404 16.2959 12.9154L13.2177 15.8654C13.1916 15.8904 13.1481 15.9737 13.1481 16.007L12.9916 17.0487L14.0786 16.8987C14.1133 16.8904 14.2003 16.8487 14.2264 16.8237L17.3046 13.8737C17.6872 13.507 17.7394 13.3237 17.3046 12.907C17.1655 12.782 16.9655 12.6237 16.7916 12.6237Z" fill="url(#paint6_linear_1400_22424)"/>
<path d="M17.3226 15.3718C17.2617 15.3718 17.2008 15.3635 17.1487 15.3469C16.0008 15.0385 15.0878 14.1635 14.7661 13.0635C14.6704 12.7302 14.8704 12.3885 15.2182 12.2885C15.5661 12.1968 15.9226 12.3885 16.0269 12.7219C16.2269 13.4052 16.7921 13.9468 17.5052 14.1385C17.853 14.2302 18.053 14.5802 17.9574 14.9135C17.8704 15.1885 17.6095 15.3718 17.3226 15.3718Z" fill="url(#paint7_linear_1400_22424)"/>
<path d="M9.5642 18.2917H6.08594C2.91202 18.2917 1.08594 16.5417 1.08594 13.5V6.41667C1.08594 3.375 2.91202 1.625 6.08594 1.625H13.0425C16.2164 1.625 18.0425 3.375 18.0425 6.41667V9.33333C18.0425 9.675 17.7468 9.95833 17.3903 9.95833C17.0338 9.95833 16.7381 9.675 16.7381 9.33333V6.41667C16.7381 4.03333 15.5294 2.875 13.0425 2.875H6.08594C3.59898 2.875 2.39029 4.03333 2.39029 6.41667V13.5C2.39029 15.8833 3.59898 17.0417 6.08594 17.0417H9.5642C9.92072 17.0417 10.2164 17.325 10.2164 17.6667C10.2164 18.0083 9.92072 18.2917 9.5642 18.2917Z" fill="url(#paint8_linear_1400_22424)"/>
<defs>
<linearGradient id="paint0_linear_1400_22424" x1="6.08967" y1="-0.175" x2="6.08966" y2="7.025" gradientUnits="userSpaceOnUse">
<stop stop-color="#0B8FAC"/>
<stop offset="1" stop-color="#99E5BD"/>
</linearGradient>
<linearGradient id="paint1_linear_1400_22424" x1="13.0428" y1="-0.175" x2="13.0428" y2="7.025" gradientUnits="userSpaceOnUse">
<stop stop-color="#0B8FAC"/>
<stop offset="1" stop-color="#99E5BD"/>
</linearGradient>
<linearGradient id="paint2_linear_1400_22424" x1="6.52582" y1="9.51007" x2="6.52581" y2="12.7021" gradientUnits="userSpaceOnUse">
<stop stop-color="#0B8FAC"/>
<stop offset="1" stop-color="#99E5BD"/>
</linearGradient>
<linearGradient id="paint3_linear_1400_22424" x1="9.56488" y1="9.5149" x2="9.56488" y2="12.6949" gradientUnits="userSpaceOnUse">
<stop stop-color="#0B8FAC"/>
<stop offset="1" stop-color="#99E5BD"/>
</linearGradient>
<linearGradient id="paint4_linear_1400_22424" x1="6.52582" y1="12.428" x2="6.52581" y2="15.6201" gradientUnits="userSpaceOnUse">
<stop stop-color="#0B8FAC"/>
<stop offset="1" stop-color="#99E5BD"/>
</linearGradient>
<linearGradient id="paint5_linear_1400_22424" x1="9.56692" y1="6.09792" x2="9.56692" y2="8.49792" gradientUnits="userSpaceOnUse">
<stop stop-color="#0B8FAC"/>
<stop offset="1" stop-color="#99E5BD"/>
</linearGradient>
<linearGradient id="paint6_linear_1400_22424" x1="15.2942" y1="10.3571" x2="15.2942" y2="23.6826" gradientUnits="userSpaceOnUse">
<stop stop-color="#0B8FAC"/>
<stop offset="1" stop-color="#99E5BD"/>
</linearGradient>
<linearGradient id="paint7_linear_1400_22424" x1="16.3617" y1="11.81" x2="16.3617" y2="17.774" gradientUnits="userSpaceOnUse">
<stop stop-color="#0B8FAC"/>
<stop offset="1" stop-color="#99E5BD"/>
</linearGradient>
<linearGradient id="paint8_linear_1400_22424" x1="9.5642" y1="-0.819445" x2="9.56418" y2="31.1806" gradientUnits="userSpaceOnUse">
<stop stop-color="#0B8FAC"/>
<stop offset="1" stop-color="#99E5BD"/>
</linearGradient>
</defs>
</svg>
