<svg width="23" height="25" viewBox="0 0 23 25" fill="none" xmlns="http://www.w3.org/2000/svg">
<path d="M7 5.04712C6.59 5.04712 6.25 4.70712 6.25 4.29712V1.29712C6.25 0.887119 6.59 0.547119 7 0.547119C7.41 0.547119 7.75 0.887119 7.75 1.29712V4.29712C7.75 4.70712 7.41 5.04712 7 5.04712Z" fill="#C4C4C4"/>
<path d="M15 5.04712C14.59 5.04712 14.25 4.70712 14.25 4.29712V1.29712C14.25 0.887119 14.59 0.547119 15 0.547119C15.41 0.547119 15.75 0.887119 15.75 1.29712V4.29712C15.75 4.70712 15.41 5.04712 15 5.04712Z" fill="#C4C4C4"/>
<path d="M7.5 13.798C7.37 13.798 7.24 13.768 7.12 13.718C6.99 13.668 6.89001 13.598 6.79001 13.508C6.61001 13.318 6.5 13.058 6.5 12.798C6.5 12.538 6.61001 12.278 6.79001 12.088C6.89001 11.998 7 11.928 7.12 11.878C7.36 11.778 7.64 11.778 7.88 11.878C8 11.928 8.10999 11.998 8.20999 12.088C8.24999 12.138 8.29999 12.188 8.32999 12.238C8.36999 12.298 8.40001 12.358 8.42001 12.418C8.45001 12.478 8.47001 12.538 8.48001 12.598C8.49001 12.668 8.5 12.738 8.5 12.798C8.5 13.058 8.38999 13.318 8.20999 13.508C8.10999 13.598 8 13.668 7.88 13.718C7.76 13.768 7.63 13.798 7.5 13.798Z" fill="#C4C4C4"/>
<path d="M11 13.7963C10.87 13.7963 10.74 13.7663 10.62 13.7163C10.49 13.6663 10.39 13.5963 10.29 13.5063C10.11 13.3163 10 13.0563 10 12.7963C10 12.7363 10.01 12.6663 10.02 12.5963C10.03 12.5363 10.05 12.4763 10.08 12.4163C10.1 12.3563 10.13 12.2963 10.17 12.2363C10.21 12.1863 10.25 12.1363 10.29 12.0863C10.66 11.7163 11.33 11.7163 11.71 12.0863C11.75 12.1363 11.79 12.1863 11.83 12.2363C11.87 12.2963 11.9 12.3563 11.92 12.4163C11.95 12.4763 11.97 12.5363 11.98 12.5963C11.99 12.6663 12 12.7363 12 12.7963C12 13.0563 11.89 13.3163 11.71 13.5063C11.52 13.6863 11.27 13.7963 11 13.7963Z" fill="#C4C4C4"/>
<path d="M7.5 17.298C7.37 17.298 7.24 17.268 7.12 17.218C7 17.168 6.89001 17.098 6.79001 17.008C6.61001 16.818 6.5 16.558 6.5 16.298C6.5 16.238 6.50999 16.168 6.51999 16.108C6.52999 16.038 6.54999 15.978 6.57999 15.918C6.59999 15.858 6.63001 15.798 6.67001 15.738C6.70001 15.688 6.75001 15.638 6.79001 15.588C6.89001 15.498 7 15.428 7.12 15.378C7.36 15.278 7.64 15.278 7.88 15.378C8 15.428 8.10999 15.498 8.20999 15.588C8.24999 15.638 8.29999 15.688 8.32999 15.738C8.36999 15.798 8.40001 15.858 8.42001 15.918C8.45001 15.978 8.47001 16.038 8.48001 16.108C8.49001 16.168 8.5 16.238 8.5 16.298C8.5 16.558 8.38999 16.818 8.20999 17.008C8.10999 17.098 8 17.168 7.88 17.218C7.76 17.268 7.63 17.298 7.5 17.298Z" fill="#C4C4C4"/>
<path d="M19.5 9.13721H2.5C2.09 9.13721 1.75 8.79721 1.75 8.38721C1.75 7.97721 2.09 7.63721 2.5 7.63721H19.5C19.91 7.63721 20.25 7.97721 20.25 8.38721C20.25 8.79721 19.91 9.13721 19.5 9.13721Z" fill="#C4C4C4"/>
<path d="M14.8196 22.0767C14.4396 22.0767 14.0796 21.9367 13.8196 21.6767C13.5096 21.3667 13.3696 20.9167 13.4396 20.4467L13.6296 19.0967C13.6796 18.7467 13.8896 18.3267 14.1396 18.0767L17.6796 14.5367C18.1596 14.0567 18.6296 13.8067 19.1396 13.7567C19.7696 13.6967 20.3796 13.9567 20.9596 14.5367C21.5696 15.1467 22.3896 16.3867 20.9596 17.8167L17.4196 21.3567C17.1696 21.6067 16.7496 21.8167 16.3996 21.8667L15.0495 22.0567C14.9695 22.0667 14.8996 22.0767 14.8196 22.0767ZM19.3096 15.2467C19.2996 15.2467 19.2896 15.2467 19.2796 15.2467C19.1396 15.2567 18.9496 15.3867 18.7396 15.5967L15.1996 19.1367C15.1696 19.1667 15.1196 19.2667 15.1196 19.3067L14.9396 20.5567L16.1896 20.3767C16.2296 20.3667 16.3295 20.3167 16.3595 20.2867L19.8996 16.7467C20.3396 16.3067 20.3996 16.0867 19.8996 15.5867C19.7396 15.4367 19.5096 15.2467 19.3096 15.2467Z" fill="#C4C4C4"/>
<path d="M19.9206 18.5461C19.8506 18.5461 19.7806 18.5361 19.7206 18.5161C18.4006 18.1461 17.3506 17.0961 16.9806 15.7761C16.8706 15.3761 17.1006 14.9661 17.5006 14.8461C17.9006 14.7361 18.3106 14.9661 18.4306 15.3661C18.6606 16.1861 19.3106 16.8361 20.1306 17.0661C20.5306 17.1761 20.7606 17.5961 20.6506 17.9961C20.5506 18.3261 20.2506 18.5461 19.9206 18.5461Z" fill="#C4C4C4"/>
<path d="M11 22.0471H7C3.35 22.0471 1.25 19.9471 1.25 16.2971V7.79712C1.25 4.14712 3.35 2.04712 7 2.04712H15C18.65 2.04712 20.75 4.14712 20.75 7.79712V11.2971C20.75 11.7071 20.41 12.0471 20 12.0471C19.59 12.0471 19.25 11.7071 19.25 11.2971V7.79712C19.25 4.93712 17.86 3.54712 15 3.54712H7C4.14 3.54712 2.75 4.93712 2.75 7.79712V16.2971C2.75 19.1571 4.14 20.5471 7 20.5471H11C11.41 20.5471 11.75 20.8871 11.75 21.2971C11.75 21.7071 11.41 22.0471 11 22.0471Z" fill="#C4C4C4"/>
</svg>
