<svg width="18" height="16" viewBox="0 0 18 16" fill="none" xmlns="http://www.w3.org/2000/svg">
<path d="M17.375 14.4062H16.5938V8C16.5938 7.70992 16.4785 7.43172 16.2734 7.2266C16.0683 7.02148 15.7901 6.90625 15.5 6.90625H10.9688V1.75C10.9688 1.45992 10.8535 1.18172 10.6484 0.976602C10.4433 0.771484 10.1651 0.65625 9.875 0.65625H2.375C2.08492 0.65625 1.80672 0.771484 1.6016 0.976602C1.39648 1.18172 1.28125 1.45992 1.28125 1.75V14.4062H0.5C0.37568 14.4062 0.256451 14.4556 0.168544 14.5435C0.080636 14.6315 0.03125 14.7507 0.03125 14.875C0.03125 14.9993 0.080636 15.1185 0.168544 15.2065C0.256451 15.2944 0.37568 15.3438 0.5 15.3438H17.375C17.4993 15.3438 17.6185 15.2944 17.7065 15.2065C17.7944 15.1185 17.8438 14.9993 17.8438 14.875C17.8438 14.7507 17.7944 14.6315 17.7065 14.5435C17.6185 14.4556 17.4993 14.4062 17.375 14.4062ZM15.5 7.84375C15.5414 7.84375 15.5812 7.86021 15.6105 7.88951C15.6398 7.91882 15.6562 7.95856 15.6562 8V14.4062H10.9688V7.84375H15.5ZM2.21875 1.75C2.21875 1.70856 2.23521 1.66882 2.26451 1.63951C2.29382 1.61021 2.33356 1.59375 2.375 1.59375H9.875C9.91644 1.59375 9.95618 1.61021 9.98549 1.63951C10.0148 1.66882 10.0312 1.70856 10.0312 1.75V14.4062H8.46875V10.5C8.46875 10.3757 8.41936 10.2565 8.33146 10.1685C8.24355 10.0806 8.12432 10.0312 8 10.0312H4.25C4.12568 10.0312 4.00645 10.0806 3.91854 10.1685C3.83064 10.2565 3.78125 10.3757 3.78125 10.5V14.4062H2.21875V1.75ZM7.53125 14.4062H4.71875V10.9688H7.53125V14.4062ZM3.78125 5.5C3.78125 5.37568 3.83064 5.25645 3.91854 5.16854C4.00645 5.08064 4.12568 5.03125 4.25 5.03125H5.65625V3.625C5.65625 3.50068 5.70564 3.38145 5.79354 3.29354C5.88145 3.20564 6.00068 3.15625 6.125 3.15625C6.24932 3.15625 6.36855 3.20564 6.45646 3.29354C6.54436 3.38145 6.59375 3.50068 6.59375 3.625V5.03125H8C8.12432 5.03125 8.24355 5.08064 8.33146 5.16854C8.41936 5.25645 8.46875 5.37568 8.46875 5.5C8.46875 5.62432 8.41936 5.74355 8.33146 5.83146C8.24355 5.91936 8.12432 5.96875 8 5.96875H6.59375V7.375C6.59375 7.49932 6.54436 7.61855 6.45646 7.70646C6.36855 7.79436 6.24932 7.84375 6.125 7.84375C6.00068 7.84375 5.88145 7.79436 5.79354 7.70646C5.70564 7.61855 5.65625 7.49932 5.65625 7.375V5.96875H4.25C4.12568 5.96875 4.00645 5.91936 3.91854 5.83146C3.83064 5.74355 3.78125 5.62432 3.78125 5.5Z" fill="url(#paint0_linear_1400_22442)"/>
<defs>
<linearGradient id="paint0_linear_1400_22442" x1="8.9375" y1="-1.49792" x2="8.93749" y2="26.7021" gradientUnits="userSpaceOnUse">
<stop stop-color="#0B8FAC"/>
<stop offset="1" stop-color="#99E5BD"/>
</linearGradient>
</defs>
</svg>
