<svg width="191" height="128" viewBox="0 0 191 128" fill="none" xmlns="http://www.w3.org/2000/svg">
<path d="M55.9957 31.132L27.4219 50.2461L55.5669 92.3204L84.1407 73.2064L55.9957 31.132Z" fill="#E4EFFF"/>
<path d="M69.3764 71.2194L69.053 73.2262L54.8477 71.1786L55.1711 69.1719L69.3764 71.2194Z" fill="#C4C4C4"/>
<path d="M62.2224 64.0586L64.2597 64.3515L62.0008 78.3378L59.9609 78.0423L62.2224 64.0586Z" fill="#C4C4C4"/>
<path d="M49.1485 46.2894C49.1688 46.3174 46.3064 48.2707 42.7538 50.6442C39.2012 53.0177 36.3056 54.9226 36.2853 54.8921C36.2649 54.8615 39.1273 52.9108 42.6799 50.5347C46.2325 48.1587 49.1154 46.2589 49.1485 46.2894Z" fill="#C4C4C4"/>
<path d="M59.647 43.6487C59.6674 43.6792 54.9051 46.8982 49.0121 50.8404C43.1191 54.7827 38.3161 57.9533 38.3008 57.9253C38.2855 57.8973 43.0376 54.6732 48.9382 50.7309C54.8389 46.7887 59.6266 43.6181 59.647 43.6487Z" fill="#C4C4C4"/>
<path d="M61.7524 46.7971C61.7728 46.8277 57.0106 50.0492 51.1176 53.9914C45.2246 57.9337 40.4216 61.1043 40.4063 61.0737C40.391 61.0431 45.1482 57.8242 51.0437 53.8794C56.9392 49.9346 61.7321 46.7665 61.7524 46.7971Z" fill="#C4C4C4"/>
<path d="M63.8582 49.9455C63.8786 49.9761 59.1163 53.1976 53.2233 57.1373C47.3304 61.077 42.5273 64.2527 42.5273 64.2221C42.5273 64.1916 47.2667 60.9701 53.1622 57.0278C59.0578 53.0856 63.8378 49.915 63.8582 49.9455Z" fill="#C4C4C4"/>
<path d="M65.9608 53.0979C65.9812 53.1284 61.2189 56.3474 55.3259 60.2897C49.433 64.2319 44.6299 67.4025 44.6172 67.3719C44.6045 67.3414 49.3642 64.1224 55.2648 60.1802C61.1655 56.2379 65.9608 53.0673 65.9608 53.0979Z" fill="#C4C4C4"/>
<path d="M151.544 59.3262L127.547 75.3789L151.184 110.714L175.181 94.6608L151.544 59.3262Z" fill="#F5F5F5"/>
<path d="M162.782 93.0003L162.509 94.6861L150.578 92.9671L150.853 91.2812L162.782 93.0003Z" fill="#C4C4C4"/>
<path d="M156.775 86.9844L158.486 87.2314L156.589 98.9766L154.875 98.7296L156.775 86.9844Z" fill="#C4C4C4"/>
<path d="M145.786 72.0712C145.806 72.1017 143.405 73.7443 140.42 75.7384C137.436 77.7324 135.001 79.3266 134.981 79.3037C134.96 79.2808 137.364 77.6331 140.346 75.6365C143.329 73.6399 145.766 72.0279 145.786 72.0712Z" fill="#C4C4C4"/>
<path d="M154.609 69.844C154.629 69.8746 150.633 72.5842 145.695 75.8923C140.757 79.2005 136.716 81.8643 136.695 81.8337C136.675 81.8032 140.671 79.0935 145.609 75.7828C150.547 72.4722 154.581 69.8135 154.609 69.844Z" fill="#C4C4C4"/>
<path d="M156.378 72.4846C156.399 72.5152 152.403 75.2248 147.465 78.5355C142.527 81.8461 138.485 84.5049 138.465 84.4743C138.445 84.4437 142.428 81.7468 147.378 78.4362C152.329 75.1255 156.363 72.4566 156.378 72.4846Z" fill="#C4C4C4"/>
<path d="M158.148 75.1252C158.168 75.1557 154.17 77.8654 149.234 81.1761C144.299 84.4867 140.255 87.1454 140.234 87.1149C140.214 87.0843 144.21 84.3772 149.148 81.064C154.086 77.7508 158.13 75.0997 158.148 75.1252Z" fill="#C4C4C4"/>
<path d="M159.929 77.7776C159.949 77.8082 155.954 80.5153 151.016 83.8259C146.078 87.1366 142.036 89.7953 142.016 89.7673C141.995 89.7393 145.991 87.0271 150.929 83.7164C155.867 80.4058 159.896 77.747 159.929 77.7776Z" fill="#C4C4C4"/>
<path d="M113.579 32.6882L87.3945 18.6836L66.7732 57.2391L92.9574 71.2437L113.579 32.6882Z" fill="#E4EFFF"/>
<path d="M88.4754 59.1821L86.8149 59.75L82.5977 48.0939L84.2606 47.5234L88.4754 59.1821Z" fill="#C4C4C4"/>
<path d="M91.0225 50.8125L91.6286 52.4857L80.0514 56.4508L79.4453 54.7777L91.0225 50.8125Z" fill="#C4C4C4"/>
<path d="M99.2496 33.6163C99.2292 33.6545 96.5756 32.2742 93.3184 30.5348C90.0612 28.7954 87.4407 27.3515 87.4611 27.3133C87.4814 27.2751 90.1376 28.6554 93.3948 30.3947C96.652 32.1341 99.2699 33.5755 99.2496 33.6163Z" fill="#C4C4C4"/>
<path d="M105.535 40.5481C105.515 40.5863 101.119 38.2739 95.7176 35.386C90.3162 32.4981 85.9563 30.1246 85.9766 30.0864C85.997 30.0482 90.39 32.358 95.7915 35.2485C101.193 38.139 105.555 40.5099 105.535 40.5481Z" fill="#C4C4C4"/>
<path d="M103.988 43.4348C103.968 43.473 99.5722 41.1632 94.1708 38.2727C88.7693 35.3823 84.4094 33.0113 84.4298 32.9731C84.4501 32.9349 88.8431 35.2473 94.2446 38.1352C99.6461 41.0231 104.009 43.3966 103.988 43.4348Z" fill="#C4C4C4"/>
<path d="M102.449 46.3231C102.429 46.3613 98.0332 44.0515 92.6317 41.1636C87.2302 38.2756 82.8703 35.9098 82.8907 35.8639C82.9111 35.8181 87.3041 38.1356 92.7055 41.0235C98.107 43.9114 102.469 46.2849 102.449 46.3231Z" fill="#C4C4C4"/>
<path d="M100.902 49.2057C100.882 49.2439 96.4863 46.9341 91.0848 44.0462C85.6834 41.1583 81.3209 38.7848 81.3438 38.7466C81.3668 38.7084 85.7572 41.0182 91.1587 43.9061C96.5602 46.794 100.923 49.1675 100.902 49.2057Z" fill="#C4C4C4"/>
<path opacity="0.2" d="M101.04 0H100.383V11.2002H101.04V0Z" fill="#1D1D1D"/>
<path d="M85.375 24.7528H116.052C116.052 24.7528 113.22 11.207 100.482 11.207C89.1517 11.207 85.375 24.7528 85.375 24.7528Z" fill="url(#paint0_linear_1400_22579)"/>
<g filter="url(#filter0_f_1400_22579)">
<path d="M85 25H116C116 25 113.138 35 100.266 35C88.8164 35 85 25 85 25Z" fill="#FFBA00"/>
</g>
<path d="M101.04 0H100.383V11.2002H101.04V0Z" fill="url(#paint1_linear_1400_22579)"/>
<path d="M169.014 112.008C169.014 112.043 136.098 112.074 95.5015 112.074C54.9051 112.074 21.9844 112.051 21.9844 112.008C21.9844 111.964 54.895 111.941 95.5015 111.941C136.108 111.941 169.014 111.969 169.014 112.008Z" fill="#263238"/>
<path d="M30.1235 96.0611C30.5541 96.0922 30.974 96.2097 31.3582 96.4066C31.7423 96.6035 32.0829 96.8757 32.3595 97.2071C32.9095 97.8738 33.299 98.658 33.4979 99.4991C33.9283 101.109 33.6634 103.011 33.205 104.613C31.4631 103.989 30.3858 102.13 29.8943 101.152C29.1303 99.6086 28.6745 96.3489 30.1159 96.0586" fill="url(#paint2_linear_1400_22579)"/>
<path d="M35.7138 106.566C35.4522 106.16 35.3026 105.693 35.2803 105.211C35.2579 104.728 35.3636 104.249 35.5865 103.821C35.8163 103.397 36.1284 103.023 36.5045 102.72C36.8805 102.418 37.313 102.194 37.7766 102.061C38.2019 101.929 38.6959 101.875 39.0652 102.122C39.2317 102.248 39.3613 102.416 39.4406 102.609C39.5199 102.802 39.5459 103.013 39.516 103.22C39.4491 103.633 39.2733 104.022 39.0066 104.345C38.1586 105.494 37.1297 106.449 35.696 106.566" fill="url(#paint3_linear_1400_22579)"/>
<path d="M35.9106 111.951C35.8728 111.843 35.8463 111.731 35.8317 111.617C35.7858 111.378 35.7247 111.07 35.6508 110.701C35.4222 109.689 35.3586 108.648 35.4624 107.617C35.5825 106.58 35.9772 105.595 36.6058 104.762C36.7979 104.513 37.0194 104.288 37.2654 104.092C37.3323 104.039 37.402 103.99 37.4743 103.944C37.4972 103.925 37.523 103.91 37.5507 103.898C37.2285 104.174 36.9342 104.48 36.6721 104.813C36.0766 105.646 35.7016 106.617 35.5821 107.634C35.4191 108.821 35.6203 109.909 35.7374 110.69C35.7985 111.08 35.8495 111.396 35.8775 111.615C35.8976 111.726 35.9086 111.838 35.9106 111.951Z" fill="#263238"/>
<path d="M30.6875 98.5156C30.7166 98.5558 30.7405 98.5994 30.7588 98.6455C30.8046 98.7474 30.8658 98.8747 30.9371 99.0351C31.0924 99.3739 31.3089 99.8654 31.5712 100.474C32.0958 101.694 32.7987 103.39 33.5321 105.28C34.2656 107.169 34.8895 108.893 35.3148 110.149C35.5338 110.775 35.7044 111.285 35.8241 111.639C35.8776 111.807 35.9184 111.942 35.9515 112.046C35.9696 112.093 35.9824 112.142 35.9897 112.191C35.9638 112.148 35.9433 112.102 35.9285 112.054C35.8903 111.952 35.842 111.819 35.7783 111.654L35.2409 110.177C34.7851 108.931 34.1484 107.21 33.4175 105.323C32.6866 103.436 31.9939 101.735 31.4897 100.507C31.235 99.9036 31.0389 99.4121 30.8938 99.053C30.8276 98.89 30.7741 98.7601 30.7333 98.6557C30.7142 98.6104 30.6989 98.5635 30.6875 98.5156Z" fill="#263238"/>
<path d="M33.8374 108.385C33.3133 107.513 32.5892 106.778 31.7248 106.241C30.8604 105.703 29.8805 105.38 28.8663 105.296C28.3569 105.261 27.7304 105.347 27.5012 105.806C27.272 106.264 27.5776 106.824 27.9291 107.196C28.6758 107.977 29.637 108.52 30.6916 108.755C31.7462 108.991 32.847 108.909 33.8552 108.52" fill="url(#paint4_linear_1400_22579)"/>
<path d="M29.6484 106.674C29.7564 106.669 29.8647 106.673 29.9719 106.687C30.0974 106.694 30.2224 106.708 30.3462 106.73C30.4914 106.758 30.662 106.773 30.8403 106.824C31.0396 106.867 31.236 106.921 31.4286 106.987C31.6516 107.059 31.8702 107.144 32.0831 107.242C32.5726 107.461 33.0357 107.736 33.4634 108.059C33.8861 108.391 34.2689 108.771 34.6043 109.19C34.7491 109.373 34.8826 109.564 35.0041 109.763C35.1139 109.935 35.2142 110.113 35.3046 110.295C35.3811 110.444 35.4491 110.597 35.5083 110.754C35.5594 110.87 35.6028 110.989 35.6382 111.11C35.6759 111.212 35.7041 111.317 35.7222 111.424C35.6942 111.424 35.572 110.986 35.2282 110.334C35.1346 110.159 35.0317 109.989 34.92 109.824C34.7959 109.631 34.6616 109.445 34.5177 109.267C33.8516 108.444 33.0021 107.788 32.0372 107.352C31.8157 107.255 31.6043 107.163 31.398 107.097C31.2086 107.028 31.0156 106.969 30.8199 106.921C30.1068 106.725 29.6459 106.702 29.6484 106.674Z" fill="#263238"/>
<path d="M145.253 26.8578C144.504 27.0285 144.14 27.8918 144.069 28.6558C143.997 29.4198 144.094 30.2296 143.773 30.9274C143.412 31.7118 142.548 32.2924 142.52 33.1557C142.502 33.6829 142.816 34.1744 142.8 34.7067C142.775 35.5725 141.894 36.2347 141.845 37.0903C141.812 37.7143 142.227 38.3102 142.128 38.9265C142.052 39.4053 141.677 39.7822 141.519 40.2406C141.206 41.1574 141.835 42.1633 142.653 42.6777C143.111 42.9657 143.626 43.1501 144.163 43.2182C144.699 43.2863 145.244 43.2364 145.76 43.072C146.275 42.9075 146.748 42.6325 147.146 42.2662C147.545 41.8999 147.858 41.4511 148.064 40.9511C148.518 39.8509 148.418 38.6107 148.319 37.4265C148.013 33.7321 147.786 30.0327 147.637 26.3281" fill="#263238"/>
<path d="M143.078 39.8943C143.232 39.7986 143.352 39.657 143.422 39.4894C143.495 39.2901 143.525 39.0773 143.509 38.8655C143.481 38.5847 143.418 38.3084 143.323 38.0429C143.201 37.7092 143.156 37.3523 143.19 36.9988C143.254 36.6015 143.539 36.2755 143.796 35.9546C143.935 35.7976 144.051 35.6219 144.14 35.4326C144.23 35.2412 144.244 35.023 144.181 34.8214C144.048 34.4063 143.641 34.1007 143.455 33.6193C143.368 33.3811 143.353 33.1221 143.414 32.8757C143.472 32.6447 143.558 32.4215 143.669 32.211C143.884 31.832 144.055 31.4295 144.178 31.0116C144.357 30.2043 144.273 29.4326 144.395 28.7985C144.463 28.2906 144.688 27.8168 145.039 27.4437C145.138 27.3432 145.252 27.2574 145.375 27.189C145.418 27.1668 145.463 27.1505 145.51 27.1406C145.351 27.2285 145.204 27.3382 145.075 27.4666C144.749 27.8435 144.544 28.3092 144.486 28.8036C144.442 29.1414 144.418 29.4816 144.415 29.8223C144.414 30.2232 144.375 30.6232 144.298 31.0167C144.176 31.4442 144.006 31.8562 143.789 32.2441C143.598 32.644 143.422 33.1126 143.59 33.5506C143.758 33.9886 144.163 34.2917 144.318 34.7603C144.388 34.9917 144.371 35.2409 144.27 35.4606C144.171 35.6689 144.042 35.8619 143.888 36.0336C143.633 36.3545 143.356 36.6601 143.295 37.0166C143.259 37.3548 143.299 37.6966 143.412 38.0174C143.503 38.2912 143.559 38.5752 143.58 38.8629C143.592 39.0845 143.553 39.306 143.465 39.5098C143.41 39.6375 143.323 39.7483 143.211 39.8307C143.171 39.8598 143.126 39.8814 143.078 39.8943Z" fill="#455A64"/>
<path d="M141.086 45.9297L138.794 52.551L129.209 53.0604L127.609 56.6257L137.618 57.6444C138.091 57.8385 138.598 57.9347 139.109 57.9273C139.62 57.9199 140.124 57.8089 140.591 57.6011C141.058 57.3933 141.478 57.093 141.826 56.7183C142.174 56.3436 142.442 55.9023 142.614 55.4211L145.286 47.9645L141.086 45.9297Z" fill="#FFD5C5"/>
<path d="M160.901 108.408C160.901 108.408 153.878 86.0942 153.727 85.3709C153.592 84.7139 156.274 68.6572 156.615 64.4883L147.124 64.8423V64.9365L143.09 65.1606L146.701 110.776H151.069L150.636 95.6366C153.33 102.867 157.191 110.237 157.191 110.237L160.901 108.408Z" fill="#FFD5C5"/>
<path d="M150.814 101.073C150.814 100.936 150.761 96.0002 150.761 96.0002C150.707 96.2956 149.087 91.7167 149.126 91.4391C149.146 91.2939 150.814 101.073 150.814 101.073Z" fill="#EAEAEA"/>
<path d="M148.941 89.2698C148.918 89.3605 148.909 89.454 148.913 89.5474C148.899 89.8018 148.899 90.0569 148.913 90.3114C148.913 90.4718 148.936 90.645 148.956 90.8334C148.977 91.0219 149.005 91.2205 149.048 91.4268C149.138 91.8773 149.258 92.3213 149.407 92.7562C149.723 93.6806 150.074 94.4879 150.321 95.0736C150.438 95.3283 150.54 95.5702 150.627 95.7638C150.658 95.8538 150.701 95.9394 150.754 96.0184C150.741 95.9304 150.715 95.8447 150.678 95.7638C150.619 95.5957 150.53 95.3538 150.423 95.0558C150.199 94.4599 149.863 93.6449 149.55 92.7307C149.401 92.3023 149.28 91.8651 149.185 91.4217C149.14 91.218 149.109 91.0219 149.081 90.8385C149.053 90.6552 149.033 90.482 149.02 90.3292C148.989 90.0134 148.977 89.7587 148.969 89.5805C148.974 89.4761 148.964 89.3716 148.941 89.2698Z" fill="#EAEAEA"/>
<path d="M146.617 111.012V110.602L151.092 110.406L151.105 112.1L150.83 112.118C149.599 112.189 144.577 112.398 143.757 112.151C142.838 111.876 146.617 111.012 146.617 111.012Z" fill="#455A64"/>
<path d="M151.163 111.996C151.137 111.998 151.112 111.998 151.086 111.996L150.867 112.011L150.058 112.047C149.375 112.075 148.43 112.101 147.389 112.106C146.347 112.111 145.4 112.093 144.715 112.072L143.907 112.039H143.686H143.609C143.635 112.037 143.66 112.037 143.686 112.039H143.907L144.717 112.055C145.4 112.055 146.344 112.075 147.386 112.07C148.428 112.065 149.375 112.047 150.058 112.029L150.867 112.009H151.163V111.996Z" fill="#263238"/>
<path d="M145.157 112.138C145.12 112.005 145.069 111.876 145.004 111.753C144.924 111.641 144.83 111.537 144.727 111.445C144.866 111.495 144.981 111.595 145.05 111.725C145.134 111.846 145.172 111.992 145.157 112.138Z" fill="#263238"/>
<path d="M146.479 111.471C146.479 111.471 146.405 111.403 146.339 111.301C146.273 111.199 146.232 111.11 146.245 111.102C146.257 111.094 146.318 111.168 146.385 111.27C146.451 111.372 146.492 111.464 146.479 111.471Z" fill="#263238"/>
<path d="M146.84 111.288C146.84 111.3 146.758 111.252 146.682 111.183C146.606 111.114 146.55 111.051 146.56 111.04C146.57 111.03 146.641 111.076 146.718 111.145C146.794 111.214 146.85 111.265 146.84 111.288Z" fill="#263238"/>
<path d="M147.068 110.856C146.993 110.883 146.913 110.894 146.833 110.886C146.755 110.897 146.676 110.889 146.602 110.863C146.676 110.836 146.755 110.826 146.833 110.833C146.912 110.822 146.992 110.83 147.068 110.856Z" fill="#263238"/>
<path d="M147.142 110.559C147.066 110.608 146.978 110.635 146.887 110.635C146.801 110.647 146.713 110.634 146.633 110.6C146.717 110.585 146.802 110.579 146.887 110.579C146.972 110.564 147.057 110.557 147.142 110.559Z" fill="#263238"/>
<path d="M146.329 111.082C146.234 111.1 146.136 111.1 146.041 111.082C145.938 111.069 145.837 111.047 145.738 111.016C145.677 110.999 145.618 110.975 145.562 110.944C145.528 110.924 145.503 110.893 145.491 110.855C145.486 110.834 145.488 110.812 145.496 110.791C145.503 110.771 145.517 110.753 145.534 110.74C145.605 110.706 145.682 110.688 145.76 110.688C145.839 110.687 145.916 110.704 145.987 110.736C146.059 110.769 146.121 110.818 146.172 110.878C146.222 110.938 146.258 111.008 146.278 111.084C146.283 111.109 146.283 111.135 146.278 111.161C146.249 111.069 146.204 110.982 146.145 110.906C146.078 110.83 145.989 110.775 145.891 110.748C145.778 110.712 145.656 110.721 145.549 110.774C145.506 110.807 145.524 110.86 145.572 110.891C145.624 110.919 145.679 110.942 145.735 110.959C145.831 110.991 145.929 111.016 146.028 111.033C146.219 111.074 146.329 111.074 146.329 111.082Z" fill="#263238"/>
<path d="M146.252 111.094C146.215 111.035 146.202 110.964 146.217 110.896C146.226 110.821 146.253 110.749 146.296 110.687C146.319 110.644 146.354 110.608 146.395 110.583C146.436 110.557 146.484 110.542 146.532 110.539C146.561 110.546 146.586 110.563 146.603 110.588C146.62 110.612 146.626 110.642 146.622 110.671C146.615 110.717 146.599 110.761 146.573 110.799C146.534 110.862 146.489 110.921 146.438 110.975C146.394 111.025 146.338 111.065 146.275 111.089C146.275 111.089 146.331 111.038 146.41 110.947C146.456 110.894 146.496 110.837 146.53 110.776C146.568 110.715 146.596 110.605 146.53 110.593C146.464 110.58 146.387 110.659 146.344 110.715C146.303 110.77 146.276 110.833 146.262 110.901C146.252 110.965 146.249 111.03 146.252 111.094Z" fill="#263238"/>
<path d="M151.071 110.777C151.071 110.777 150.943 110.777 150.742 110.789C150.48 110.821 150.232 110.925 150.026 111.09C149.821 111.255 149.665 111.475 149.578 111.724C149.512 111.915 149.507 112.045 149.497 112.042C149.487 112.04 149.497 112.009 149.497 111.953C149.503 111.871 149.519 111.79 149.543 111.711C149.624 111.451 149.779 111.219 149.991 111.047C150.205 110.877 150.465 110.775 150.737 110.754C150.822 110.744 150.907 110.744 150.992 110.754C151.019 110.758 151.045 110.766 151.071 110.777Z" fill="#263238"/>
<path d="M148.926 111.638C148.713 111.688 148.494 111.709 148.274 111.702C148.056 111.713 147.838 111.694 147.625 111.646C147.625 111.63 147.915 111.646 148.274 111.646C148.633 111.646 148.924 111.623 148.926 111.638Z" fill="#263238"/>
<path d="M149.799 111.635C149.799 111.635 149.776 111.696 149.746 111.762C149.715 111.829 149.7 111.89 149.685 111.887C149.669 111.885 149.662 111.818 149.697 111.739C149.733 111.66 149.789 111.622 149.799 111.635Z" fill="#263238"/>
<path d="M150.128 111.222C150.128 111.222 150.11 111.278 150.064 111.324C150.019 111.37 149.973 111.4 149.96 111.39C149.947 111.38 149.978 111.334 150.024 111.285C150.069 111.237 150.115 111.209 150.128 111.222Z" fill="#263238"/>
<path d="M150.598 111.033C150.598 111.048 150.537 111.048 150.471 111.071C150.405 111.094 150.359 111.13 150.346 111.12C150.333 111.109 150.372 111.048 150.453 111.02C150.535 110.992 150.603 111.018 150.598 111.033Z" fill="#263238"/>
<path d="M150.93 110.939C150.93 110.955 150.912 110.977 150.874 110.99C150.836 111.003 150.803 111.005 150.798 110.99C150.792 110.975 150.818 110.952 150.854 110.939C150.889 110.927 150.925 110.927 150.93 110.939Z" fill="#263238"/>
<path d="M157.102 110.614L156.934 110.24L160.934 108.23L161.64 109.758L161.385 109.888C160.293 110.456 155.798 112.702 154.947 112.814C154.007 112.949 157.102 110.614 157.102 110.614Z" fill="#455A64"/>
<path d="M161.652 109.652L161.586 109.693L161.39 109.795L160.666 110.162C160.055 110.465 159.205 110.875 158.255 111.308C157.305 111.741 156.434 112.11 155.802 112.372L155.051 112.675L154.847 112.754C154.824 112.765 154.799 112.773 154.773 112.777L154.842 112.744L155.043 112.655L155.787 112.337C156.416 112.067 157.282 111.69 158.232 111.257C159.182 110.824 160.035 110.421 160.651 110.126L161.379 109.777L161.581 109.683L161.652 109.652Z" fill="#263238"/>
<path d="M156.24 112.24C156.152 112.132 156.052 112.035 155.942 111.949C155.823 111.879 155.695 111.822 155.562 111.781C155.709 111.779 155.852 111.822 155.973 111.904C156.094 111.986 156.187 112.103 156.24 112.24Z" fill="#263238"/>
<path d="M157.164 111.089C157.164 111.089 157.067 111.059 156.965 110.992C156.864 110.926 156.79 110.863 156.797 110.85C156.805 110.837 156.894 110.88 156.996 110.947C157.098 111.013 157.172 111.077 157.164 111.089Z" fill="#263238"/>
<path d="M157.411 110.78C157.411 110.793 157.325 110.78 157.225 110.75C157.126 110.719 157.052 110.681 157.055 110.666C157.119 110.66 157.184 110.67 157.243 110.696C157.34 110.719 157.416 110.755 157.411 110.78Z" fill="#263238"/>
<path d="M157.446 110.289C157.446 110.304 157.362 110.358 157.245 110.414C157.177 110.454 157.102 110.48 157.023 110.488C157.023 110.472 157.107 110.419 157.222 110.363C157.291 110.323 157.367 110.297 157.446 110.289Z" fill="#263238"/>
<path d="M157.395 109.986C157.395 109.986 157.321 110.088 157.188 110.162C157.113 110.213 157.024 110.239 156.934 110.238C157.007 110.189 157.084 110.147 157.165 110.113C157.29 110.044 157.382 109.973 157.395 109.986Z" fill="#263238"/>
<path d="M156.877 110.8C156.799 110.854 156.713 110.893 156.622 110.917C156.522 110.947 156.42 110.968 156.316 110.981C156.254 110.989 156.19 110.989 156.128 110.981C156.088 110.978 156.052 110.96 156.026 110.93C156.014 110.912 156.008 110.891 156.008 110.869C156.008 110.847 156.014 110.826 156.026 110.808C156.103 110.714 156.211 110.65 156.33 110.627C156.45 110.604 156.573 110.623 156.68 110.681C156.744 110.714 156.799 110.76 156.843 110.816C156.874 110.856 156.887 110.882 156.884 110.884C156.821 110.814 156.746 110.756 156.663 110.714C156.573 110.672 156.473 110.656 156.375 110.67C156.316 110.676 156.26 110.694 156.208 110.722C156.157 110.75 156.111 110.788 156.074 110.833C156.046 110.882 156.074 110.922 156.143 110.93C156.202 110.935 156.26 110.935 156.319 110.93C156.42 110.92 156.521 110.902 156.619 110.877C156.764 110.836 156.877 110.793 156.877 110.8Z" fill="#263238"/>
<path d="M156.802 110.842C156.745 110.802 156.705 110.742 156.69 110.674C156.667 110.603 156.662 110.527 156.674 110.453C156.679 110.404 156.696 110.357 156.723 110.316C156.751 110.276 156.788 110.243 156.832 110.221C156.896 110.201 157.044 110.33 157.054 110.379C157.064 110.427 156.98 110.402 156.975 110.442C156.967 110.515 156.95 110.586 156.924 110.654C156.906 110.719 156.87 110.779 156.822 110.827C156.822 110.827 156.853 110.758 156.888 110.644C156.907 110.576 156.919 110.507 156.927 110.437C156.927 110.366 156.927 110.257 156.845 110.274C156.764 110.292 156.741 110.392 156.723 110.463C156.707 110.529 156.707 110.598 156.723 110.664C156.744 110.726 156.77 110.785 156.802 110.842Z" fill="#263238"/>
<path d="M161.07 108.578C161.07 108.578 160.948 108.621 160.775 108.726C160.548 108.861 160.364 109.057 160.242 109.291C160.124 109.528 160.074 109.792 160.097 110.055C160.112 110.259 160.161 110.376 160.151 110.381C160.134 110.356 160.121 110.328 160.112 110.3C160.087 110.222 160.069 110.142 160.059 110.06C160.022 109.789 160.069 109.513 160.194 109.269C160.318 109.026 160.513 108.825 160.754 108.695C160.826 108.655 160.902 108.623 160.981 108.599C161.009 108.587 161.039 108.581 161.07 108.578Z" fill="#263238"/>
<path d="M159.465 110.247C159.106 110.497 158.705 110.679 158.281 110.787C158.281 110.771 158.549 110.67 158.875 110.532C159.201 110.395 159.458 110.234 159.465 110.247Z" fill="#263238"/>
<path d="M160.258 109.883C160.271 109.883 160.258 109.947 160.258 110.021C160.258 110.095 160.258 110.156 160.258 110.161C160.258 110.166 160.207 110.105 160.207 110.021C160.207 109.937 160.245 109.876 160.258 109.883Z" fill="#263238"/>
<path d="M160.387 109.368C160.4 109.368 160.387 109.426 160.372 109.487C160.357 109.548 160.319 109.594 160.306 109.589C160.293 109.584 160.306 109.531 160.321 109.469C160.337 109.408 160.372 109.362 160.387 109.368Z" fill="#263238"/>
<path d="M160.737 108.997C160.737 109.013 160.686 109.035 160.635 109.084C160.584 109.132 160.556 109.183 160.544 109.178C160.531 109.173 160.544 109.102 160.6 109.043C160.656 108.985 160.735 108.997 160.737 108.997Z" fill="#263238"/>
<path d="M161.005 108.784C161.005 108.784 161.005 108.825 160.975 108.853C160.944 108.881 160.916 108.896 160.906 108.886C160.896 108.876 160.906 108.846 160.937 108.818C160.967 108.79 160.995 108.774 161.005 108.784Z" fill="#263238"/>
<path d="M155.999 56.9527L155.255 47.8611L159.075 47.9298C159.075 47.9298 159.251 46.5877 158.688 43.6489C158.342 41.8459 157.143 40.7406 155.795 40.0836V40.0581L155.678 40.0275C154.569 39.5296 153.385 39.2206 152.174 39.1133L147.475 39.1668C147.475 39.1668 143.887 38.7084 141.908 41.2779C141.144 42.2635 138.773 49.0096 138.773 49.0096L144.414 51.7244L143.887 47.9833C143.887 47.9833 143.994 50.6955 144.34 51.5487C144.531 52.0274 145.104 53.5147 145.104 53.5147L145.031 58.0019L155.999 56.9527Z" fill="url(#paint5_linear_1400_22579)"/>
<path d="M153.409 46.5431L152.711 49.5125H159.289L158.856 44.5312L153.409 46.5431Z" fill="url(#paint6_linear_1400_22579)"/>
<path d="M159.287 49.5079C159 49.4549 158.709 49.4259 158.416 49.4213C157.876 49.3907 157.143 49.3627 156.308 49.3678C155.472 49.3729 154.736 49.4085 154.197 49.4493C153.904 49.4594 153.614 49.4952 153.328 49.5562C153.62 49.5795 153.913 49.5795 154.204 49.5562C154.742 49.5384 155.478 49.518 156.308 49.5155C157.138 49.513 157.874 49.5155 158.414 49.5282C158.705 49.5446 158.997 49.5377 159.287 49.5079Z" fill="#263238"/>
<path d="M153.124 44.5078C153.092 44.7612 153.086 45.0171 153.103 45.2718C153.103 45.7379 153.124 46.3796 153.152 47.0901C153.18 47.8007 153.213 48.445 153.243 48.9085C153.245 49.1652 153.272 49.4212 153.325 49.6725C153.356 49.419 153.363 49.1632 153.345 48.9085C153.345 48.4424 153.325 47.7981 153.297 47.0876C153.269 46.3771 153.236 45.7353 153.205 45.2693C153.204 45.0133 153.177 44.7582 153.124 44.5078Z" fill="#263238"/>
<g opacity="0.3">
<path d="M147.137 47.082C147.137 47.082 148.599 57.9232 152.709 57.6354C152.709 57.6354 154.56 57.615 155.154 56.385V55.9011L147.137 47.082Z" fill="#1D1D1D"/>
</g>
<g opacity="0.3">
<path d="M153.123 45.1484L152.336 50.4633L152.845 51.3954L153.686 49.572L153.329 49.5618L153.123 45.1484Z" fill="#1D1D1D"/>
</g>
<path d="M145.082 53.5192C145.033 53.4398 144.996 53.3541 144.97 53.2645C144.906 53.099 144.822 52.857 144.715 52.554C144.46 51.7643 144.25 50.9608 144.086 50.1474C143.923 49.3335 143.819 48.5087 143.776 47.6797C143.76 47.3613 143.755 47.1041 143.76 46.9157C143.754 46.8236 143.76 46.7311 143.778 46.6406C143.799 46.6406 143.814 47.0328 143.867 47.6593C143.939 48.4808 144.055 49.2978 144.216 50.1066C144.405 51.054 144.631 51.902 144.805 52.5107C144.886 52.7934 144.955 53.0353 145.011 53.2339C145.046 53.3259 145.07 53.4216 145.082 53.5192Z" fill="#263238"/>
<path d="M146.742 56.636C146.707 56.636 146.605 56.4144 146.516 56.1267C146.439 55.9503 146.405 55.7584 146.416 55.5664C146.529 55.722 146.606 55.9001 146.643 56.0885C146.716 56.2614 146.75 56.4484 146.742 56.636Z" fill="#263238"/>
<path d="M147.307 56.593C147.114 56.0822 147.106 55.5201 147.284 55.0039C147.304 55.2684 147.304 55.534 147.284 55.7985C147.312 56.0624 147.319 56.328 147.307 56.593Z" fill="#263238"/>
<path d="M144.527 51.8472C144.509 51.8778 143.197 51.2564 141.595 50.4567C139.994 49.6571 138.708 48.9797 138.723 48.9466C138.738 48.9135 140.052 49.5374 141.654 50.337C143.256 51.1367 144.542 51.8141 144.527 51.8472Z" fill="#263238"/>
<path d="M146.839 40.0442C146.867 38.7556 146.875 37.4008 146.875 37.4008C146.875 37.4008 145.222 37.0824 144.934 34.9076C144.659 32.8346 145.428 27.9679 145.428 27.9679C147.843 27.0562 150.351 27.8839 152.004 29.8397L151.594 40.2989C151.546 41.5136 150.463 42.4406 149.164 42.3795C147.85 42.3158 146.811 41.2717 146.839 40.0442Z" fill="#FFD5C5"/>
<path d="M145.301 31.8566C145.299 31.928 145.324 31.9975 145.371 32.051C145.418 32.1045 145.484 32.1379 145.556 32.1443C145.592 32.1478 145.628 32.1439 145.663 32.1329C145.697 32.1218 145.729 32.1038 145.757 32.08C145.784 32.0561 145.806 32.027 145.822 31.9943C145.838 31.9615 145.847 31.926 145.848 31.8897C145.851 31.8185 145.825 31.7493 145.778 31.6962C145.731 31.6431 145.665 31.6103 145.594 31.6044C145.558 31.5989 145.52 31.6013 145.485 31.6115C145.45 31.6216 145.417 31.6393 145.389 31.6632C145.362 31.6872 145.339 31.7168 145.324 31.7502C145.309 31.7836 145.301 31.8199 145.301 31.8566Z" fill="#263238"/>
<path d="M145.2 31.4929C145.233 31.5286 145.455 31.3784 145.747 31.3885C146.04 31.3987 146.257 31.5515 146.292 31.5159C146.328 31.4802 146.277 31.4344 146.183 31.3605C146.055 31.2681 145.902 31.2174 145.745 31.2154C145.59 31.2094 145.437 31.2541 145.309 31.3427C145.215 31.4115 145.182 31.4751 145.2 31.4929Z" fill="#263238"/>
<path d="M148.336 32.0441C148.333 32.1156 148.358 32.1855 148.406 32.2391C148.453 32.2928 148.519 32.326 148.591 32.3318C148.627 32.3374 148.665 32.3349 148.7 32.3246C148.736 32.3143 148.768 32.2965 148.796 32.2722C148.824 32.248 148.846 32.218 148.861 32.1843C148.877 32.1507 148.884 32.1141 148.884 32.0772C148.887 32.0059 148.862 31.9363 148.814 31.8831C148.767 31.8298 148.7 31.7972 148.629 31.7919C148.593 31.7864 148.556 31.7888 148.52 31.799C148.485 31.8091 148.452 31.8268 148.425 31.8507C148.397 31.8747 148.375 31.9043 148.359 31.9377C148.344 31.9711 148.336 32.0074 148.336 32.0441Z" fill="#263238"/>
<path d="M148.316 31.6803C148.349 31.7185 148.571 31.5682 148.864 31.5758C149.156 31.5835 149.373 31.7388 149.411 31.7032C149.449 31.6675 149.393 31.6217 149.299 31.5504C149.174 31.4556 149.021 31.4038 148.864 31.4027C148.708 31.398 148.555 31.4426 148.426 31.53C148.334 31.5988 148.301 31.6624 148.316 31.6803Z" fill="#263238"/>
<path d="M147.174 33.8684C147.017 33.8146 146.855 33.7812 146.69 33.769C146.613 33.769 146.542 33.741 146.532 33.6901C146.526 33.6105 146.545 33.531 146.588 33.4634L146.827 32.8904C147.05 32.4034 147.233 31.8993 147.375 31.3828C147.114 31.8507 146.891 32.3387 146.708 32.8421C146.629 33.0432 146.55 33.2368 146.476 33.4201C146.427 33.5111 146.41 33.6165 146.43 33.7181C146.44 33.7457 146.456 33.7706 146.478 33.791C146.499 33.8113 146.524 33.8264 146.552 33.8353C146.595 33.8475 146.638 33.8543 146.682 33.8556C146.845 33.8807 147.01 33.8849 147.174 33.8684Z" fill="#263238"/>
<path d="M146.875 37.3996C147.894 37.4403 148.904 37.1979 149.793 36.6992C149.793 36.6992 149.052 38.1686 146.89 37.9114L146.875 37.3996Z" fill="#EAEAEA"/>
<path d="M149.272 30.8123C149.21 30.9066 148.981 30.8658 148.727 30.8123C148.472 30.7588 148.248 30.7156 148.217 30.606C148.187 30.4965 148.454 30.3514 148.795 30.4201C149.137 30.4889 149.333 30.7308 149.272 30.8123Z" fill="#263238"/>
<path d="M146.298 30.3799C146.275 30.4894 146.031 30.5302 145.751 30.5429C145.471 30.5557 145.224 30.5429 145.191 30.4309C145.157 30.3188 145.394 30.1609 145.733 30.1456C146.072 30.1304 146.321 30.2755 146.298 30.3799Z" fill="#263238"/>
<path d="M147.179 34.5842C147.147 34.5765 147.113 34.5799 147.083 34.5938C147.053 34.6076 147.029 34.6311 147.014 34.6606C146.999 34.6865 146.992 34.7158 146.992 34.7456C146.993 34.7753 147.001 34.8045 147.016 34.8301C147.031 34.8558 147.052 34.877 147.078 34.8918C147.104 34.9066 147.133 34.9144 147.163 34.9144C147.193 34.9144 147.222 34.9066 147.248 34.8918C147.273 34.877 147.295 34.8558 147.31 34.8301C147.325 34.8045 147.333 34.7753 147.333 34.7456C147.334 34.7158 147.326 34.6865 147.312 34.6606C147.294 34.6263 147.264 34.5994 147.228 34.5841C147.193 34.5688 147.153 34.5662 147.116 34.5765" fill="#EAEAEA"/>
<path d="M147.249 34.6156C147.249 34.6029 147.201 34.5291 147.071 34.5571C147.032 34.5672 146.997 34.5874 146.968 34.6155C146.939 34.6437 146.919 34.6788 146.908 34.7175C146.894 34.7663 146.895 34.818 146.911 34.8661C146.927 34.9142 146.957 34.9564 146.997 34.9875C147.039 35.0165 147.09 35.032 147.141 35.032C147.192 35.032 147.242 35.0165 147.285 34.9875C147.319 34.9646 147.345 34.9326 147.362 34.8952C147.378 34.8577 147.383 34.8164 147.376 34.7761C147.351 34.6411 147.252 34.6207 147.247 34.6386C147.241 34.6564 147.282 34.7022 147.275 34.7812C147.273 34.8007 147.266 34.8195 147.256 34.8359C147.245 34.8523 147.231 34.8659 147.213 34.8754C147.194 34.8868 147.171 34.8928 147.149 34.8928C147.126 34.8928 147.103 34.8868 147.084 34.8754C147.066 34.8603 147.052 34.8409 147.044 34.819C147.036 34.7972 147.034 34.7736 147.038 34.7506C147.041 34.7305 147.048 34.7114 147.06 34.695C147.072 34.6786 147.088 34.6653 147.107 34.6564C147.178 34.6131 147.242 34.6335 147.249 34.6156Z" fill="#263238"/>
<path d="M151.016 32.3962C150.761 32.9921 150.13 33.453 150.216 34.0973C150.272 34.5124 150.54 34.8995 150.489 35.3172C150.423 35.8265 149.88 36.2034 149.801 36.7255C149.707 37.3647 150.331 37.8613 150.578 38.4572C150.942 39.3282 150.479 40.3061 150.466 41.2585C150.481 41.9817 150.758 42.6748 151.245 43.2096C151.731 43.7444 152.396 44.0844 153.114 44.1668C153.695 44.2152 154.35 44.0395 154.642 43.5404C154.897 43.1278 154.841 42.6032 154.989 42.1473C155.213 41.4648 155.862 40.9657 156.007 40.2628C156.262 38.9895 154.709 37.9199 154.81 36.616C154.854 36.0583 155.198 35.5744 155.343 35.0345C155.435 34.6797 155.442 34.308 155.363 33.9499C155.285 33.5918 155.122 33.2575 154.889 32.9742C154.505 32.5184 153.95 32.2102 153.616 31.7213C153.247 31.1585 153.234 30.4479 153.107 29.7833C152.936 28.9754 152.563 28.224 152.023 27.5994C151.482 26.9748 150.793 26.4974 150.018 26.2117C149.243 25.926 148.408 25.8415 147.592 25.9659C146.776 26.0904 146.004 26.4198 145.35 26.9234C145.35 26.9234 144.98 28.6016 146.704 28.8843C148.429 29.167 149.226 28.841 149.419 29.5312C149.374 29.8155 149.396 30.1065 149.484 30.3805C149.573 30.6545 149.725 30.9037 149.929 31.1075C150.631 31.8664 151.301 31.7035 151.016 32.3962Z" fill="#263238"/>
<path d="M153.753 44.039C153.7 44.0408 153.647 44.0356 153.595 44.0237C153.446 43.9972 153.299 43.9571 153.157 43.904C152.631 43.7024 152.17 43.3617 151.823 42.9184C151.579 42.6125 151.388 42.2683 151.258 41.8998C151.109 41.48 151.03 41.0386 151.026 40.5933C151.02 40.1025 151.082 39.6133 151.209 39.1392C151.279 38.8888 151.364 38.643 151.464 38.4032C151.569 38.1645 151.662 37.9206 151.741 37.6723C151.811 37.4276 151.811 37.1682 151.741 36.9236C151.667 36.6827 151.571 36.4492 151.454 36.2258C151.336 36.0043 151.236 35.7735 151.156 35.5356C151.077 35.3003 151.059 35.049 151.102 34.8048C151.204 34.326 151.494 33.9694 151.668 33.6053C151.832 33.2682 151.911 32.8954 151.897 32.5204C151.874 31.9716 151.674 31.4448 151.329 31.0179C151.195 30.8683 151.051 30.7279 150.898 30.5977C151.077 30.698 151.237 30.829 151.37 30.9848C151.74 31.411 151.959 31.9486 151.991 32.5128C152.012 32.9041 151.935 33.2945 151.767 33.6486C151.591 34.0255 151.308 34.3845 151.222 34.8226C151.135 35.2606 151.342 35.7215 151.568 36.1647C151.692 36.3944 151.792 36.6358 151.869 36.8854C151.944 37.1518 151.944 37.4339 151.869 37.7003C151.784 37.9572 151.686 38.2097 151.576 38.4567C151.476 38.6912 151.391 38.932 151.321 39.1774C151.195 39.6395 151.132 40.1168 151.135 40.5959C151.127 41.4118 151.391 42.2073 151.884 42.8573C152.214 43.2951 152.653 43.6385 153.157 43.8531C153.537 44.0008 153.756 44.0237 153.753 44.039Z" fill="#455A64"/>
<path d="M153.501 31.1898C153.376 31.222 153.249 31.2408 153.121 31.2459C152.772 31.2832 152.419 31.2738 152.072 31.2178C151.809 31.1789 151.556 31.0879 151.329 30.9502C151.102 30.8124 150.904 30.6307 150.748 30.4156C150.602 30.1436 150.486 29.8567 150.401 29.56C150.293 29.2636 150.088 29.0118 149.821 28.8444C149.263 28.4904 148.608 28.4471 148.038 28.3783C147.512 28.3521 147.001 28.1926 146.553 27.9148C146.253 27.7162 146.037 27.4144 145.945 27.0668C145.922 26.9726 145.916 26.8752 145.927 26.779C145.927 26.7128 145.942 26.6797 145.947 26.6797C145.95 26.8058 145.966 26.9313 145.996 27.054C146.101 27.3791 146.317 27.6567 146.607 27.8384C147.046 28.0948 147.542 28.2383 148.051 28.2561C148.621 28.3223 149.299 28.3554 149.895 28.7323C150.186 28.9154 150.408 29.1905 150.526 29.5141C150.606 29.8034 150.716 30.0833 150.855 30.3494C151.151 30.7563 151.596 31.0307 152.092 31.1134C152.428 31.1758 152.77 31.1989 153.111 31.1822C153.241 31.1749 153.371 31.1774 153.501 31.1898Z" fill="#455A64"/>
<path d="M152.87 29.1123C152.774 29.1444 152.673 29.1591 152.572 29.1556C152.098 29.1588 151.641 28.976 151.299 28.6463C151.143 28.4901 151.01 28.3126 150.904 28.1191C150.675 27.732 150.453 27.2558 149.977 27.0572C149.518 26.9032 149.03 26.8605 148.551 26.9324C148.147 26.9891 147.738 26.9891 147.334 26.9324C147.053 26.8934 146.788 26.777 146.57 26.5962C146.513 26.547 146.464 26.4905 146.422 26.4281C146.392 26.384 146.379 26.3611 146.384 26.3594C146.384 26.3594 146.455 26.4409 146.603 26.5555C146.821 26.7103 147.074 26.8084 147.339 26.8407C147.735 26.8854 148.136 26.8786 148.531 26.8203C149.03 26.7387 149.542 26.7825 150.021 26.9477C150.266 27.0582 150.477 27.2344 150.629 27.457C150.763 27.6555 150.887 27.8613 150.998 28.0733C151.099 28.2584 151.223 28.4296 151.368 28.5826C151.496 28.712 151.642 28.8211 151.803 28.906C152.04 29.0297 152.3 29.1018 152.567 29.1174C152.763 29.1149 152.868 29.0996 152.87 29.1123Z" fill="#455A64"/>
<path d="M154.513 43.4856C154.5 43.4856 154.582 43.3175 154.676 43.0017C154.803 42.5584 154.86 42.0977 154.844 41.6367C154.825 40.9543 154.639 40.2869 154.301 39.6936C154.116 39.36 153.833 39.062 153.601 38.6953C153.478 38.5085 153.392 38.3003 153.346 38.0815C153.306 37.8513 153.326 37.6146 153.402 37.3939C153.545 36.9534 153.8 36.5841 153.856 36.1792C153.912 35.7743 153.718 35.4152 153.525 35.0765C153.425 34.9117 153.334 34.7416 153.252 34.5671C153.178 34.3979 153.129 34.2185 153.107 34.0349C153.083 33.7113 153.093 33.3861 153.138 33.0646C153.219 32.6102 153.177 32.1423 153.015 31.7098C152.943 31.5583 152.841 31.4231 152.715 31.3125C152.715 31.3125 152.728 31.3125 152.745 31.3278C152.776 31.3428 152.803 31.3625 152.827 31.3864C152.927 31.4693 153.007 31.5727 153.064 31.6894C153.248 32.1256 153.305 32.6049 153.229 33.0722C153.194 33.3877 153.19 33.7059 153.217 34.0222C153.279 34.378 153.42 34.7154 153.629 35.0103C153.738 35.1824 153.831 35.3639 153.907 35.5527C153.987 35.7565 154.013 35.9775 153.983 36.1945C153.922 36.6401 153.66 37.017 153.527 37.4321C153.458 37.6324 153.439 37.8469 153.474 38.0561C153.518 38.2584 153.599 38.4509 153.713 38.624C153.93 38.978 154.222 39.281 154.408 39.6299C154.75 40.2433 154.932 40.9323 154.938 41.6341C154.946 42.1039 154.874 42.5716 154.724 43.017C154.683 43.1375 154.634 43.255 154.576 43.3684C154.561 43.4103 154.539 43.4498 154.513 43.4856Z" fill="#455A64"/>
<path d="M144.139 90.9388C144.139 90.9388 142.422 74.6809 142.323 68.6733C142.224 62.6657 145.025 56.7371 145.025 56.7371L155.996 56.2812C155.996 56.2812 158.166 62.3754 158.204 64.9399C158.28 69.9161 156.882 74.8286 157.043 78.776L157.409 90.949" fill="#263238"/>
<path d="M157.777 70.9492C157.72 70.9989 157.66 71.0449 157.596 71.0867L157.497 71.1555L157.39 71.2599C157.296 71.3415 157.21 71.4328 157.135 71.5324C156.781 71.9653 156.524 72.7421 156.277 73.7073C156.151 74.2426 155.965 74.762 155.722 75.2556C155.648 75.3908 155.563 75.5195 155.467 75.6402C155.422 75.7013 155.378 75.7675 155.325 75.8261L155.157 75.9942C154.916 76.2191 154.636 76.3986 154.332 76.5239C153.718 76.7938 153.023 76.9211 152.391 77.2395C151.744 77.5876 151.244 78.1572 150.983 78.8439C150.672 79.534 150.473 80.2573 150.219 80.9347C149.964 81.6121 149.62 82.259 149.073 82.6715C148.549 83.0353 147.928 83.2316 147.29 83.2343C146.699 83.27 146.152 83.2522 145.66 83.326C145.218 83.3719 144.795 83.5316 144.433 83.7895C144.168 83.9964 143.97 84.2761 143.862 84.5943C143.794 84.795 143.779 85.01 143.819 85.2182C143.85 85.3608 143.888 85.4296 143.88 85.4321C143.839 85.3682 143.81 85.2975 143.794 85.2233C143.74 85.0108 143.747 84.7876 143.814 84.579C143.915 84.245 144.115 83.9494 144.387 83.7309C144.758 83.4507 145.198 83.2749 145.66 83.2216C146.17 83.1401 146.712 83.1503 147.295 83.1121C147.914 83.108 148.517 82.9162 149.024 82.562C149.539 82.1123 149.919 81.5287 150.122 80.8761C150.377 80.2063 150.563 79.4805 150.886 78.7777C151.16 78.0627 151.683 77.4705 152.358 77.1096C153.015 76.7836 153.71 76.6588 154.309 76.3991C154.602 76.2778 154.871 76.1053 155.103 75.8898L155.264 75.7293C155.315 75.6733 155.358 75.6096 155.404 75.551C155.494 75.4353 155.573 75.3117 155.641 75.1818C155.885 74.695 156.073 74.1825 156.203 73.6538C156.458 72.6911 156.736 71.9042 157.11 71.4687C157.185 71.3695 157.27 71.279 157.365 71.1988C157.405 71.1631 157.441 71.1275 157.477 71.0995L157.581 71.0333C157.645 71.0013 157.71 70.9733 157.777 70.9492Z" fill="#FAFAFA"/>
<path d="M157.846 63.4258C157.858 63.4973 157.863 63.5698 157.861 63.6422C157.861 63.8525 157.835 64.0619 157.785 64.2662C157.566 65.0111 157.135 65.6764 156.545 66.1813C156.155 66.5393 155.728 66.8544 155.271 67.121C154.78 67.4113 154.237 67.6889 153.68 68.0047C153.094 68.3188 152.548 68.7027 152.055 69.1481C151.549 69.6503 151.132 70.2351 150.822 70.8773C150.51 71.5283 150.154 72.1571 149.755 72.7593C149.553 73.04 149.319 73.2963 149.058 73.5233C148.8 73.7424 148.517 73.9296 148.215 74.081C147.668 74.3499 147.097 74.5689 146.511 74.7355C145.966 74.9036 145.457 75.0539 145.013 75.2449C144.611 75.4049 144.229 75.6099 143.873 75.8561C143.605 76.0419 143.364 76.2638 143.157 76.5156C142.984 76.734 142.839 76.9737 142.727 77.2287C142.745 77.1581 142.769 77.0892 142.798 77.0224C142.881 76.8301 142.988 76.6487 143.116 76.4825C143.319 76.22 143.56 75.9884 143.829 75.7949C144.187 75.54 144.572 75.3264 144.978 75.1583C145.468 74.9584 145.969 74.7841 146.478 74.6362C147.056 74.4657 147.618 74.2458 148.159 73.9792C148.445 73.8296 148.714 73.6485 148.961 73.4393C149.212 73.2155 149.438 72.9644 149.633 72.6906C150.026 72.0913 150.379 71.4668 150.69 70.8213C151.009 70.1648 151.44 69.5685 151.963 69.059C152.465 68.607 153.021 68.2186 153.619 67.9028C154.179 67.5896 154.721 67.3171 155.213 67.0293C155.669 66.7716 156.095 66.466 156.486 66.1176C157.071 65.6279 157.506 64.9824 157.739 64.256C157.805 63.9839 157.84 63.7056 157.846 63.4258Z" fill="#FAFAFA"/>
<path d="M142.38 69.5244C142.37 69.5086 142.362 69.4915 142.357 69.4735C142.338 69.4244 142.322 69.3742 142.309 69.3232C142.265 69.1206 142.274 68.9102 142.334 68.712C142.477 68.2027 143.039 67.5482 143.946 67.2248C144.399 67.0694 144.911 66.9701 145.446 66.8377C145.89 66.7641 146.31 66.5854 146.671 66.3165C147.032 66.0476 147.324 65.6963 147.522 65.2918C147.666 64.995 147.793 64.6897 147.901 64.3776C148.1 63.6997 148.371 63.0449 148.708 62.4243C149.095 61.8142 149.682 61.3578 150.369 61.1331C150.993 60.9305 151.631 60.7688 152.276 60.6493C152.852 60.5386 153.41 60.3483 153.934 60.0839C154.378 59.8305 154.76 59.4827 155.055 59.0652C155.49 58.4624 155.737 57.7451 155.768 57.0024C155.769 56.7299 155.751 56.4576 155.714 56.1875C155.791 56.4521 155.826 56.727 155.819 57.0024C155.809 57.7612 155.569 58.4991 155.131 59.1187C154.833 59.55 154.442 59.9093 153.988 60.1705C153.457 60.4448 152.89 60.6428 152.304 60.7588C151.665 60.8802 151.033 61.0427 150.415 61.2452C149.755 61.4611 149.192 61.8996 148.82 62.4854C148.488 63.0976 148.221 63.7429 148.023 64.4107C147.913 64.7285 147.783 65.0389 147.634 65.3402C147.483 65.6297 147.291 65.8956 147.063 66.1297C146.616 66.5376 146.065 66.815 145.472 66.9319C144.932 67.0694 144.422 67.156 143.977 67.3037C143.093 67.6042 142.533 68.223 142.382 68.7171C142.321 68.9076 142.304 69.1099 142.334 69.3079C142.356 69.3786 142.371 69.451 142.38 69.5244Z" fill="#FAFAFA"/>
<path d="M156.902 83.2773C156.912 83.3302 156.918 83.3839 156.92 83.4378C156.925 83.5921 156.908 83.7463 156.871 83.8962C156.711 84.4484 156.373 84.932 155.909 85.2714C155.599 85.5183 155.256 85.7206 154.89 85.8724C154.5 86.0379 154.07 86.1704 153.617 86.3104C153.146 86.4479 152.686 86.6181 152.239 86.8198C151.775 87.0415 151.359 87.3521 151.014 87.734C150.642 88.1211 150.321 88.5464 149.965 88.9233C149.624 89.2884 149.228 89.5977 148.791 89.8401C148.047 90.2457 147.216 90.4626 146.369 90.4717C145.802 90.4778 145.238 90.3838 144.703 90.1941C144.558 90.1441 144.417 90.0837 144.281 90.0133C144.231 89.9927 144.184 89.9662 144.141 89.9343C144.192 89.9484 144.242 89.9663 144.291 89.9878C144.431 90.0476 144.574 90.1003 144.719 90.1457C145.252 90.313 145.81 90.3913 146.369 90.3775C147.197 90.356 148.008 90.135 148.732 89.7331C149.155 89.4934 149.539 89.1903 149.871 88.8342C150.22 88.4624 150.538 88.0396 150.917 87.6423C151.282 87.2461 151.722 86.9259 152.211 86.7001C152.664 86.4976 153.132 86.3274 153.609 86.1907C154.057 86.0532 154.485 85.9361 154.882 85.768C155.238 85.6225 155.572 85.4298 155.876 85.195C156.332 84.8727 156.672 84.4119 156.846 83.8809C156.883 83.6819 156.902 83.4798 156.902 83.2773Z" fill="#FAFAFA"/>
<path d="M155.653 49.5217L153.529 49.5727C153.447 50.0009 153.284 50.4097 153.05 50.7772C151.267 47.6958 149.9 43.5702 149.558 41.9123C149.609 41.7468 149.668 41.5634 149.742 41.3597C149.795 41.0502 149.785 40.7333 149.714 40.4276C149.653 40.0583 149.551 39.5617 149.52 39.3325C149.426 38.6296 149.311 38.5201 149.067 38.5991C148.736 38.7086 149.204 40.5677 148.932 40.6084C148.784 40.6288 148.606 39.9921 148.555 39.47C148.504 38.948 148.265 37.3385 148.094 37.2315C147.839 37.0736 147.618 37.3232 147.684 37.8427C147.75 38.3622 147.829 39.9412 147.554 39.9641C147.279 39.987 147.045 37.3181 147.045 37.3181C147.045 37.3181 147.088 36.7375 146.767 36.7502C146.192 36.7757 146.642 39.5872 146.691 39.8546C146.726 40.038 146.436 40.0736 146.401 39.8724C146.365 39.6712 146.232 37.2061 145.637 37.2264C145.183 37.2264 145.985 39.5414 145.731 40.0762C145.476 40.611 145.303 38.2629 144.873 38.2935C144.712 38.3062 144.592 38.3368 144.888 39.6636C145.171 40.7178 145.511 41.7558 145.906 42.7731C146.589 46.453 149.584 58.2262 154.277 56.0718C156.906 54.8646 157.97 49.5217 157.97 49.5217H155.653Z" fill="#FFD5C5"/>
<path d="M146.6 40.0295C146.62 40.0346 146.641 40.0346 146.661 40.0295C146.692 40.0202 146.718 40.0001 146.736 39.9731C146.753 39.946 146.76 39.9136 146.756 39.8818C146.756 39.7239 146.725 39.4947 146.689 39.1968C146.63 38.8377 146.591 38.4755 146.572 38.1119C146.572 37.898 146.572 37.6688 146.585 37.4269C146.589 37.3038 146.601 37.1813 146.623 37.0601C146.643 36.9455 146.72 36.8055 146.809 36.8284H146.824C146.913 36.8284 146.985 36.8946 147.013 37.0016C147.044 37.1124 147.056 37.2279 147.048 37.3428C147.101 38.056 147.192 38.7659 147.321 39.4693C147.341 39.5635 147.362 39.6603 147.392 39.7571C147.406 39.8066 147.423 39.8551 147.443 39.9022C147.456 39.9284 147.471 39.9539 147.486 39.9786C147.498 39.9972 147.513 40.0129 147.532 40.0244C147.551 40.0359 147.572 40.0429 147.593 40.0448C147.63 40.0407 147.666 40.0257 147.694 40.0017C147.723 39.9777 147.743 39.9457 147.754 39.9099C147.776 39.86 147.792 39.8079 147.802 39.7545C147.822 39.6519 147.836 39.5481 147.843 39.4438C147.866 39.0195 147.86 38.594 147.825 38.1705C147.793 37.959 147.784 37.7446 147.8 37.5313C147.809 37.4391 147.854 37.3542 147.924 37.2944C147.941 37.2847 147.959 37.2786 147.978 37.2764C147.997 37.2742 148.016 37.276 148.034 37.2817C148.056 37.2869 148.076 37.2955 148.095 37.3072C148.108 37.3168 148.118 37.3301 148.123 37.3454C148.203 37.5519 148.262 37.7661 148.299 37.9846C148.345 38.2087 148.383 38.4404 148.419 38.6722C148.454 38.9039 148.487 39.1382 148.515 39.3751C148.537 39.6195 148.576 39.862 148.632 40.1009C148.663 40.223 148.701 40.3429 148.747 40.4599C148.773 40.5254 148.809 40.5864 148.854 40.6407C148.871 40.6633 148.894 40.6806 148.921 40.6905C148.948 40.7004 148.976 40.7026 149.004 40.6968C149.03 40.6883 149.053 40.6732 149.071 40.6532C149.09 40.6331 149.103 40.6086 149.109 40.5822C149.139 40.452 149.148 40.318 149.137 40.1849C149.137 40.0576 149.121 39.9302 149.109 39.808C149.091 39.5941 149.07 39.3827 149.063 39.1739C149.056 39.0713 149.056 38.9683 149.063 38.8657C149.068 38.8203 149.079 38.7758 149.096 38.7333C149.101 38.7193 149.109 38.7064 149.119 38.6951H149.152C149.32 38.6263 149.376 38.8606 149.422 39.0491C149.468 39.2375 149.486 39.4515 149.526 39.6526C149.593 40.0525 149.679 40.4523 149.722 40.8343C149.752 41.0172 149.745 41.2041 149.702 41.3844C149.641 41.5677 149.58 41.7485 149.521 41.9294V41.9472V41.9625C149.82 43.2136 150.2 44.4437 150.66 45.6449C151.062 46.7324 151.467 47.6823 151.821 48.4463C152.175 49.2103 152.496 49.8087 152.715 50.2111L152.969 50.667C152.997 50.7213 153.03 50.7725 153.069 50.8198C153.047 50.7632 153.021 50.7087 152.99 50.6568L152.735 50.1908C152.526 49.7807 152.226 49.1721 151.879 48.4081C151.533 47.6441 151.141 46.6942 150.749 45.6067C150.3 44.4074 149.927 43.1808 149.633 41.9345V41.9701C149.692 41.7918 149.75 41.611 149.812 41.4302C149.865 41.2318 149.875 41.0243 149.842 40.8216C149.796 40.4217 149.712 40.0346 149.646 39.6323C149.608 39.4336 149.582 39.2299 149.542 39.0211C149.539 38.9138 149.521 38.8074 149.488 38.7053C149.459 38.6432 149.41 38.5928 149.348 38.5627C149.283 38.5413 149.212 38.5413 149.147 38.5627H149.106C149.085 38.5696 149.065 38.5808 149.048 38.5958C149.019 38.6198 148.997 38.6504 148.984 38.6849C148.961 38.74 148.946 38.7985 148.941 38.8581C148.933 38.9683 148.933 39.0789 148.941 39.1891C148.941 39.4031 148.971 39.617 148.989 39.8309C148.989 39.9557 149.009 40.0856 149.014 40.2002C149.025 40.315 149.019 40.4308 148.997 40.544C148.997 40.5694 148.976 40.5643 148.997 40.5771L148.981 40.5618C148.949 40.5202 148.923 40.4738 148.905 40.4243C148.86 40.3141 148.824 40.2009 148.795 40.0856C148.74 39.8537 148.701 39.6178 148.681 39.3801C148.654 39.1408 148.621 38.9039 148.581 38.6696C148.546 38.4353 148.505 38.2061 148.459 37.9769C148.421 37.7436 148.356 37.5155 148.266 37.297C148.248 37.2605 148.221 37.2296 148.187 37.2078C148.157 37.1906 148.125 37.177 148.093 37.1671C148.056 37.1576 148.018 37.1554 147.981 37.1606C147.944 37.1658 147.908 37.1784 147.876 37.1977C147.824 37.2369 147.78 37.2866 147.747 37.3435C147.715 37.4005 147.695 37.4635 147.688 37.5287C147.671 37.6444 147.671 37.7619 147.688 37.8776C147.688 37.9871 147.713 38.0941 147.721 38.201C147.756 38.6177 147.764 39.0363 147.744 39.454C147.738 39.5532 147.725 39.6519 147.705 39.7494C147.698 39.7949 147.685 39.8394 147.667 39.8818C147.661 39.8986 147.651 39.9141 147.639 39.9277C147.639 39.9506 147.621 39.9277 147.624 39.9582C147.624 39.9328 147.624 39.9582 147.624 39.9251C147.613 39.9079 147.602 39.8901 147.593 39.8717C147.576 39.8309 147.56 39.7851 147.545 39.7418C147.517 39.6501 147.497 39.5559 147.476 39.4642C147.343 38.7668 147.247 38.063 147.188 37.3555C147.196 37.2275 147.181 37.0991 147.145 36.9761C147.128 36.9119 147.094 36.8537 147.046 36.808C147.021 36.7839 146.991 36.7652 146.959 36.7529C146.927 36.7407 146.892 36.7352 146.857 36.7367H146.873C146.83 36.7304 146.786 36.7369 146.746 36.7555C146.707 36.7741 146.674 36.8039 146.651 36.8411C146.613 36.9019 146.587 36.9693 146.575 37.0398C146.553 37.166 146.541 37.2937 146.539 37.4218C146.539 37.6764 146.539 37.898 146.539 38.1145C146.563 38.4803 146.61 38.8443 146.679 39.2044C146.722 39.4998 146.756 39.729 146.771 39.8844C146.776 39.9116 146.771 39.9396 146.758 39.9638C146.744 39.9879 146.723 40.0067 146.697 40.0168C146.621 40.0245 146.598 40.027 146.6 40.0295Z" fill="#EAEAEA"/>
<path d="M130.014 53.0325C129.517 53.0219 129.021 53.0793 128.539 53.2031C127.223 53.5495 124.954 54.9247 124.859 56.6233H126.51C126.51 56.6233 125.585 58.5893 125.855 58.406C126.561 57.9323 127.961 56.5087 127.961 56.5087L130.014 53.0325Z" fill="#FFD5C5"/>
<path d="M152.506 23.4284C152.468 23.4284 152.32 22.0685 152.172 20.3724C152.025 18.6763 151.933 17.3164 151.969 17.3164C152.004 17.3164 152.155 18.6763 152.302 20.3724C152.45 22.0685 152.542 23.4284 152.506 23.4284Z" fill="#263238"/>
<path d="M159.743 17.4221C159.771 17.4424 158.658 19.0596 157.254 21.0332C155.851 23.0069 154.687 24.5986 154.657 24.568C154.626 24.5375 155.742 22.9305 157.145 20.9568C158.548 18.9832 159.712 17.4017 159.743 17.4221Z" fill="#263238"/>
<path d="M162.749 24.7496C162.749 24.7853 161.455 25.0832 159.845 25.4143C158.236 25.7454 156.922 25.9847 156.914 25.9491C156.906 25.9134 158.205 25.6155 159.817 25.2844C161.429 24.9533 162.731 24.714 162.749 24.7496Z" fill="#263238"/>
<path d="M76.1476 59.729L67.1324 106.027L65.9609 112.089L126.062 111.798C128.762 111.785 131.156 109.389 132.019 105.829L142.679 62.1204C143.339 59.4183 141.892 56.6068 139.845 56.6094L78.9999 56.673C77.6756 56.6705 76.4889 57.9235 76.1476 59.729Z" fill="url(#paint7_linear_1400_22579)"/>
<g opacity="0.5">
<path d="M76.1437 59.7251L67.1285 106.024L65.957 112.085L126.058 111.794C128.758 111.782 131.152 109.385 132.015 105.825L142.675 62.1165C143.335 59.4144 141.888 56.6029 139.841 56.6055L78.996 56.6691C77.6717 56.6666 76.485 57.9196 76.1437 59.7251Z" fill="#1D1D1D"/>
</g>
<path d="M120.302 102.884L113.935 51.5918C113.68 49.4908 112.002 47.9221 110.023 47.9297L96.0677 47.973C95.5491 47.9789 95.0371 48.0903 94.5629 48.3004C94.0887 48.5106 93.6623 48.8151 93.3097 49.1954L86.6884 56.242L47.8772 56.4509C45.5062 56.4636 43.6828 58.7098 43.996 61.231L49.9068 108.637C50.1615 110.736 51.8398 112.302 53.8134 112.299L121.466 112.164C128.999 112.32 129.719 110.096 129.719 110.096C121.071 112.009 120.302 102.897 120.302 102.884Z" fill="url(#paint8_linear_1400_22579)"/>
<g opacity="0.5">
<path d="M91.1312 92.6261L88.8493 95.076L71.2773 79.2663L73.5592 76.8164L91.1312 92.6261Z" fill="white"/>
<path d="M87.8936 76.2734L90.4148 78.5425L74.5159 95.6179L71.9922 93.3488L87.8936 76.2734Z" fill="white"/>
</g>
<path d="M129.963 26.4339C129.88 26.3992 129.809 26.3417 129.758 26.2682C129.708 26.1947 129.679 26.1082 129.675 26.0188L129.573 23.6555C129.569 23.5821 129.583 23.5088 129.613 23.4415C129.642 23.3742 129.687 23.3147 129.744 23.2678C129.8 23.2208 129.867 23.1877 129.939 23.171C130.01 23.1543 130.085 23.1545 130.156 23.1716C130.353 23.2142 130.557 23.216 130.755 23.177C130.953 23.1381 131.141 23.0591 131.307 22.945C131.46 22.848 131.592 22.7207 131.694 22.5709C131.796 22.4211 131.867 22.252 131.901 22.074C131.924 21.8938 131.91 21.7107 131.861 21.5357C131.812 21.3608 131.729 21.1974 131.615 21.0553C131.496 20.8937 131.346 20.7572 131.174 20.6536C131.002 20.5501 130.811 20.4815 130.612 20.4518C130.211 20.4295 129.815 20.5431 129.487 20.7742C129.159 21.0053 128.918 21.3403 128.804 21.7251C128.766 21.8417 128.684 21.9391 128.576 21.9971C128.468 22.055 128.342 22.0691 128.224 22.0363C128.106 22.0034 128.005 21.9263 127.942 21.8209C127.879 21.7155 127.86 21.59 127.887 21.4705C128.06 20.8652 128.437 20.3381 128.953 19.9777C129.469 19.6174 130.094 19.4457 130.722 19.4917C131.048 19.5352 131.363 19.644 131.647 19.8116C131.931 19.9791 132.178 20.202 132.374 20.4671C132.565 20.7127 132.705 20.9941 132.785 21.2946C132.865 21.5951 132.884 21.9087 132.84 22.2166C132.783 22.5241 132.662 22.8166 132.487 23.0759C132.312 23.3351 132.085 23.5558 131.822 23.7243C131.44 23.9815 130.993 24.127 130.533 24.1445L130.612 25.9679C130.615 26.048 130.598 26.1275 130.562 26.1992C130.526 26.2708 130.472 26.3322 130.406 26.3777C130.34 26.4231 130.264 26.4512 130.184 26.4592C130.104 26.4673 130.024 26.4551 129.95 26.4237L129.963 26.4339Z" fill="url(#paint9_linear_1400_22579)"/>
<path d="M130.657 27.4018C130.663 27.4787 130.645 27.5554 130.607 27.6224C130.568 27.6893 130.511 27.7433 130.442 27.7777C130.373 27.812 130.296 27.8252 130.219 27.8154C130.143 27.8056 130.071 27.7733 130.013 27.7227C129.954 27.672 129.913 27.6053 129.892 27.5309C129.872 27.4565 129.875 27.3778 129.899 27.3047C129.924 27.2316 129.969 27.1675 130.031 27.1204C130.092 27.0733 130.165 27.0454 130.242 27.0401C130.293 27.0363 130.345 27.0427 130.393 27.0588C130.442 27.075 130.487 27.1006 130.525 27.1343C130.564 27.1679 130.595 27.2089 130.618 27.2548C130.641 27.3007 130.654 27.3507 130.657 27.4018Z" fill="url(#paint10_linear_1400_22579)"/>
<path d="M121.778 23.0999C121.789 23.0495 121.796 22.9984 121.801 22.9471C121.801 22.835 121.829 22.6924 121.849 22.4912C121.874 22.2442 121.916 21.9992 121.974 21.7578C122.007 21.6152 122.025 21.4573 122.076 21.2968C122.127 21.1364 122.178 20.9632 122.234 20.7875C122.529 19.9169 122.958 19.0979 123.507 18.3605C124.226 17.4057 125.138 16.6127 126.184 16.0329C126.779 15.6974 127.412 15.4357 128.071 15.2536C128.781 15.0652 129.513 14.9694 130.248 14.9684C130.635 14.9621 131.022 14.9826 131.407 15.0295C131.603 15.0499 131.796 15.1008 131.993 15.1339C132.191 15.1679 132.387 15.2155 132.578 15.2765C133.381 15.5008 134.144 15.847 134.842 16.3028C136.394 17.3091 137.575 18.793 138.209 20.5303C138.55 21.4609 138.723 22.4449 138.718 23.436C138.729 24.4571 138.548 25.4711 138.186 26.4258L138.071 26.7161L138.056 26.7543L138.071 26.7925C138.711 28.262 139.345 29.7059 139.943 31.104L140.05 30.9818L136.23 29.5175L136.184 29.4996L136.146 29.5353C135.136 30.5144 133.899 31.2283 132.545 31.6134C131.389 31.9317 130.178 32.0012 128.993 31.8173C127.807 31.6334 126.675 31.2002 125.669 30.5463C124.846 30.0062 124.12 29.3303 123.522 28.5472C122.657 27.4042 122.096 26.0599 121.892 24.6406C121.862 24.3859 121.836 24.172 121.813 23.9785C121.791 23.7849 121.813 23.627 121.801 23.4921C121.788 23.3571 121.801 23.2679 121.801 23.1941C121.813 23.1922 121.825 23.1855 121.833 23.1755C121.841 23.1654 121.845 23.1527 121.844 23.1399C121.843 23.1271 121.837 23.1151 121.828 23.1064C121.818 23.0977 121.806 23.0928 121.793 23.0928C121.78 23.0928 121.768 23.0977 121.758 23.1064C121.749 23.1151 121.743 23.1271 121.742 23.1399C121.741 23.1527 121.745 23.1654 121.753 23.1755C121.761 23.1855 121.773 23.1922 121.785 23.1941C121.785 23.2679 121.785 23.3673 121.785 23.4921C121.785 23.6168 121.785 23.79 121.785 23.9836C121.785 24.1771 121.829 24.3987 121.854 24.6508C121.938 25.2633 122.084 25.8657 122.29 26.4487C122.581 27.2186 122.973 27.9465 123.456 28.6134C124.056 29.4104 124.787 30.0994 125.618 30.6507C126.636 31.3209 127.785 31.767 128.988 31.9593C130.192 32.1516 131.423 32.0858 132.599 31.7662C133.968 31.3772 135.221 30.6564 136.245 29.6677L136.161 29.6855L139.981 31.1575L140.172 31.2314L140.088 31.0353C139.482 29.6372 138.856 28.1957 138.219 26.7238V26.7976L138.336 26.4997C138.708 25.5242 138.893 24.4875 138.881 23.4437C138.889 22.4315 138.717 21.4259 138.372 20.4743C137.725 18.7023 136.517 17.1902 134.931 16.1678C134.216 15.7013 133.432 15.3491 132.609 15.1237C132.414 15.062 132.215 15.0152 132.013 14.9836C131.814 14.948 131.618 14.8971 131.42 14.8792C131.03 14.8309 130.638 14.8088 130.246 14.813C129.499 14.8162 128.756 14.9172 128.035 15.1135C127.368 15.303 126.726 15.5714 126.122 15.9132C125.067 16.5072 124.149 17.3188 123.431 18.2943C122.883 19.0439 122.46 19.8761 122.175 20.7595C122.122 20.9428 122.071 21.1186 122.025 21.2688C121.984 21.4223 121.952 21.5779 121.928 21.7349C121.873 21.9779 121.838 22.2248 121.821 22.4734C121.806 22.6695 121.796 22.8197 121.788 22.9318C121.777 22.9871 121.774 23.0436 121.778 23.0999Z" fill="#263238"/>
<defs>
<filter id="filter0_f_1400_22579" x="71" y="11" width="59" height="38" filterUnits="userSpaceOnUse" color-interpolation-filters="sRGB">
<feFlood flood-opacity="0" result="BackgroundImageFix"/>
<feBlend mode="normal" in="SourceGraphic" in2="BackgroundImageFix" result="shape"/>
<feGaussianBlur stdDeviation="7" result="effect1_foregroundBlur_1400_22579"/>
</filter>
<linearGradient id="paint0_linear_1400_22579" x1="100.714" y1="9.22033" x2="100.714" y2="35.2281" gradientUnits="userSpaceOnUse">
<stop stop-color="#0B8FAC"/>
<stop offset="1" stop-color="#99E5BD"/>
</linearGradient>
<linearGradient id="paint1_linear_1400_22579" x1="100.711" y1="-1.6427" x2="100.711" y2="19.8618" gradientUnits="userSpaceOnUse">
<stop stop-color="#0B8FAC"/>
<stop offset="1" stop-color="#99E5BD"/>
</linearGradient>
<linearGradient id="paint2_linear_1400_22579" x1="31.4458" y1="94.804" x2="31.4458" y2="111.228" gradientUnits="userSpaceOnUse">
<stop stop-color="#0B8FAC"/>
<stop offset="1" stop-color="#99E5BD"/>
</linearGradient>
<linearGradient id="paint3_linear_1400_22579" x1="37.4027" y1="101.272" x2="37.4027" y2="110.136" gradientUnits="userSpaceOnUse">
<stop stop-color="#0B8FAC"/>
<stop offset="1" stop-color="#99E5BD"/>
</linearGradient>
<linearGradient id="paint4_linear_1400_22579" x1="30.6385" y1="104.761" x2="30.6385" y2="111.67" gradientUnits="userSpaceOnUse">
<stop stop-color="#0B8FAC"/>
<stop offset="1" stop-color="#99E5BD"/>
</linearGradient>
<linearGradient id="paint5_linear_1400_22579" x1="148.937" y1="36.3429" x2="148.937" y2="72.6091" gradientUnits="userSpaceOnUse">
<stop stop-color="#0B8FAC"/>
<stop offset="1" stop-color="#99E5BD"/>
</linearGradient>
<linearGradient id="paint6_linear_1400_22579" x1="156" y1="43.8007" x2="156" y2="53.3647" gradientUnits="userSpaceOnUse">
<stop stop-color="#0B8FAC"/>
<stop offset="1" stop-color="#99E5BD"/>
</linearGradient>
<linearGradient id="paint7_linear_1400_22579" x1="104.401" y1="48.4724" x2="104.401" y2="154.992" gradientUnits="userSpaceOnUse">
<stop stop-color="#0B8FAC"/>
<stop offset="1" stop-color="#99E5BD"/>
</linearGradient>
<linearGradient id="paint8_linear_1400_22579" x1="86.8402" y1="38.4888" x2="86.8401" y2="162.078" gradientUnits="userSpaceOnUse">
<stop stop-color="#0B8FAC"/>
<stop offset="1" stop-color="#99E5BD"/>
</linearGradient>
<linearGradient id="paint9_linear_1400_22579" x1="130.369" y1="18.461" x2="130.369" y2="31.8574" gradientUnits="userSpaceOnUse">
<stop stop-color="#0B8FAC"/>
<stop offset="1" stop-color="#99E5BD"/>
</linearGradient>
<linearGradient id="paint10_linear_1400_22579" x1="130.269" y1="26.9247" x2="130.269" y2="28.4213" gradientUnits="userSpaceOnUse">
<stop stop-color="#0B8FAC"/>
<stop offset="1" stop-color="#99E5BD"/>
</linearGradient>
</defs>
</svg>
