<svg width="20" height="20" viewBox="0 0 20 20" fill="none" xmlns="http://www.w3.org/2000/svg">
<path d="M18.1866 7.50062L18.203 7.5474L18.2641 7.74954L18.3152 7.93097L18.337 8.01383L18.3727 8.16383C18.8359 10.2541 18.4978 12.442 17.4252 14.2949C16.3549 16.1535 14.625 17.5418 12.5787 18.1842L12.4345 18.227L12.2573 18.2728L12.0012 18.3335C11.9108 18.3541 11.8171 18.3558 11.7259 18.3386C11.6348 18.3213 11.5482 18.2855 11.4715 18.2332C11.3948 18.181 11.3297 18.1136 11.2803 18.0351C11.2308 17.9566 11.1981 17.8688 11.1841 17.777C11.1554 17.5888 11.1984 17.3967 11.3046 17.2387C11.4108 17.0807 11.5725 16.9683 11.7577 16.9238L11.9637 16.872C12.0923 16.8382 12.2029 16.8057 12.2955 16.7745C13.9388 16.2197 15.323 15.084 16.188 13.5806C17.0581 12.0784 17.3493 10.31 17.0066 8.60812L16.982 8.49633L16.9491 8.36597L16.908 8.21669L16.8587 8.04883C16.8035 7.86572 16.8192 7.66856 16.9025 7.49643C16.9859 7.32431 17.1309 7.18979 17.3087 7.11954C17.3914 7.08689 17.4797 7.07084 17.5686 7.07232C17.6574 7.0738 17.7451 7.09278 17.8266 7.12817C17.9082 7.16356 17.9819 7.21467 18.0437 7.27857C18.1054 7.34248 18.154 7.41793 18.1866 7.50062ZM2.63731 7.11419C2.65279 7.11895 2.66803 7.12419 2.68303 7.1299C2.86051 7.19907 3.00553 7.3324 3.08934 7.50347C3.17316 7.67453 3.18964 7.87083 3.13553 8.05347C3.07124 8.2699 3.02481 8.45002 2.99624 8.59383C2.65508 10.2943 2.94654 12.0609 3.81589 13.5617C4.68169 15.0664 6.06754 16.2028 7.71267 16.757L7.82196 16.7917L7.8841 16.8095L8.02339 16.8474L8.27124 16.9085C8.45745 16.9523 8.6204 17.0644 8.72777 17.2227C8.83513 17.381 8.87908 17.5739 8.85089 17.7631C8.82443 17.9405 8.7286 18.1001 8.58447 18.2069C8.44035 18.3137 8.25972 18.3588 8.08231 18.3324L8.03303 18.3235L7.82731 18.2753L7.64517 18.2288L7.48589 18.1842L7.41446 18.1628C5.37241 17.5186 3.64655 16.1314 2.57839 14.2756C1.50378 12.4195 1.16634 10.2272 1.63303 8.13383L1.66053 8.01954L1.69624 7.88562L1.76553 7.64812L1.79267 7.55883C1.8189 7.47415 1.86156 7.39546 1.91821 7.32726C1.97486 7.25906 2.04438 7.2027 2.12282 7.16137C2.20125 7.12005 2.28706 7.09458 2.37534 7.08642C2.46361 7.07827 2.55264 7.08794 2.63731 7.11419ZM10.018 4.28562C13.1741 4.28562 15.7323 6.84383 15.7323 9.9999C15.7323 13.156 13.1741 15.7142 10.018 15.7142C6.86196 15.7142 4.30374 13.156 4.30374 9.9999C4.30374 6.84383 6.86231 4.28562 10.018 4.28562ZM10.018 5.71419C7.65124 5.71419 5.73232 7.63312 5.73232 9.9999C5.73232 12.3667 7.65124 14.2856 10.018 14.2856C12.3852 14.2856 14.3037 12.3667 14.3037 9.9999C14.3037 7.63312 12.3852 5.71419 10.018 5.71419ZM10.018 1.42847C12.1628 1.42584 14.2302 2.22975 15.8098 3.68062L15.8952 3.76169L15.9934 3.85954L16.1041 3.97454L16.2277 4.10633C16.2907 4.17436 16.3391 4.25465 16.3697 4.34219C16.4003 4.42973 16.4126 4.52264 16.4057 4.61513C16.3988 4.70762 16.373 4.7977 16.3298 4.87976C16.2865 4.96181 16.2269 5.03408 16.1545 5.09204C16.0058 5.21115 15.8178 5.27006 15.6278 5.25709C15.4377 5.24413 15.2595 5.16024 15.1284 5.02204C15.0508 4.9399 14.9787 4.86645 14.9123 4.80169L14.7873 4.6824L14.7302 4.63133C13.4281 3.48554 11.7525 2.85461 10.018 2.85704C8.282 2.85453 6.6049 3.48655 5.30231 4.63419L5.2616 4.67062L5.17124 4.75633L5.06874 4.85812L4.89196 5.04204C4.62053 5.33097 4.17267 5.36347 3.86231 5.11704C3.79271 5.06179 3.73468 4.99336 3.69153 4.91567C3.64839 4.83798 3.62097 4.75255 3.61086 4.66426C3.60074 4.57597 3.60812 4.48655 3.63258 4.40111C3.65703 4.31568 3.69809 4.2359 3.75339 4.16633L3.78553 4.12847L3.93017 3.97454L4.0616 3.83955C4.12398 3.77693 4.1816 3.72157 4.23446 3.67347C5.81297 2.22721 7.87679 1.42604 10.0177 1.42847" fill="url(#paint0_linear_4347_29010)"/>
<defs>
<linearGradient id="paint0_linear_4347_29010" x1="10.0017" y1="-1.0534" x2="10.0017" y2="31.4365" gradientUnits="userSpaceOnUse">
<stop stop-color="#0B8FAC"/>
<stop offset="1" stop-color="#99E5BD"/>
</linearGradient>
</defs>
</svg>
