<svg width="20" height="20" viewBox="0 0 20 20" fill="none" xmlns="http://www.w3.org/2000/svg">
<path d="M6.08695 9.23077C4.93384 9.23077 3.82795 8.82555 3.01258 8.10426C2.1972 7.38296 1.73913 6.40468 1.73913 5.38462V2.30769C1.73913 2.10368 1.83074 1.90802 1.99382 1.76376C2.15689 1.61951 2.37807 1.53846 2.60869 1.53846H3.47826C3.70888 1.53846 3.93006 1.45742 4.09313 1.31316C4.25621 1.1689 4.34782 0.973243 4.34782 0.769231C4.34782 0.565218 4.25621 0.369561 4.09313 0.225302C3.93006 0.0810437 3.70888 0 3.47826 0H2.60869C1.91683 0 1.25329 0.243131 0.764069 0.675907C0.274844 1.10868 0 1.69565 0 2.30769V5.38462C0.00111776 6.25364 0.240671 7.10945 0.698086 7.87852C1.1555 8.6476 1.81711 9.30697 2.62609 9.8C3.40411 10.4056 4.03497 11.1447 4.48041 11.9724C4.92584 12.8002 5.17657 13.6993 5.21739 14.6154C5.21739 16.0435 5.85869 17.4131 7.00022 18.4229C8.14174 19.4327 9.68998 20 11.3043 20C12.9187 20 14.4669 19.4327 15.6085 18.4229C16.75 17.4131 17.3913 16.0435 17.3913 14.6154V13.7385C18.211 13.5512 18.9254 13.106 19.4005 12.4861C19.8757 11.8663 20.0789 11.1145 19.9723 10.3715C19.8656 9.6286 19.4563 8.94559 18.8211 8.45052C18.1858 7.95545 17.3683 7.68232 16.5217 7.68232C15.6751 7.68232 14.8576 7.95545 14.2224 8.45052C13.5872 8.94559 13.1779 9.6286 13.0712 10.3715C12.9645 11.1145 13.1678 11.8663 13.6429 12.4861C14.1181 13.106 14.8325 13.5512 15.6522 13.7385V14.6154C15.6522 15.6354 15.1941 16.6137 14.3787 17.335C13.5633 18.0563 12.4575 18.4615 11.3043 18.4615C10.1512 18.4615 9.04534 18.0563 8.22997 17.335C7.41459 16.6137 6.95652 15.6354 6.95652 14.6154C6.99953 13.6982 7.25298 12.7983 7.70144 11.9705C8.1499 11.1427 8.78401 10.4042 9.56521 9.8C10.371 9.30526 11.0292 8.64514 11.4835 7.87617C11.9378 7.1072 12.1747 6.25228 12.1739 5.38462V2.30769C12.1739 1.69565 11.8991 1.10868 11.4098 0.675907C10.9206 0.243131 10.2571 0 9.56521 0H8.69565C8.46502 0 8.24385 0.0810437 8.08077 0.225302C7.9177 0.369561 7.82608 0.565218 7.82608 0.769231C7.82608 0.973243 7.9177 1.1689 8.08077 1.31316C8.24385 1.45742 8.46502 1.53846 8.69565 1.53846H9.56521C9.79584 1.53846 10.017 1.61951 10.1801 1.76376C10.3432 1.90802 10.4348 2.10368 10.4348 2.30769V5.38462C10.4348 5.8897 10.3223 6.38984 10.1038 6.85647C9.88532 7.32311 9.56506 7.74711 9.16133 8.10426C8.7576 8.46141 8.2783 8.74471 7.75079 8.938C7.22329 9.13129 6.65792 9.23077 6.08695 9.23077ZM16.5217 12.3077C16.0605 12.3077 15.6181 12.1456 15.292 11.8571C14.9658 11.5686 14.7826 11.1773 14.7826 10.7692C14.7826 10.3612 14.9658 9.96989 15.292 9.68137C15.6181 9.39286 16.0605 9.23077 16.5217 9.23077C16.983 9.23077 17.4253 9.39286 17.7515 9.68137C18.0776 9.96989 18.2609 10.3612 18.2609 10.7692C18.2609 11.1773 18.0776 11.5686 17.7515 11.8571C17.4253 12.1456 16.983 12.3077 16.5217 12.3077Z" fill="url(#paint0_linear_1400_22202)"/>
<defs>
<linearGradient id="paint0_linear_1400_22202" x1="10" y1="-2.93333" x2="9.99998" y2="35.4667" gradientUnits="userSpaceOnUse">
<stop stop-color="#0B8FAC"/>
<stop offset="1" stop-color="#99E5BD"/>
</linearGradient>
</defs>
</svg>
