<svg width="20" height="20" viewBox="0 0 20 20" fill="none" xmlns="http://www.w3.org/2000/svg">
<path d="M10 18.9591C9.41667 18.9591 8.825 18.7341 8.38333 18.2924L6.95831 16.8841C6.60831 16.5341 6.12501 16.3424 5.63334 16.3424H5C3.275 16.3424 1.875 14.9508 1.875 13.2425V4.15076C1.875 2.44242 3.275 1.05078 5 1.05078H15C16.725 1.05078 18.125 2.44242 18.125 4.15076V13.2425C18.125 14.9508 16.725 16.3424 15 16.3424H14.3667C13.875 16.3424 13.3917 16.5424 13.0417 16.8841L11.6167 18.2924C11.175 18.7341 10.5833 18.9591 10 18.9591ZM5 2.29244C3.96667 2.29244 3.125 3.12575 3.125 4.14242V13.2341C3.125 14.2591 3.96667 15.0841 5 15.0841H5.63334C6.45834 15.0841 7.25831 15.4174 7.84164 15.9924L9.26666 17.4008C9.675 17.8008 10.3333 17.8008 10.7417 17.4008L12.1666 15.9924C12.75 15.4174 13.55 15.0841 14.375 15.0841H15C16.0333 15.0841 16.875 14.2508 16.875 13.2341V4.14242C16.875 3.11742 16.0333 2.29244 15 2.29244H5Z" fill="url(#paint0_linear_1400_22193)"/>
<path d="M10.0003 8.95753C8.58361 8.95753 7.43359 7.80752 7.43359 6.39085C7.43359 4.97418 8.58361 3.82422 10.0003 3.82422C11.4169 3.82422 12.567 4.97418 12.567 6.39085C12.567 7.80752 11.4169 8.95753 10.0003 8.95753ZM10.0003 5.07422C9.27527 5.07422 8.68359 5.66585 8.68359 6.39085C8.68359 7.11585 9.27527 7.70753 10.0003 7.70753C10.7253 7.70753 11.317 7.11585 11.317 6.39085C11.317 5.66585 10.7253 5.07422 10.0003 5.07422Z" fill="url(#paint1_linear_1400_22193)"/>
<path d="M13.3346 13.6776C12.993 13.6776 12.7096 13.3942 12.7096 13.0526C12.7096 11.9026 11.493 10.9609 10.0013 10.9609C8.50964 10.9609 7.29297 11.9026 7.29297 13.0526C7.29297 13.3942 7.00964 13.6776 6.66797 13.6776C6.3263 13.6776 6.04297 13.3942 6.04297 13.0526C6.04297 11.2109 7.81797 9.71094 10.0013 9.71094C12.1846 9.71094 13.9596 11.2109 13.9596 13.0526C13.9596 13.3942 13.6763 13.6776 13.3346 13.6776Z" fill="url(#paint2_linear_1400_22193)"/>
<defs>
<linearGradient id="paint0_linear_1400_22193" x1="10" y1="-1.57577" x2="9.99998" y2="32.8082" gradientUnits="userSpaceOnUse">
<stop stop-color="#0B8FAC"/>
<stop offset="1" stop-color="#99E5BD"/>
</linearGradient>
<linearGradient id="paint1_linear_1400_22193" x1="10.0003" y1="3.07133" x2="10.0003" y2="12.9273" gradientUnits="userSpaceOnUse">
<stop stop-color="#0B8FAC"/>
<stop offset="1" stop-color="#99E5BD"/>
</linearGradient>
<linearGradient id="paint2_linear_1400_22193" x1="10.0013" y1="9.12917" x2="10.0013" y2="16.7451" gradientUnits="userSpaceOnUse">
<stop stop-color="#0B8FAC"/>
<stop offset="1" stop-color="#99E5BD"/>
</linearGradient>
</defs>
</svg>
