<svg width="24" height="24" viewBox="0 0 24 24" fill="none" xmlns="http://www.w3.org/2000/svg">
<path d="M12 2.09961C17.4677 2.09962 21.9004 6.53237 21.9004 12C21.9004 17.4676 17.4677 21.9004 12 21.9004C6.53242 21.9004 2.09962 17.4676 2.09961 12C2.09961 6.53237 6.53242 2.09961 12 2.09961ZM12 3.90039C7.53355 3.90039 3.90039 7.53355 3.90039 12C3.9004 16.4664 7.5336 20.0996 12 20.0996C16.4665 20.0996 20.0996 16.4664 20.0996 12C20.0996 7.53356 16.4665 3.9004 12 3.90039ZM12.9023 11.0996V16.9004H11.1025V11.0996H12.9023ZM12.0098 6.84961C12.6684 6.84961 13.1523 7.33088 13.1523 8C13.1523 8.6701 12.6684 9.15039 12.0098 9.15039C11.6629 9.1503 11.3749 9.02793 11.1738 8.8252C10.9726 8.62212 10.8526 8.33192 10.8525 7.98633C10.8525 7.33284 11.3348 6.8498 12.0098 6.84961Z" fill="#858585" stroke="#EDF7F5" stroke-width="0.2"/>
</svg>
