<svg width="24" height="24" viewBox="0 0 24 24" fill="none" xmlns="http://www.w3.org/2000/svg">
<path d="M4 3.15039L14 3.15039C14.2254 3.15039 14.4412 3.24001 14.6006 3.39941C14.76 3.55882 14.8496 3.77457 14.8496 4L14.8496 19.1504H19.1504V10.8496H17.1504V9.15039H20C20.2254 9.15039 20.4412 9.24001 20.6006 9.39941C20.76 9.55882 20.8496 9.77457 20.8496 10V19.1504H22.8496V20.8496H1.15039V19.1504H3.15039L3.15039 4C3.15039 3.77457 3.24001 3.55882 3.39941 3.39941C3.55882 3.24001 3.77457 3.15039 4 3.15039ZM4.84961 19.1504H13.1504L13.1504 4.84961L4.84961 4.84961L4.84961 19.1504ZM10.8496 11.1504V12.8496H7.15039V11.1504H10.8496ZM10.8496 7.15039V8.84961H7.15039V7.15039L10.8496 7.15039Z" fill="#858585" stroke="#EDF7F5" stroke-width="0.3"/>
</svg>
