<svg width="22" height="22" viewBox="0 0 22 22" fill="none" xmlns="http://www.w3.org/2000/svg">
<path d="M11.25 21.75C5.32 21.75 0.5 16.93 0.5 11C0.5 5.07 5.32 0.25 11.25 0.25C17.18 0.25 22 5.07 22 11C22 16.93 17.18 21.75 11.25 21.75ZM11.25 1.75C6.15 1.75 2 5.9 2 11C2 16.1 6.15 20.25 11.25 20.25C16.35 20.25 20.5 16.1 20.5 11C20.5 5.9 16.35 1.75 11.25 1.75Z" fill="url(#paint0_linear_1698_28582)"/>
<path d="M15.3752 14.75H6.62519C6.45943 14.75 6.30045 14.8159 6.18324 14.9331C6.06603 15.0503 6.00019 15.2093 6.00019 15.375C6.00019 15.5408 6.06603 15.6998 6.18324 15.817C6.30045 15.9342 6.45943 16 6.62519 16H15.3752C15.5409 16 15.6999 15.9342 15.8171 15.817C15.9343 15.6998 16.0002 15.5408 16.0002 15.375C16.0002 15.2093 15.9343 15.0503 15.8171 14.9331C15.6999 14.8159 15.5409 14.75 15.3752 14.75ZM6.62519 13.5H6.68144L9.28769 13.2625C9.57318 13.2341 9.84021 13.1083 10.0439 12.9063L15.6689 7.28128C15.8873 7.05064 16.0052 6.74285 15.997 6.42537C15.9888 6.10789 15.8551 5.8066 15.6252 5.58753L13.9127 3.87503C13.6892 3.66509 13.3963 3.54463 13.0898 3.53657C12.7832 3.5285 12.4844 3.63339 12.2502 3.83128L6.62519 9.45628C6.42316 9.66001 6.29738 9.92704 6.26894 10.2125L6.00019 12.8188C5.99177 12.9103 6.00364 13.0026 6.03497 13.089C6.0663 13.1755 6.11631 13.2539 6.18144 13.3188C6.23984 13.3767 6.3091 13.4225 6.38524 13.4536C6.46139 13.4847 6.54293 13.5005 6.62519 13.5ZM13.0439 4.75003L14.7502 6.45628L13.5002 7.67503L11.8252 6.00003L13.0439 4.75003ZM7.48144 10.3188L11.0002 6.82503L12.6877 8.51253L9.18769 12.0125L7.31269 12.1875L7.48144 10.3188Z" fill="url(#paint1_linear_1698_28582)"/>
<defs>
<linearGradient id="paint0_linear_1698_28582" x1="11.25" y1="0.25" x2="11.25" y2="21.75" gradientUnits="userSpaceOnUse">
<stop stop-color="#0B8FAC"/>
<stop offset="1" stop-color="#99E5BD"/>
</linearGradient>
<linearGradient id="paint1_linear_1698_28582" x1="10.9989" y1="1.70809" x2="10.9989" y2="25.6388" gradientUnits="userSpaceOnUse">
<stop stop-color="#0B8FAC"/>
<stop offset="1" stop-color="#99E5BD"/>
</linearGradient>
</defs>
</svg>
