<svg width="24" height="24" viewBox="0 0 24 24" fill="none" xmlns="http://www.w3.org/2000/svg">
<path d="M12 2.09961C13.3689 2.09829 14.6554 2.35887 15.8604 2.87988C17.0673 3.40177 18.1146 4.10743 19.0039 4.99609C19.8932 5.88475 20.5992 6.93207 21.1211 8.13965C21.6421 9.34524 21.9024 10.6318 21.9004 12C21.8984 13.3683 21.6378 14.6547 21.1201 15.8604C20.6017 17.0676 19.8966 18.1154 19.0049 19.0039C18.1128 19.8927 17.0646 20.5985 15.8604 21.1211C14.6582 21.6427 13.3715 21.903 12 21.9004C10.6297 21.9004 9.34326 21.6401 8.13965 21.1211C6.93413 20.6012 5.88678 19.8953 4.99609 19.0039C4.10539 18.1125 3.39975 17.0652 2.87988 15.8604C2.36086 14.6574 2.10028 13.371 2.09961 12C2.09895 10.6291 2.35955 9.34254 2.87988 8.13965C3.40108 6.93477 4.10673 5.88746 4.99609 4.99609C5.8854 4.1048 6.93283 3.39907 8.13965 2.87988C9.34461 2.36151 10.631 2.10094 12 2.09961ZM12 3.90039C9.74071 3.90039 7.82305 4.68476 6.25391 6.25391C4.68476 7.82305 3.90039 9.74071 3.90039 12C3.90039 14.2593 4.68476 16.1769 6.25391 17.7461C7.82305 19.3152 9.74071 20.0996 12 20.0996C14.2593 20.0996 16.1769 19.3152 17.7461 17.7461C19.3152 16.1769 20.0996 14.2593 20.0996 12C20.0996 9.74071 19.3152 7.82305 17.7461 6.25391C16.1769 4.68476 14.2593 3.90039 12 3.90039ZM11.9502 15.5996C12.2755 15.5984 12.5454 15.7096 12.7666 15.9326C12.9882 16.1561 13.0989 16.4264 13.0996 16.75C13.1002 17.0733 12.9903 17.3437 12.7676 17.5664C12.5448 17.7891 12.2743 17.9003 11.9502 17.9004C11.6291 17.9004 11.3587 17.7896 11.1338 17.5674C10.9095 17.3455 10.798 17.0752 10.7998 16.751C10.8017 16.4257 10.913 16.155 11.1338 15.9336C11.3544 15.7124 11.6244 15.6009 11.9502 15.5996ZM12.0996 6.09961C13.014 6.09961 13.8014 6.34488 14.4658 6.83105C15.1205 7.31009 15.4502 7.99521 15.4502 8.90039C15.4501 9.43384 15.3286 9.88476 15.0908 10.2578C14.8461 10.6416 14.5099 11.0485 14.0811 11.4775C13.4986 12.0274 13.1294 12.4742 12.9951 12.8135C12.8713 13.1265 12.81 13.5403 12.8027 14.0498H11.1514C11.1576 13.2221 11.2406 12.6684 11.3896 12.3701C11.4668 12.2158 11.6131 12.0169 11.8359 11.7734C12.0578 11.5311 12.3517 11.2485 12.7168 10.9248L12.7158 10.9238C13.021 10.6698 13.2773 10.3942 13.4824 10.0947C13.6931 9.78717 13.7998 9.45439 13.7998 9.09961C13.7997 8.72215 13.655 8.37802 13.374 8.07031C13.0825 7.75109 12.6508 7.59961 12.0996 7.59961C11.4808 7.59969 11.003 7.78177 10.6865 8.16113C10.4219 8.4783 10.2356 8.78011 10.1357 9.06738L8.67773 8.49219C8.91027 7.84887 9.3001 7.29328 9.85254 6.82617C10.4219 6.34479 11.1679 6.09968 12.0996 6.09961Z" fill="#858585" stroke="#EDF7F5" stroke-width="0.2"/>
</svg>
