<svg width="24" height="24" viewBox="0 0 24 24" fill="none" xmlns="http://www.w3.org/2000/svg">
<path d="M12 1.09961C12.6434 1.09961 13.2806 1.22647 13.875 1.47266C14.4695 1.7189 15.0098 2.08015 15.4648 2.53516C15.9199 2.99016 16.2811 3.5305 16.5273 4.125C16.7735 4.71943 16.9004 5.35661 16.9004 6V8.09961H18C18.5039 8.09961 18.9874 8.29993 19.3438 8.65625C19.7001 9.01257 19.9004 9.49609 19.9004 10V20C19.9004 20.5039 19.7001 20.9874 19.3438 21.3438C18.9874 21.7001 18.5039 21.9004 18 21.9004H6C5.49609 21.9004 5.01257 21.7001 4.65625 21.3438C4.29993 20.9874 4.09961 20.5039 4.09961 20V10C4.09961 8.94523 4.94523 8.09961 6 8.09961H7.09961V6C7.09961 4.70044 7.61623 3.45408 8.53516 2.53516C9.45408 1.61623 10.7004 1.09961 12 1.09961ZM5.90039 20.0996H18.0996V9.90039H5.90039L5.90039 20.0996ZM12 13.0996C12.5039 13.0996 12.9874 13.2999 13.3438 13.6562C13.7001 14.0126 13.9004 14.4961 13.9004 15C13.9004 15.5039 13.7001 15.9874 13.3438 16.3438C12.9874 16.7001 12.5039 16.9004 12 16.9004C11.4961 16.9004 11.0126 16.7001 10.6562 16.3438C10.2999 15.9874 10.0996 15.5039 10.0996 15C10.0996 13.9452 10.9452 13.0996 12 13.0996ZM12 2.90039C11.1778 2.90039 10.389 3.22625 9.80762 3.80762C9.22625 4.38898 8.90039 5.17783 8.90039 6V8.09961H15.0996V6C15.0996 5.17783 14.7737 4.38898 14.1924 3.80762C13.611 3.22625 12.8222 2.90039 12 2.90039Z" fill="#858585" stroke="#EDF7F5" stroke-width="0.2"/>
</svg>
