<svg width="24" height="24" viewBox="0 0 24 24" fill="none" xmlns="http://www.w3.org/2000/svg">
<path d="M5 4V10.366V10.308V20V4ZM7.5 13.5H10.79C10.8967 13.3087 11.01 13.133 11.13 12.973C11.25 12.813 11.3767 12.6553 11.51 12.5H7.5V13.5ZM7.5 17.5H9.979C9.95433 17.3333 9.939 17.1667 9.933 17C9.927 16.8333 9.92967 16.6667 9.941 16.5H7.5V17.5ZM5.616 21C5.15533 21 4.771 20.846 4.463 20.538C4.155 20.23 4.00067 19.8457 4 19.385V4.615C4 4.155 4.15433 3.771 4.463 3.463C4.77167 3.155 5.156 3.00067 5.616 3H13.5L18 7.5V10.53C17.8373 10.482 17.676 10.4457 17.516 10.421C17.3553 10.397 17.1833 10.3787 17 10.366V8H13V4H5.616C5.462 4 5.32067 4.064 5.192 4.192C5.06333 4.32 4.99933 4.461 5 4.615V19.385C5 19.5383 5.064 19.6793 5.192 19.808C5.32 19.9367 5.461 20.0007 5.615 20H10.848C10.9547 20.1913 11.071 20.367 11.197 20.527C11.3237 20.687 11.46 20.8447 11.606 21H5.616ZM16.308 12.692C17.4213 12.692 18.3663 13.0803 19.143 13.857C19.9197 14.6337 20.308 15.5787 20.308 16.692C20.308 17.8067 19.9197 18.752 19.143 19.528C18.367 20.304 17.422 20.692 16.308 20.692C15.194 20.692 14.2487 20.304 13.472 19.528C12.6953 18.752 12.3073 17.8067 12.308 16.692C12.308 15.5787 12.696 14.6337 13.472 13.857C14.2487 13.0803 15.194 12.692 16.308 12.692ZM16.308 19.539C16.4527 19.539 16.578 19.4857 16.684 19.379C16.7893 19.2737 16.842 19.1487 16.842 19.004C16.842 18.8587 16.7893 18.7333 16.684 18.628C16.578 18.522 16.4527 18.469 16.308 18.469C16.1633 18.469 16.038 18.522 15.932 18.628C15.826 18.734 15.773 18.8593 15.773 19.004C15.773 19.1487 15.826 19.274 15.932 19.38C16.038 19.486 16.1633 19.539 16.308 19.539ZM15.935 17.754H16.681V17.581C16.681 17.385 16.731 17.2257 16.831 17.103C16.931 16.9803 17.0477 16.8523 17.181 16.719C17.4143 16.519 17.5977 16.3147 17.731 16.106C17.8643 15.8973 17.931 15.639 17.931 15.331C17.931 14.873 17.7823 14.4983 17.485 14.207C17.1877 13.9157 16.7953 13.7697 16.308 13.769C15.95 13.769 15.6167 13.8817 15.308 14.107C14.9993 14.3323 14.7787 14.6237 14.646 14.981L15.331 15.254C15.4063 15.054 15.5297 14.879 15.701 14.729C15.8723 14.579 16.0747 14.504 16.308 14.504C16.5833 14.504 16.7983 14.573 16.953 14.711C17.1077 14.8483 17.185 15.055 17.185 15.331C17.185 15.527 17.1283 15.6907 17.015 15.822C16.9023 15.9533 16.7793 16.0857 16.646 16.219C16.546 16.319 16.4483 16.4257 16.353 16.539C16.2577 16.6517 16.1683 16.7617 16.085 16.869C16.035 16.9563 15.9973 17.053 15.972 17.159C15.9473 17.2657 15.935 17.373 15.935 17.481V17.754Z" fill="#858585"/>
<rect x="12" y="12" width="9" height="9" fill="#EDF7F5"/>
<circle cx="16" cy="17" r="3.5" stroke="#858585"/>
<path d="M15.9375 17.9542V17.9205C15.9399 17.7003 15.9618 17.5251 16.0032 17.3949C16.0458 17.2647 16.1062 17.1593 16.1843 17.0788C16.2624 16.9983 16.3565 16.925 16.4666 16.8587C16.5376 16.8137 16.6016 16.7634 16.6584 16.7077C16.7152 16.6521 16.7602 16.5882 16.7933 16.516C16.8265 16.4438 16.843 16.3639 16.843 16.2763C16.843 16.1709 16.8182 16.0798 16.7685 16.0028C16.7188 15.9259 16.6525 15.8667 16.5696 15.8253C16.4879 15.7827 16.3968 15.7614 16.2962 15.7614C16.205 15.7614 16.118 15.7803 16.0352 15.8182C15.9523 15.8561 15.8836 15.9152 15.8292 15.9957C15.7747 16.075 15.7434 16.1774 15.7351 16.3029H15.1953C15.2036 16.0898 15.2575 15.9099 15.3569 15.7631C15.4563 15.6152 15.5877 15.5033 15.7511 15.4276C15.9156 15.3518 16.0973 15.3139 16.2962 15.3139C16.514 15.3139 16.7045 15.3548 16.8679 15.4364C17.0313 15.5169 17.1579 15.63 17.2479 15.7756C17.339 15.92 17.3846 16.0887 17.3846 16.2816C17.3846 16.4142 17.3639 16.5337 17.3224 16.6403C17.281 16.7456 17.2218 16.8397 17.1449 16.9226C17.0691 17.0054 16.978 17.0788 16.8714 17.1428C16.7708 17.2055 16.6892 17.2706 16.6264 17.3381C16.5649 17.4055 16.5199 17.4854 16.4915 17.5778C16.4631 17.6701 16.4477 17.7843 16.4453 17.9205V17.9542H15.9375ZM16.2056 19.0337C16.1085 19.0337 16.0251 18.9994 15.9553 18.9308C15.8854 18.8609 15.8505 18.7769 15.8505 18.6786C15.8505 18.5816 15.8854 18.4987 15.9553 18.43C16.0251 18.3602 16.1085 18.3253 16.2056 18.3253C16.3015 18.3253 16.3844 18.3602 16.4542 18.43C16.5252 18.4987 16.5607 18.5816 16.5607 18.6786C16.5607 18.7437 16.5442 18.8035 16.511 18.858C16.479 18.9112 16.4364 18.9538 16.3832 18.9858C16.3299 19.0178 16.2707 19.0337 16.2056 19.0337Z" fill="#858585"/>
</svg>
