<svg width="20" height="22" viewBox="0 0 20 22" fill="none" xmlns="http://www.w3.org/2000/svg">
<g clip-path="url(#clip0_1683_23408)">
<path fill-rule="evenodd" clip-rule="evenodd" d="M1.0152 0.675744C1.4488 0.241608 2.03705 -0.00257263 2.65063 -0.00311279L11.2706 -0.00311279C11.8842 -0.00257263 12.4724 0.241608 12.906 0.675744L18.1733 5.94306C18.6075 6.37666 18.8516 6.96491 18.8522 7.57849V19.2826C18.8522 19.8964 18.6084 20.485 18.1743 20.9191C17.7403 21.3531 17.1517 21.5969 16.5379 21.5969H2.65218C2.03839 21.5969 1.44974 21.3531 1.01573 20.9191C0.581716 20.485 0.337891 19.8964 0.337891 19.2826V2.31117C0.337891 1.69712 0.580119 1.10774 1.0152 0.675744ZM8.22343 6.9814C8.34733 7.06966 8.45261 7.18148 8.53325 7.31046C8.61388 7.43945 8.6683 7.58307 8.69337 7.7331C8.71845 7.88314 8.7137 8.03665 8.67939 8.18484C8.64508 8.33304 8.58189 8.47302 8.49343 8.59677L6.33806 11.6146C6.24032 11.7511 6.11404 11.8648 5.96797 11.9476C5.82191 12.0305 5.65956 12.0805 5.49221 12.0943C5.32486 12.1081 5.15651 12.0853 4.99884 12.0275C4.84118 11.9697 4.69799 11.8783 4.5792 11.7596L3.28629 10.4667C3.08189 10.2474 2.97062 9.95723 2.97591 9.65745C2.9812 9.35767 3.10264 9.07165 3.31465 8.85964C3.52665 8.64763 3.81268 8.52619 4.11246 8.5209C4.41223 8.51561 4.70236 8.62689 4.92172 8.83129L5.2488 9.15683L6.60961 7.25294C6.78783 7.00316 7.05797 6.8344 7.36061 6.78376C7.66325 6.73313 7.97361 6.80323 8.22343 6.9814ZM9.68915 9.83106C9.68915 9.52417 9.81106 9.22984 10.0281 9.01284C10.2451 8.79583 10.5394 8.67392 10.8463 8.67392H14.7034C15.0103 8.67392 15.3047 8.79583 15.5217 9.01284C15.7387 9.22984 15.8606 9.52417 15.8606 9.83106C15.8606 10.138 15.7387 10.4323 15.5217 10.6493C15.3047 10.8663 15.0103 10.9882 14.7034 10.9882H10.8463C10.5394 10.9882 10.2451 10.8663 10.0281 10.6493C9.81106 10.4323 9.68915 10.138 9.68915 9.83106ZM9.68915 15.9547C9.68915 15.6478 9.81106 15.3534 10.0281 15.1364C10.2451 14.9194 10.5394 14.7975 10.8463 14.7975H14.7034C15.0103 14.7975 15.3047 14.9194 15.5217 15.1364C15.7387 15.3534 15.8606 15.6478 15.8606 15.9547C15.8606 16.2616 15.7387 16.5559 15.5217 16.7729C15.3047 16.9899 15.0103 17.1118 14.7034 17.1118H10.8463C10.5394 17.1118 10.2451 16.9899 10.0281 16.7729C9.81106 16.5559 9.68915 16.2616 9.68915 15.9547ZM8.49343 14.816C8.58601 14.6927 8.65299 14.5521 8.69044 14.4025C8.72789 14.2529 8.73506 14.0973 8.71152 13.9449C8.68798 13.7924 8.63422 13.6463 8.55338 13.5149C8.47254 13.3836 8.36627 13.2697 8.2408 13.1801C8.11533 13.0904 7.9732 13.0267 7.82277 12.9927C7.67233 12.9588 7.51663 12.9552 7.3648 12.9823C7.21297 13.0094 7.06809 13.0665 6.93866 13.1504C6.80924 13.2342 6.69789 13.3431 6.61115 13.4707L5.2488 15.3761L4.92172 15.049C4.70236 14.8446 4.41223 14.7333 4.11246 14.7386C3.81268 14.7439 3.52665 14.8653 3.31465 15.0774C3.10264 15.2894 2.9812 15.5754 2.97591 15.8752C2.97062 16.1749 3.08189 16.4651 3.28629 16.6844L4.5792 17.9773C4.69799 18.096 4.84118 18.1875 4.99884 18.2453C5.15651 18.3031 5.32486 18.3258 5.49221 18.312C5.65956 18.2982 5.82191 18.2482 5.96797 18.1653C6.11404 18.0825 6.24032 17.9689 6.33806 17.8323L8.49343 14.816Z" fill="#0B8FAC"/>
</g>
<defs>
<clipPath id="clip0_1683_23408">
<rect width="19.8" height="21.6" fill="white"/>
</clipPath>
</defs>
</svg>
